<mxfile host="Electron" agent="Mozilla/5.0 (Windows NT 10.0; Win64; x64) AppleWebKit/537.36 (KHTML, like Gecko) draw.io/24.7.17 Chrome/128.0.6613.36 Electron/32.0.1 Safari/537.36" version="24.7.17">
  <diagram name="第 1 页" id="JyOCsTlvFNmfxRj6QSug">
    <mxGraphModel dx="1450" dy="629" grid="0" gridSize="10" guides="1" tooltips="1" connect="1" arrows="1" fold="1" page="0" pageScale="1" pageWidth="1169" pageHeight="827" math="0" shadow="0">
      <root>
        <mxCell id="0" />
        <mxCell id="1" parent="0" />
        <mxCell id="cnLCLMYv-gfv657BTeQf-1" value="" style="shape=image;verticalLabelPosition=bottom;labelBackgroundColor=default;verticalAlign=top;aspect=fixed;imageAspect=0;image=data:image/png,iVBORw0KGgoAAAANSUhEUgAAA20AAAM3CAIAAAAhhS8MAAAgAElEQVR4Aezde3hU1f3vcZ/zPOePc84/55x/+zzt79S2WOvT34yTmB/SUCo3gSoCYgRUkICAoCCgQJWrWrnL/Y6ioEhRA4JyE6RBENqAgAhiuBOgJFxCQjJJJjP7GBZ+Xd17ZrJnsmeS2fPOw2N39uy99lqvtabzydqXucPgBwEEEEAAAQQQQACB2AXuqOIHAQQQQAABBBBAAIHYBe6o5gcBBBBAAAEEEEAAgdgFyJGxm7EHAggggAACCCCAQHX1HTX8IIAAAggggAACCCAQu8AdAX4QQAABBBBAAAEEEIhd4I5afhBAAAEEEEAAAQQQiF3gjiA/CCCAAAIIIIAAAgjELkCOjN2MPRBAAAEEEEAAAQSCwTtC/CCAAAIIIIAAAgggELsAOTJ2M/ZAAAEEEEAAAQQQCIXuiP0rcNgDAQQQQAABBBBAAAGDHMkgQAABBBBAAAEEEIhHgBwZjxr7IIAAAggggAACCJAjGQMIIIAAAggggAAC8QiQI+NRYx8EEEAAAQQQQAABciRjAAEEEEAAAQQQQCAeAXJkPGrsgwACCCCAAAIIIECOZAwggAACCCCAAAIIxCNAjoxHjX0QQAABBBBAAAEEyJGMAQQQQAABBBBAAIF4BMiR8ai5aZ9r168/8WRvj9fn8fpmzZ7TwKbNmj1HFfXEk72vXb/ewNLYHQEEEEAAAQSasgA5Mkzv+P3+gwcPzp4z9/mhw1wfhsiRYUYAqxBAAAEEEEDAhkAj5Eg9uKi5qyj/LSgosNEKJzfx+/1jxryciEm1q1ev9uz1hCq5Q8dOJ0+dknoXFRV16dpNvdT+wY4nTpyQlxK9oHcH85GJ1qZ8BBBAAAEE3CRAjjT3ZuJy5MlTpzp07CShedPmzXLs/Pxdst7j9SUzPZMjpRdYQAABBBBAAIGYBMiRZq6k5chJk16tqakxDCMQCEyfMZMcae4JfkcAAQQQQACBpi3QCDnSCtKkbs5IWo7Myelx+fJlwzCuXbv2VO8+5EjrwGANAggggAACCDRlgdTLkRcuXJgzZ27HTg95vL6MzKwePXutWPFOlLthSkpK3nt/9dN9c+/Lai67LFq0uLCwMBgMqr7Rs6Oe56zLDbmCsKCgQBX44kuj7m+RnZGZpc5fHz78zf0tstu2az9+wkS1QV7eOhk0gUDg++8Lly1/q29uv+yWrdQGrdu0GzLk+U2bN/v9ftlSLejnqVX5V65cmTZtenbLVhmZWf36D9iz5ytpeF2KjXC/diAQWLBgoQi8MnZcRUWFfqxgMHj8+PFp02c80uX2lZ0dOz3Uuk07tUvY+7VLSkpWrHinR89eGZlZHq+vdZt2w0eM3LVrV3V1tZScl7dOlTBmzMvW1slm8+YvUJstW7bcMAy5ZkBdeFpZWblu3fqnevfJyMzKyMwaOGjwkSNHQqGQ7M4CAggggAACCDRcIJVyZCAQWLv2QxUHJd+ohdZt2u3dt8/EEQwG161bH3Z7j9en3+mS5Bz59tsrBg581uP1qQy0bNlyj9c3fMTIVaveU83Rc6SkT1OT1a+5uf2Li0v0huu5sKCg4OTJk127ddf3/SHDrVu3XkKVvr2k5FAotG7depX2PF7fsGHDr169qh/l+vXrr4wdpxdrWjblyGAw+Omnn0kONm3c/5kBRUVFqvy9+/apV00l6Ec3DEPmsDds2GjKkbt37xk4aLDpEPdlNd+48VNTIfyKAAIIIIAAAg0RSJkcaUo2ppSgcmFhYaFusXffvvtbZFu3VGsaMUfm5a1T2XHYsOGXL18eNmy4x+vbtHnzhg0bVd3s50iP1/fqa6/r83l6Lvxhqk/uPdcdHu7c5dy588pK315y5N59+yTzWaPq1atXnx08RC/QuqynwHr7zuP1yVGOHTv2pwfaeLw+Oe+v96la1nO/mnOV+UhrTWRNz15PFBcXW0tjDQIIIIAAAgjEJ5AyOVIPCkOeG3r69OlgMOj3+z/7bJMknvETJkqiqqmpmTTpVZUhHu7cZf/+A4FAwDCMYDB45cqV/Pxdk6dMPXPmjFVNzyh6GLJuGeuardu2qfrs3bevoKAgIzOrS9duX+3d26VrNxVqZepRzVOq8g8eOjRu/IT8/F0lJSWqCYFA4OChQ72eeEqV1qVrN5nMM52n/usbk9VZ3QsXLlRXV8u5YI/Xp6bxTNurHHnixImHO3cROtNDiEKh0PK33lavery+p/vmHjp0WJ0oLysre/W119VLOp3edx06dsrP3xUIBEKh0NmzZ4c8N1SKen/16lAoJI9A0oO+ifrmzZsqfMs2+iHU1QvL33rb7/eXl5f/5eVX5BDWSWtTyfyKAAIIIIAAAvYFUiNHhkKhpUuXqTTQtVt3mUszDEN/SVKFYRh6HMx5vOelS5dsoug76mHI5u5RNpMr/woKCi5fvpyT08Pj9b00arQ6qV1RUSE5UuYFo5Qmjwq6v0X24cPfyJb6/KLH69O59LAlh9C3nzV7TnFxSW5uf0Wd3bKVNXgVFxfLUzCtsHK6WadTk68er++Hy0B3794jVTUM49KlSzmP91SHGzjw2bKystLS0t59+qo1aq7Rmhqlzj17PaFOuOtNy8jMWrPmbypzG4Yhqh6vT5/o1avBMgIIIIAAAgjEIZAaObKsrExdUOjx+iZPmSoRQTVYDwoqeVgfpvPQw50/+jivpOTfLiUM65WcHKlPl3q8vvfee19PPBLywtYwSqtN84um5CTxS/8KRH3lpFdfk6sew4ZIwzAOHPharptU1dYrac2RkgLVdZY3b97Utw+FQnPmzFWpUf0ZUFVVJXXIz99lGMbx49+3bddebaMeunnmzJk/P9RZL1DPkaNGj9FvCdJfIkfq+CwjgAACCCDQQIHUyJFyrlOFiSj/1YOCfn5Wdnm4c5dFixafP39ebjQxCSYuR7733vuqGirsyvTknx5oc+zYMT1HmrKy3Bmd83jPsLcNSXo25cj+zwwoLS01NdD0q54jRcnj9X2clxeWSKqdkZl14MDXptKsOVL/Fp+ZM9+0likFygPYpRDVm/oG6qGbEg3lGZyyRo/Iqm76S/rwMNWcXxFAAAEEEEAgVoHUyJF6FNCzjnXZFBS+/fbo031zrZt5vL4XXxxlugdZ2SUuR0o8UrFPbihR53MNw1APAPJ4ffojb4qLi198cVTYJsjKSDnSzrymniNbt2kndyaNGzc+7GN3JNXpVxHIsJM2ynltve/C1kcKlBwpa+bNX/DDBa/qcUiqYupiUJmBnjd/gTp0lKPoL5mGh1SbBQQQQAABBBCIQ8BtOdJ6PV8wGCwsLFy0aLHcOyLxK2xUSnSOlGk8OVkvd9VI4pEcWVpaan2EjdRfFpzKkdOmz5BnRpoeDyRjS0Je2O8Bt+ZIuRLU4/VFn48UGXn0z8yZb547d1598/j8BQtVlNy6bZtcGyq5UOiYj5SeYgEBBBBAAIFEC6RGjtTPjYad07LDFAqFLl269Oas2XJ5n5xQ1ndPUI4MhUIzZ75pem6lflz9IYgvjRpdWVlpGMaXX+6W2g55buipU6fl2lCZk5NpPFWaPr9ox8q0vZ5cw14iKXede7w+U2qvqKgYNXqMSrcyH6nfNzNs2HDT9ZGBQGDylKlqF7nxXGZqx4x5ecuWrR6vr0vXbocOHVbf+jN5ytQPP/xI7SIBmhxpGkv8igACCCCAQBIEUiNH6nel9O7TtyFPAZTzpKYgItb6fR5RHmEo29tckHga9nSwKkTCkIQwmfwzRd5QKPTZpk2qCc7mSMMw9OtKH+7cxfTcHwl5Hq9v6dJlcr2j6ftvpAl6UrTer33u3Hl5TLrMwsrlsE/17qPuuRkz5uWbN2+qxPlU7z4qreoTokLHfKTNAclmCCCAAAIINFwgNXKkYRj5+btkZu7pvrl79+1TV++FQqGysrLDh79ZtGjx0qXLRMTv97/55qyVK1edOHGirKxMxZ1AILB//wE5wW0KZ7Kv/pzFmTPfLC8vl5fiXogvR8qTydWX31RUVIRCofPnz7/2+l9Fw/EcaXpsuDwhXLVdTsd7vL7slq22b98RDAbLy8tnzZ6jV0lypGlWVZ4fGQwGT5482f+ZASoNZ2RmqbuzDcOQKcyMzKz/at5C7jpXp7Pvb5Gtvn1RT/nkyLhHJjsigAACCCAQt0DK5Ei/3z9u3HiZgQu7oJ/GldwWdku10vRNMIKon0027a4fQra3syD1iTIfKZcSSgjTH3ljqon+q5zeNd2vbae2pvPaqi2BQGDq1GlyCNOFpFu3btMjo2ymnhCpfpUmGIZRXV0tzyfXN9aXFyxYKKfsxUptIHFf5inVerk/Sb8kgPlIO6ORbRBAAAEEEHBEIGVypGEY5eXlb0yeoocP07Iem0xZxLSlx+t7Zey469evh0U0naLV99UPEXbfSCtlji1KjpRI9+eHOqvv2gkEAkuXLrOGtozMrPETJsotOI7nSMMw9AeS/1AB/Su5I/kMGzZ80+bNikvPkdH7LiMza86cuaZ7w+V+HY/XJ3nR1KevjB1XVVWlwJmPjDTwWI8AAggggEDiBFIpR6pvryksLJw2fcYjXbqpvJLdslXv3k/PnjP34MGDNTU1ulRpaen27TteGTtONs7IzHq0e8606TOOHz+uvspP315fDgaDe/ftGz5ipDqFKlEy7hwpGdEUsPSDyjZ61gwGg3v2fNWv/wCVJjt2emja9BmFhYWVlZXy3dmJyJHqeZbynZOme270WmVkZvXrP2Dnzr9XV1fLo4uszQwGg0eOHBk/YWLHTg8pz0e6dFNtkYssReOjjz4W8zlz5soGa9b8TdbrfUGOFDoWEEAAAQQQSJpAk8iRSWstB0IAAQQQQAABBBBwSoAc6ZQk5SCAAAIIIIAAAuklQI5Mr/6mtQgggAACCCCAgFMC5EinJCkHAQQQQAABBBBILwFyZHr1N61FAAEEEEAAAQScEiBHOiVJOQgggAACCCCAQHoJkCPTq79pLQIIIIAAAggg4JQAOdIpScpBAAEEEEAAAQTSS4AcmV79TWsRQAABBBBAAAGnBMiRTklSDgIIIIAAAgggkF4C5Mj06m9aiwACCCCAAAIIOCVAjnRKknIQQAABBBBAAIH0EiBHpld/01oEEEAAAQQQQMApAXKkU5KUgwACCCCAAAIIpJcAOTK9+pvWIoAAAggggAACTgmQI52SpBwEEEAAAQQQQCC9BMiR6dXftBYBBBBAAAEEEHBKgBzplCTlIIAAAggggAAC6SVAjkyv/qa1CCCAAAIIIICAUwLkSKckKQcBBBBAAAEEEEgvAXJkevU3rUUAAQQQQAABBJwSIEc6JUk5CCCAAAIIIIBAegmQI9Orv2ktAggggAACCCDglAA50ilJykEAAQQQQAABBNJLgByZXv1NaxFAAAEEEEAAAacEyJFOSVIOAggggAACCCCQXgLkyPTqb1qLAAIIIIAAAgg4JUCOdEqSchBAAAEEEEAAgfQSIEemV3/TWgQQQAABBBBAwCkBcqRTkpSDAAIIIIAAAgiklwA5Mr36m9YigAACCCCAAAJOCZAjnZKkHAQQQAABBBBAIL0EyJHp1d+0FgEEEEAAAQQQcEqAHOmUJOUggAACCCCAAALpJUCOTK/+prUIIIAAAggggIBTAuRIpyQpBwEEEEAAAQQQSC8BcmR69TetRQABBBBAAAEEnBIgRzolSTkIIIAAAggggEB6CZAj06u/aS0CCCCAAAIIIOCUADnSKUnKQQABBBBAAAEE0kuAHJle/U1rEUAAAQQQQAABpwTIkU5Juracc+eLPszbsGDx20uWv7vxs61Xr15zbVPjbVhVVdWlf12+ebMi3gLYDwEEEEAAgZQUIEemZLclrdLV1dXzFi6fNXex/Hvvg4+SdvQmfqDqmpqDh4+8/8FHgvPWivf+8c8DlX5/E6851UMAAQQQQMARAXKkI4yuLeT7wpMSkmSh9MYNBxt85ux5FVWXLHu3tNTJkh2spLWoGzfK3lrxnpjoCwsWvfWvy8XWXRKxRunlrf80EYUntMwzZ8+//c5q6fHUbUhClSgcAQQQaOICjZMjvzlyTH3uzlu4/MzZ82K0M3+3Wq9Hirz1n6qVq1av9fur1MaypXrpmyPHpBDrQmnpjSXL3lVb7szfrTaQ+KLW1/tJLEfU62YYhlofvQLqiGFbHbZu1iY4VUKkkiOt//rgN8pH/2/RhYuRto97vSlVxF1OcnasqqpasfKDWXMXz563ZM/ef169eq22tvZ66Y2Dh4/MX1Q3fbtg8dvXrl2PXpmw4yH6LtZXm2z8kret6X0nTTD1eNiGfHPkmP6ul32TuVB79GjF8OEVQ4b433jDqODShWTacywEEEgBgUbIkaWlN1atXqvmIXbm75ZY9s2RY7Kct/5T9fnxzZFjKuH5/VWrVq+VtLczf7ckwujMake1sfqsUpnvzNnzaz5cJ8E0eiFh66ZK3vjZ1iXL3q03R545e37xsndUaJZWR6pb2MqEddNLUJG03pqELTzSyiTMR6pDm1JFpPo0hfW1tbUfrM1T8Wj/14dUlb4vPLnvnweqqqrOnD2vXnrrnfcrKyOe4A47HppC65yqQ976T6O/Q+30eIJyZKikpGLMmIohQ9S/6g8/rLfVgd27beXIigr/G28Edt/+Y7XeYtkAAQQQSHWBRsiROpl8mup5yDAMWa9vvDN/t0xO2M+RegQ0DCNv/acqjNrPkZHqtjN/9zdHjtlMb3JcwzBkl0h1U63OW/+pBGvdQfcxlbAzf7dEbdMu8f1aU1MjU7kqHn348Sd2igo7HaXPAZvqaU0V1um6b44cW/PhulWr185buPyrvf+ct3C5Ph5U9WbNXayStIrd3xw5pk6ay5Z2Kh99m4IDB9WxZs9bUhsMqo13f/WPWXMXr1m7zjCMd1etURts/yI/UlFhx0PYjWW0qFf1XwXZlNhMc+dhbRWIGtuqtpEGW9ha1bsyUo6Ubp01d7Ec0doQfag4Xr1QSUnlhAm1R48ahqEyZb1RkhxZb4+zAQIIpKdAU8mRpaU33n5ntZquU5+UEgikY+LLkXq0Up+v6hPUfo6MXjf9c12qalpQn9Yq38gnt4rCEqf0uqndbeZIPSElYv7mxo2yTzZuXvvRJ2s/+mTr5zurqqpNrbP+KulWNVa1UYdSy3r6MWUd/Q8JKU1FEDVFvWTZu2fPFakxIxsYhqGC45mz59UhVFLRD22tbaxrliy/fY3EO6vWGIZx4eKlvfsK5G6k6urqzzZ/rqLPnPlLw95zE2k8RKqJHjpNUOpPI11S11BvmcuXS+TNpQ4h40R/d0Q6enzrw+ZIvVvrbYjqTX14x1cT6156jjQMQ8+IVfPnq0lK0+yjvo0qUM53VwwZoiYgqz/8UOY46xaGD1dR1TCMSMVa68YaBBBAILUEGjNHmkLG2++s/r7w5KrVa1WCNH0O6aek5apE9WktUSwsvfqkVBFk1eq13xeeVFf36xMeMi8StgSVIyPVzU5Gkdyg5l0kQUaqW9hqyEqTm5xVVzVJxOeuHNrmgp57JP3LgipEooz61ZQq9Plm0ZNd1Nj4sV9OrVq9Vg9S+qty9a1pONlsSNjNPtm4WQ28pW+tNAxDjVi1ZtHSd0KhkMyurXh3dSgUshYiLTKNB+uWao2Oo8uoV01Ny1v/qVzbIERrPlx35ux5KUfio1xiEenQca8XBCWjqqRXVSojh9BfVSulx2UbRxZMObL26NHKCRNCJSXVH34oE5P6silrqllM/xtvhEpKTMtGuPPaelH6siNtoRAEEECgcQUaM0fKRZByqlfmIOWDVumohKRnBVHTQ5Wam1GfW7PmLlbbm+b5wn4y6Z+m+nk3lcnU0aPXTT65pWL6gqqkVEnmkOzUTS9HLetuas5GNXnJsne/2vvP6KnaWlqUNaFQaPeefyxc8raQzpq7+K0V7x09djzKXirlq2iuGi4dodfN1BGmVGFKIQpfdlGBQ0LSqtVrdX/91UTkyJKSqwJy82bF+aILCxa9NWvu4jnzlx7//kRtbe2S5SvVBidOng4LFWk8hN3YMAy1/TdHjvn9VSoR6lvq8UtKlhqqW9lUuFTD48zZ83oYFeqw7y/9QDEt67WSHfWVph6XN4VsnLT5yNs58tw5/xtv6BOKVfPnS2VM85GB3bv1LX+aerTmyFtr9I31YqV8FhBAAIEUFWi0HGk6aasHDhUr5UycinF6BDFZy+SKab36VT/NpyKOtSjrR5peVJS6SQLWc4y+ryzrU3QSC+zUTUpQCyY306t6PjC9FOuvwWDw003bJI6YFg58fThKgdYsruT1uVLT9KSpC/TAIQeKkiMlA0lnqZSZiBxpGMax775XIH/7cH2l319+8+b5ogtl5eWBQGDTlu3qpT17/yk1ty6EHQ/WzWSNGuRhL8bQrWRoyY5qYWf+7q2f79TTpGnERvlTzVSUzV/1Wsku+kpTjzdijrydEUtK/DNnyploqbNasObI8HEwbI6MXKzpKPyKAAIIpJxA4+TIsGFoZ/5ueQyQhIx6Q6TpfLe1A/QS1LLpE1R99FrDpV5U2LqpDcKWqe+rluXaPjXLol+3pw5tLceqZF2jH0jQ9JVxL++5deOIKT7qvxZduBS28EhRRu8pa2NNqUIuc9QPETZHqtk1uTJBonlCc6RhGPJEpIVL3v5007Yv9+zbtGX7srdXKaLtX+zSa25dDjserJvJGpUgt36+0zR6rfFLn1yX3Xfm79742datn+8sLb2h7lWShK22kfwtuzRwQY+MUpQMUTUApNfUBtZd9OsppZCGL+jntdVljuoCx6r5802XRcqxTDlS30u2UQtV8+fLyXFZE6lY0778igACCKScQCPkSP3CRPWhKxlOneedNXexTFzJGkkw6uyeXJQm0TMKvfrQUiXIx7BessxmRSlEtpe66bNupsLDliPb6x+fYeumdjelxrBu6uPfxBj26LGufOud98U87EKUm5GlpWpHEdObIOYCqzYWHL0QtTJSjtSvl5XxkOgcaRjGxYv/evvd1SacJcveLTxxyo62NFCaHH0v03jQR46qQ1hSha+OpQa/lKMPnllzF8vbMHo1bL4qp8v1uskR5y1crnqztPRGlIboPWtTyU71/u25P9rdMOrqRjkHrcKl6RS2JEJ9vaw0DOOn+2+k5H8/tc1Tgez0EdsggECqCDRCjkwVmjSv59z5S00JyfTr2o/CPwBIZQXJ6+pXiTguUw2FQqdOn93597rHLX2+I//Yd9/X1ta6rI00BwEEEEAAgUgC5MhIMum+/vvCk1/tK4jy78LF8Oe11fSS5Ej9dHa6m9J+BBBAAAEE3CVAjnRXfzaN1sgZWzWFKZmyadSOWiCAAAIIIICAMwLkSGccKQUBBBBAAAEEEEg3AXJkuvU47UUAAQQQQAABBJwRIEc640gpCCCAAAIIIIBAugmQI9Otx2kvAggggAACCCDgjAA50hlHSkEAAQQQQAABBNJNgByZbj1OexFAAAEEEEAAAWcEyJHOOFIKAggggAACCCCQbgLkyHTrcdqLAAIIIIAAAgg4I0COdMaRUhBAAAEEEEAAgXQTIEemW4/TXgQQQAABBBBAwBkBcqQzjpSCAAIIIIAAAgikmwA5Mt16nPYigAACCCCAAALOCJAjnXGkFAQQQAABBBBAIN0EyJHp1uO0FwEEEEAAAQQQcEaAHOmMI6UggAACCCCAAALpJkCOTLcep70IIIAAAggggIAzAuRIZxwpBQEEEEAAAQQQSDcBcmS69TjtRQABBBBAAAEEnBEgRzrjSCkIIIAAAggggEC6CZAj063HaS8CCCCAAAIIIOCMADnSGUdKQQABBBBAAAEE0k2AHJluPU57EUAAAQQQQAABZwTIkc44UgoCCCCAAAIIIJBuAuTIdOtx2osAAggggAACCDgjQI50xpFSEEAAAQQQQACBdBMgR6Zbj9NeBBBAAAEEEEDAGQFypDOOlIIAAggggAACCKSbADky3Xqc9iKAAAIIIIAAAs4IkCOdcaQUBBBAAAEEEEAg3QTIkenW47QXAQQQQAABBBBwRqARcuSJ0xf5hwACCCCAAAIIIBBFwJmgl+BSGiFHJrhFFI8AAggggAACCCCQDAFyZDKUOQYCCCCAAAIIIOA+AXKk+/qUFiGAAAIIIIAAAskQIEcmQ5ljIIAAAggggAAC7hNIyRwZ4gcBBBBAAAEEEGjCAu6LjGFb1HRzZBMeG1QNAQQQQAABBBCIUyBsIEvRlU0oR8bZG+yGAAIIIIAAAgikrECKJkhV7UbOkSnb6VQcAQQQQAABBBBwWCDlMmXj5EhH1IP8IIAAAggggAACTUyg4SEnhdJksnNkrLhNbGxQHQQQQAABBBBAIE6BWFNQ0w+UycuRNu3i7Bl2QwABBBBAAAEEUkrAZjRqymkyGTnSDlNM/V7LDwIIIIAAAggg0IQFYgo2dpJS00yTCc+R0WnqVW7CI4SqIYAAAggggAACMQjUG3uip6YmGCUTmCOjW0SijKE3LJsG+EEAAQQQQAABBJIoYAkjMayIlIWiJ6gmlSYTlSOjEIRVq1c9iUOCQyGAAAIIIIAAAo4J1BtywkajKFGq6UTJhOTISC0PyxQJ12bv1fCDAAIIIIAAAgg0AQGb0SVS8gkbkyJlqiYSJZ3PkWEbbKUJixipA5rA2KAKCCCAAAIIIIBAnAKREk7YOGRNTWHDVVOIkg7nyLDttHJY1ay+UTqqmh8EEEAAAQQQQKAJC0SJMdbMY81F1uwUNmI1epR0MkeGbaEJwiRlpbS62xkkVfwggAACCCCAAAKNJGAnq1gTjjUFmWKSKUSFDVqNGyUdy5HWtpkab6Ix2Zlww/ZHI40NDosAAggggAACCMQpEDbSmGKPKRSZIpMpUFkTVyNGSWdypLVJpjabRHQvndJkHaXH/PwggAACCCCAAAJNUiBKgDFFHT0F6enIFJxMscqau8dVvcAAACAASURBVBorSjqQI62NMbVWt9CNdLuamhq1mWlffkUAAQQQQAABBFwpoJKPKQ7pSUlPUCYBa/pqlCiZ8BypEwiNThYIBILBYKM0noMigAACCCCAAAKNLhAMBgOBgKQjyUuBQEDPUXqUdEmOtDZDb6TeeEERpurq6tra2kbvPCqAAAIIIIAAAgg0ukBtbW11dbXEJAlOeprSU5Y1gyW/CQ2aj7Q2QG+e3myxEJ3q6mqmIZPf3xwRAQQQQAABBJqsQDAYTK0o6WSOjClEMhPZZAcxFUMAAQQQQACBxhJo4Kxkkqsdf460ORlpmolUtykRIpPczRwOAQQQQAABBFJFIBAIqLykzuJKlJIzvfrMnTWPJbOZjuVIvUnSTmm5gpB73UOhUDIbybEQQAABBBBAAIFUEVBnt+OOkslsZpw50hp+JUfWGyJramqS2UKOhQACCCCAAAIIpJZATU2NzL7VOytpTWVJa6wzOVJCZDAYNOVI/caa6urqqqoqTmonrXc5EAIIIIAAAgikokBtbW1VVZU+JVlTU6NO80rQ0tOXKUomrckO50hpW9gz2urx7pzUTlrvciAEEEAAAQQQSEWBUCikUpMeJSVcSdySKJlKOdJUV2lDpMlIRaA4/H5/KnYndUYAAQQQQAABBJImEAqF/H5/pChpzZHBYNAUz5JT1XjmI00VlRwprVJ5Wb+3RkFUVVWRI5PTrxwFAQQQQAABBFJaQHKk6QR3pLPbpniWnLY3NEdKiLQ5GUmOTE6/chQEEEAAAQQQSGkB/62fuKckk9P2mHOkKe1Kjqx3MlJxVFZWJqdhHAUBBBBAAAEEEEhdgcrKylijpCmkJaHtSc2Rlbd+ktAqDoEAAggggAACCKS0gEpNcnbbesONTOHJpF6K5Uipt5zUjnRlpExGVlRUpHSnUnkEEEAAAQQQQCAJAhUVFTanJPU8pkfJJFSyQfORUm9JxFFypIrV5MgkdCqHQAABBBBAAIFUF1A5UkVJ+1dJuiRHmp714/f7KysrK279pHq/Un8EEEAAAQQQQCDRAio1RZqStHPXdqJraBhGbPOResgNhUKm+Ug7k5E3b95MQqs4BAIIIIAAAgggkNICN2/etD8lKZHMFNUSLRB/jpQaRzqpreZg9Ssjb976SXSTKB8BBBBAAAEEEEh1AZWawl4lqX/jtsQwCWZ6lEw0QjJypFwZSY5MdHdSPgIIIIAAAgi4Q0DPkaarJFMyR+rx1npSu7a2Vs5ry8WR+mRkRUXFzZs3y8vL3dG7tAIBBBBAAAEEEEicQHl5uTq1bZqSlAcA2blEMhQKJa6GsV0fGT1HSoisqakJmyNVrCZHJrQ7KRwBBBBAAAEE3CGgcqRcJSnPJJccWVNTo0fJsOe1UzVHysWR+knt8ls/7uhdWoEAAggggAACCCROQKUmyZH1ntpOpRwpdZWrO03zkXqOVDeuq5PaZWVliROnZAQQQAABBBBAwB0CZWVl1lPb8iDJJnKJZAz32ejntaPkSDmpXVVVJY+NlJPa5Eh3DG5agQACCCCAAAIJFZAcKVOS1u9I1M9r19bWSjzTM1tCK5nAHKnfZEOOTGgvUjgCCCCAAAIIuEwgbI5UUVIukXRVjlRTrDIfqSYj1dfYqJPa5eXlzEe6bJTTHAQQQAABBBBIhIDKkXJqW91wYsqR6lYbucgwVecjo1wcqefIsls/ibCmTAQQQAABBBBAwE0CKjWFzZFVVVXV1dXWSyRdmCNNN9ncuHHDTX1MWxBAAAEEEEAAgUQI3LhxQ05t69+1HeVWG3JkIjqCMhFAAAEEEEAAgRQTIEf65aS2PPSH+cgUG8VUFwEEEEAAAQQaQ0DPkWFv2U7589pyXaf1+shIN2uTIxtjKHJMBBBAAAEEEEgxgUg5Um61seZIefRPk3vuj14h+XJta47Ub9YO+/BIcmSKjWKqiwACCCCAAAKNIVBvjlS32oR99I8ptiWu+nafH2mqkLqQ036OVN/tU1ZWRo5MXF9SMgIIIIAAAgi4RkBypH7LtvVbtsmRrulxGoIAAggggAACCDgj4NocKXeVxzQfqSYjmY90ZnBRCgIIIIAAAgi4WuDGrR/90T+VlZU25yODwaB+JjlxTvGc17aZI9WD1ysqKvSbtcmRietLSkYAAQQQQAAB1wiEzZEqSqrnkEe5PtK1ObK0tNQ1HUxDEEAAAQQQQACBBAmUlpbKqW157g85khyZoPFGsQgggAACCCDgHoH0ypHqIUb6c3/CntdmPtI9A5yWIIAAAggggEDCBGzmyJqamkAgILesyMWHKXZ9pORI9bWP8vBI0/WR5MiEjTcKRgABBBBAAAH3CFhzZEVFhZzXVpdIyqPIyZHu6XhaggACCCCAAAIINFCAHFlZcetHv1+b+cgGjip2RwABBBBAAIF0ECBHkiPTYZzTRgQQQAABBBBwXoAcSY50flRRIgIIIIAAAgikgwA5khyZDuOcNiKAAAIIIICA8wLkSHKk86OKEhFAAAEEEEAgHQTIkeTIdBjntBEBBBBAAAEEnBcgR5IjnR9VlIgAAggggAAC6SBAjiRHpsM4p40IIIAAAggg4LwAOZIc6fyookQEEEAAAQQQSAcBciQ5Mh3GOW1EAAEEEEAAAecFyJHkSOdHFSUigAACCCCAQDoIkCPJkekwzmkjAggggAACCDgvQI4kRzo/qigRAQQQQAABBNJBgBxJjkyHcU4bEUAAAQQQQMB5AXIkOdL5UUWJCCCAAAIIIJAOAuRIcmQ6jHPaiAACCCCAAALOC5AjyZHOjypKRAABBBBAAIF0ECBHkiPTYZzTRgQQQAABBBBwXoAcSY50flRRIgIIIIAAAgikgwA5khyZDuOcNiKAAAIIIICA8wLkSHKk86OKEhFAAAEEEEAgHQTIkeTIdBjntBEBBBBAAAEEnBcgR5IjnR9VlIgAAggggAAC6SBAjiRHpsM4p40IIIAAAggg4LwAOZIc6fyookQEEEAAAQQQSAcBciQ5Mh3GOW1EAAEEEEAAAecFyJHkSOdHFSUigAACCCCAQDoIkCPJkekwzmkjAggggAACCDgvQI4kRzo/qigRAQQQQAABBNJBgBxJjkyHcU4bEUAAAQQQQMB5AXIkOdL5UUWJCCCAAAIIIJAOAuRIcmQ6jHPaiAACCCCAAALOC5AjyZHOjypKRAABBBBAAIF0ECBHkiPTYZzTRgQQQAABBBBwXoAcSY50flRRIgIIIIAAAgikgwA5khyZDuOcNiKAAAIIIICA8wLkSHKk86OKEhFAAAEEEEAgHQTIkeTIdBjntBEBBBBAAAEEnBcgR5IjnR9VlIgAAggggAAC6SBAjiRHpsM4t9vGI0eOPNW7T0Zm1qjRY65evWp3N7ZDAAEEEEAgLQXIkeTItBz44RpdVlY2cOCzHq9P/ZszZ24oFAq3IesQQAABBBBAoE6AHFl/jqwMGP+8YPyzyKiouT1orvuNfUVGwQXDH4hnGJ08dapDx06SV9RCRmbWo91zpk2fcfz48WAwGE+57NMwgZTOkQUFBTKi8vLWNUyCvRFAAAEEELAlQI6sP0daU2NJhbH3vPH1JaO61payaaOwOVJCgMfre/HFUcXFxaa9+DUJAql7XpscmYThwSEQQAABBEwC5Mj6c6RKjYf+ZQR+nCW8fNP46rxxWFtjYo3+a7050uP15eb2Ly4uiV4OryIgAuRIoWABAQQQQCBpAuTI+nOkNTWeLa3LkcfijXl6jpw1e47q7Jqamr379vV64imZmFyz5m9JGwccKNUFyJGp3oPUHwEEEEhFAXJk/Tny9HVzajx1rW7N91fi7PGwOVKVVVhYKJdODhs2/ObNm2r9tevXn3iyt4qYBQUFhmFcuXJl2rTp2S1bZWRm9es/YM+er8JeVVlSUrJixTs9evbKyMzyeH2t27QbPmLkrl27qqurw9a+srLykw0bBg4afF9Wc0m0+sITT/a+dv262jcvb516acyYl/1+fzAY3PXllz169lIHmr9g4ZUrZqPS0tLt23e8MnbcI126qX3lwtCzZ8/q97VIMNq7b9+33x7t/8wAj9f3aPecAwe+DgaDmzZvbv9gx4zMrBEjX7x48aJhGH6/f8yYlz1e30ujRl+7dm35W29nt2x1X1bzmTPfrKioKC4uHjV6TEZmVvsHO36yYUMg8NOVrdIKvZkery/SVYazZs9RW86aPScUChUWFk569bXWbdqpVi9/6+3Kykqrrdpy2vQZHTs9ZDqQ/BrpiNbSrGuEK0rNTXvZ7wvDMGTQdujY6eSpU5WVlevWrVf3tmdkZg0cNPjIkSN698mx7I8oOYTH65O/r1Q5euvU+JfyY2qF2iu+vrhw4cKcOXNV92VkZvXo2WvFinfkvSD1kYWSkpL33l/9dN9c9VZSuyxatLiwsDDsW1V2ZAEBBBBIIQFyZPgcGQjWnbb+6rytf7FOTEb5vAwEApOnTFXBQk9sphx58uTJrt26S/7weH0/xMR169brH+TBYPDTTz/LbtlK30yW+z8zoKioyDRST58+rU+Iysb6gl4rSWBjxrxcXl6+aPESlVZle9PZeYl6soG+YGqCRIe/vjH54c5dZMv+zwxYvfoD/UDDR4ysqKiQwnNyekya9Kps7/H63nt/9cBBg2VNRmbWl1/ulrZLK2QDtRAp1UmOnDnzzXXr1lsD97ODh5ieGRQIBFa8865eZ9Oxoh9RqhplQbhs5kjhClsTU1+YcuTu3Xt0T1XCfVnNN2781FTDmEZUlPeF3jo9R8baCsMw4uiLQCCwdu2H1o5Wfzns3bfP1OpgMBh2YCgoFcRNu/ArAgggkKIC5MimlSMNw5CYoic2PUf+MJuoJt5MCeDhzl3OnTuvBmIoFFq3bn304GIKeaWlpdZwYDqEx+vTayUJbMyYl7/YufP+FtnW7ZcuXSbpNvqnvsfry27Z6tChw6oJenSwFquvub9F9uHD39RbuL7LpEmv1tTcvv1eWqFvECWNSQeZttd/NV2TsHXrtuh9ofaNlFzt/J+LzmWnnHq59L7Qc6TeTNNyz15P6PeHxTqiHM+RphGlGGPti3rfSh06diosLNT7aO++fWHfC4qLHKlbsYwAAqkuQI4MnyOlX2tDxjeX62YlL5bfXidTlZdvn3OWbe0uRPm81D/de/fpW1paqgrVc+Rf35isziReuHChurp63vwF8nG+YcNGtb1+iA4dO+Xn7woEAqFQ6OzZs0OeGyrbv796tYS8L7/crbJORmbW+6tXV1RUqOdCzZo9R63v/8wA0zSbJLCBA5/t13/AfVnN8/LWBQKB48e/lxlEvRV+v//NN2etXLnqxIkTcsq+tLR08ZKlErOWLVuumqAHo1uRt3jlylVS89lz5paXl4+fMFGt2bptm073Q2nr1q2/ePHio91z1AYdOnb67rvvDh48qD7gBw58tqyszNph+kEjpTFTjuz1xFPff193pnL37j0y+/vSqNFydruiomL4iJGqGr379D158mQwGAwEAgcOfK0mlTMysz7ZsMFamZjW2Km5XmBMfWHNkRmZWcvfetvv95eXl//l5VekX/TJuVhHlD5obZ7XjrUVcfSFXqshzw09ffp0MBj0+/2ffbZJunv8hIlyoUhNTY1Mhz/cucv+/QfURRTBYPDKlSv5+bsmT5l65swZvS9YRgABBFJXgBxZT460psaqQN2TI/cVGdf9cfa7/slk+rw8evRY23bt1afy9Bkz5TI+PUd6vL6u3brL1GPY0pYtW64Kub9F9u7de/SKXrp0KefxnupVPU699977aqX+oWgYxtWrV3v2ekK9pJ9SNAxDcqR6dflbb6tUGgqF5syZq1bamX25efPmsGHD1fYyUyjB6P4W2SqdyOFk5lUiXV7eOj1Hqus1dTQ1LSpW+qyqjiMHtTkf2btPX7k8QK+AXv7ly5dzcnp4vL77W2QfPHhQP9xHH32sWq0qrL8U67KdmtspM2xfmHJkRmbWmjV/k8EZ6dCxjijpnZiujwzbqEitiLUvQqHQ0qXLVB/pbzrDMPSX9EGuD4Ocx3teunQpbA1ZiQACCLhDgBxZT470W1Kjeiz5P4qMUkdzZE1Nzc6df5ebbExnFfVIZIo4+ksqleofovrNOmrIRgp5Ej0lyantbebIvrn9Skp+uoNdMp/+ERvpPaN/9EqiknQiTZAyJ0+ZqkJMpByZn7/LMAyR+dMDbY4dO6aHIT3n6bWSg5qQ9W3koNaMLi/p5RcVFXXpWndTkTr/rhfVBHNk2L7Q6Txe36jRY9R0tWqLnv/0SdxYR5RejunvK71fTH/M6J6yHKkVsfaF/mh6GXVylLC1CgQC02fMVNHT4/U99HDnjz7O098asjsLCCCAgAsEyJH15MiKmrpvsvlHkVH+4/3N1seSxzoO9M9L+bwxLSxYsFDme/RI5PH6+j8zQM53hz20nvxmznxTzlzLxhLIPF6ffCpv3bZN1SG7ZauP8/L8/rqYXFpa+sPdJGp923btjx//XgoxzUdu2rxZfynKcnl5+ScbNgwZ8nzYO5etOVLWSLUlZEhuM81HqkZJjpQsK/J6ztOrqicDPRLp28hBpVh5VV7Sy9ezyJDnhqrb0gOBwP79B+Tsvz73LKXFtGCn5tYCbfaFKUeKvypQVE3hO9YRpZdjOoTeOhmx0hz7rYi1LyR3mt6e1l/10XLixAnpWdny4c5dFi1afP78eev7URrCAgIIIJByAuTIenKkNTU28MtsTB/J8jEjC/dlNV+5cpUeIk050vQRax1zUT6P1cYSyPQcWe9dEa++9rpcBGYqx5qorLUyDCMYDH722Sb1iBxpr2lBUqNEB1kj1RYByW1NOUcahhH93g7T3HNYunpXCpcpzEXaMaa+MA1a8VeF6+NNj1Oxjii9HNMh9NbpOTLWVsTaF3qVTAPV9KvecMMwvv326NN9c03bqF9ffHGU6TrjSH3EegQQQKDpC5Ajw+dI9cxIO8/9ieNbtsN+ON2X1fzpvrnvvb867CkwmVqzXjpmHWRyEZjH64s+H5mRmXXgwNeqhFAo9Le1a8N+8nm8voGDBlu/X0eCnc0cGT1OqUNLapToIGvkcBIyUiVHXr58WR7/aRK+L6v5Jxs2NHyOSrhs5siY+iK+HBnriNLfF9LFanDqrdNzZKytMAwjpr7Qq2TqONOv+g1Gqs7BYLCwsHDRosXWuclx48ar+X7rm5c1CCCAQGoJkCMbOUeaPi8jjZ6YcmRpaWnvPn3V55xcXCgl64+o7NK1m9wmIrf45OT0eO75oepe1OyWrQY9O3jnzr+bZiJVaRLs7ORI/VZZdepc7pgOezWbRIdUz5GBQGDq1GnqGZ/DR4zs/tjtW8gf6dJtzpy5Fy5ckK5pyIJw2cmRsfZFfDky1hGlhzbT+0JGmj6DHkcrYu0L/RIRU5Xsd1YoFLp06dKbs2bLQwnkgl37hbAlAggg0DQFyJHhc6T0lvXLbE5crXsM0Hc/3VIi29pdiPJ5GamImHKknhSt94KcO3denmEuEU2/OeCLL76IVA3Tevl0t5Mj9SaYblm4cuWKPLpSqiTBSNbI4eQTPSXmI48f/17dgz9kyPM/PKvIZOjUr8JlJ0fG2hdx5Mg4RpT+vtDn0fXHSOk5Mo5WxNoX+kN8evfpqz8dM9aO++EvMXlMld6KWMthewQQQKBJCZAj68mRKjXqX4F4rKQuR56+/dWA8fSm/nkpkSh6QfpHpp1d5NF9Hq9Pnh8ZDAZPnjypvmBQTY+p+5oN7UsFPV7fkOeGnjx16tr166WlpdG/wE2CnZ0cqc+S5jze89ixY+o5fNu373jo4c5yllBSowQjWSOHE4GUyJHSEDULe/Xq1WvXrzt+WlOOYidHxtoXceRIfY7Z5ojSa/Vw5y7Hj38fDAb37fuHPMRADRI5r61vb2dEGYYhSvb7Ij9/l8wjPt03d+++farvQqFQWVnZ4cPfLFq0eOnSZfL+1R9pWVZWpq5YMN1WxXykcLGAAAKpLkCOrCdHmlJjbdA4dOv7Ei81YF4pCTmyurr61ddel3AWdkG/JVyfPbJufF9W84GDBm/evMV0dluCnZ0cGf0QclBJjfKRL2vkcA7mSD2gSx2sC3JE/QuHrK2WXKvfry1zYNZiPV5fx04PTZs+4/z5219EFPf/oQhX2KOolXIvSKx9EUeOjH6IsCMqyi4ZmVn/1byFaoXkyCjb6wgyfgzDiKMv/H7/uHHj9QKty/rw0AO0dUu1xnrLWtz9zo4IIIBA4wqQI6PlSOtDyAMqR54ziuP9MpvoH8mRRoMed/QPrUjbG4ZRXl7+xuQpYT/JMjKz5syZa5oSKy4ukZPLYfey3m0jwc6aqMJW7MyZM3JKXT/EQw93njtvvlojn/oSjGSNHE4EJLfFfb+2DqtXybQsR4wjR4ZCoU82bAj77cxylIbfbSNcUqZ1QXKkYRgx9UX0Qav/XaQfIo4RVVRUpJ7Zrle+dZt2n23aNGr0GLVScmQcrYivL6K8lVSV9OFRb458Zey469cbcDoj7FuLlQgggEAjCZAjo+XI6lrj60vG3vNGSd13BNb9WB9LfvuFWP5H/9zVP4GilKHHHZu7qOfsHDlyZPyEifKkxke6dJs2fUZhYaH1BuGioiI55a1/ipuW9e/LlmBnM0cahnHlypX5CxaqR/+oSalPNmyorKyUGCSp0bpGDicCKZEjA4HA2rUfRs+RHq9PvqQnyjCI8pJwmfpL/1UPeTH1RXw5Mo4RpWo1fcZMNUI6dnpI3YqkhzM9R8bairj7IhQKFRYWTps+45EudY+UV9/c3bv307PnzD148KB8V7vqoNLS0u3bd7wydpxsnJGZ9Wj3nGnTZxw/fjz6tSJRupiXEEAAgSYoQI6MliObYIclqEpXr16VEDlz5pvy3dCGYZgu7ZKcl6CauK/YTzZsUBfYPdy5y8FDh/QErz/m3WX3XjTNEZWefeG+9xQtQgCBpiNAjiRH1o1G+eqR9g92PHHihGmA6l+0SI404UT/Vf8CFf0eZNkrP3+XTBmaZtpkm1RcaIIjKm37IhXHD3VGAIFUESBHkiPrxqqcMvZ4fdOmTf/Xv/6lzr4Fg8Gz58699vpf5ZbVZcuWp8rgbgr11C9IeLhzl92798hlqRUVFfq96vqzPJtCzRtYhyY4otK2LxrYleyOAAIIRBEgR5Ij64bHoUOH1YPHZW4s7EJubn/rt9pEGV68ZOfGefUMpnXr1uunvFOdrgmOqLTti1QfS9QfAQSasgA5khxZNz7t3Mf6wgsjLl682JRHc9OsW723Lbdu0279+k9M36jeNNtiv1ZNc0SlZ1/Y7zW2RAABBGIVIEeSI38aMyUlJR98sGbIkOfV3bJqnoz7TH8CincpEAgUFBRMnjL10e45coVA6zbthgx5/pMNGxL3JTfx1tex/ZrgiErbvnCsUykIAQQQ0ATIkeRIbTiwiAACCCCAAAII2BYgR5IjbQ8WNkQAAQQQQAABBDQBciQ5UhsOLCKAAAIIIIAAArYFyJHkSNuDhQ0RQAABBBBAAAFNgBxJjtSGA4sIIIAAAggggIBtAXIkOdL2YGFDBBBAAAEEEEBAEyBHkiO14cAiAggggAACCCBgW4AcSY60PVjYEAEEEEAAAQQQ0ATIkeRIbTiwiAACCCCAAAII2BYgR5IjbQ8WNkQAAQQQQAABBDQBciQ5UhsOLCKAAAIIIIAAArYFyJHkSNuDhQ0RQAABBBBAAAFNgBxJjtSGA4sIIIAAAggggIBtAXIkOdL2YGFDBBBAAAEEEEBAEyBHkiO14cAiAggggAACCCBgW4AcSY60PVjYEAEEEEAAAQQQ0ATIkeRIbTiwiAACCCCAAAII2BYgR5IjbQ8WNkQAAQQQQAABBDQBciQ5UhsOLCKAAAIIIIAAArYFyJHkSNuDhQ0RQAABBBBAAAFNgBxJjtSGA4sIIIAAAggggIBtAXIkOdL2YGFDBBBAAAEEEEBAEyBHkiO14cAiAggggAACCCBgW4AcSY60PVjYEAEEEEAAAQQQ0ATIkeRIbTiwiAACCCCAAAII2BYgR5IjbQ8WNkQAAQQQQAABBDQBciQ5UhsOLCKAAAIIIIAAArYFyJHkSNuDhQ0RQAABBBBAAAFNgBxJjtSGA4sIIIAAAggggIBtAXIkOdL2YGFDBBBAAAEEEEBAEyBHkiO14cAiAggggAACCCBgW4AcSY60PVjYEAEEEEAAAQQQ0ATIkeRIbTiwiAACCCCAAAII2BYgR5IjbQ8WNkQAAQQQQAABBDQBciQ5UhsOLCKAAAIIIIAAArYFyJHkSNuDhQ0RQAABBBBAAAFNgBxJjtSGA4sIIIAAAggggIBtAXIkOdL2YGFDBBBAAAEEEEBAEyBHkiO14cAiAggggAACCCBgW4AcSY60PVjYEAEEEEAAAQQQ0ATIkeRIbTiwiAACCCCAAAII2BYgR5IjbQ8WNkQAAQQQQAABBDQBciQ5UhsOLCKAAAIIIIAAArYFyJHkSNuDhQ0RQAABBBBAAAFNgBxJjtSGA4sIIIAAAggggIBtAXIkOdL2YGFDBBBAAAEEEEBAEyBHkiO14cAiAggggAACCCBgW4AcSY60PVjYEAEEEEAAAQQQ0ATIkeRIbTiwiAACCCCAAAII2BYgRzbpHHnt+vUnnuzt8fo8Xl9BQYHNbq2urp6/YOF9Wc3bP9jx73/PD4VCNnd0cLOjR4/16NkrIzNr3PgJ169fd7DkplyU3+8fM+Zl1V95eeuaclWpGwIIIIAAAg0XIEcmO0eePHWqQ8dOKmpE+m+Hjp1OnjplGEZ8OfL48e/btmuvCs/N7V9aWtrwgRJTCbW1tVOnTpPWfbZpU0y7x72xziVH79jpofETJu7ffyAYDMZdsmEYoVDo4sWL69atf2H4iI0bPw1bFDkyLAsrEUAAAQTcKkCOdGGO9Pv98+YvUPORW7ZsbZT5yCNHRpOfbwAAIABJREFUjqj5yFGjx1y9ejU575+wOVIC5StjxzVkZtRORrSzTXIoOAoCCCCAAAJJECBHujBHJmHcNM1DRM+RHq/v1dder66ujq/ydjKinW3iOzp7IYAAAggg0AQFyJHJzpGmQTBr9hw1YTZr9hzTS3Gf17aWkyZr9BypLicNBoNnz50bPfovCvn+FtmHD38Tn4adjGhnm/iOzl4IIIAAAgg0QQFyZGrkyIzMrAMHvv7uu+9GjHzxvqzmGZlZAwcN/vbbo/qQCnvlZdh4qvby+/2bNm8e9Ozg7JatPF7ffVnNBw4a/MUXX/j9fr3YmJYlFsvZZLnW01pOMBg8cuTI+AkTO3Z6SG3f/bGcFSveKSkpsW5sZ401R6q9SktL+z8zQB0iL29dIBCYPmOm+nXylKmBQEAvPBQKLV26TL26dOmyf/7zn2o5yn/llho9R27YsPHixYuTJr2qeHv07LV79x7rNQbV1dWbN28ZOGjwfVnNPV5f6zbtxk+YePToMX1LaVfvPn2vXb++f/+BIc8NjTQM9LawjAACCCCAQEIFyJGpkSPbP9hx4cJFKpFIoGnbrv3Ro8dkfMSUI4uLSwYOGixF6QuSiqRk+wv2c2QgEFi0eElGZpZ+aLU8ZszL8WVZyVvW29ulYqp1Bw8evL9Ftsfry8npcfnyZb2B165de6p3H4/Xd3+L7IMHDxYUFFhraFojYnqOXLR4ycOdu+hbZmRm5efv0o9VVFQkAde05aLFSyTgSrse7Z4zdeo0E5ppGOjls4wAAggggEBCBciRqZEj9ZChL0+fMVPShv0cqU/I6aWpZUlFcYw8iWtSbKT5yC+/3G3KQ7KL4zkyEAhMnjJVb11FRcXwESPVmq3btuktlYoNHzGyoqIi7hwpzdEXVJnqcKWlpZGivMfry8jM+mTDBrWl5Ei9KH1ZHwZ6W1hGAAEEEEAgoQLkyFTKkaNGjykuLq6urp43f4GKEb379A37WJ+8vHVqg7DntfVckp+/Sz0Qp6am5ty588vfenvLlq0NH3NyiEg5UhLnlCnTampqDMMIBoNXrlzZum3bvPkLnJ2PvHTpUs7jPRXI3n37VOvWrPmbWjNp0quqAoZh6Ilz0+bNuoM+1xgpauvbeLy+3n36nj59ura29uO8PBWa//xQ5zNnzqhiN23erCqQ3bLVx3l5fr8/FAqdPXt2yHND1fr+zwxQnSuYar39YaDXn2UEEEAAAQQcFyBHpkyOzM3tX1x8+8LBw4e/Uadln3iy97VwT/mOniPLysoGDnxWhZIhzw09fvx4A5+taB2XEn0i5chly5arCnTo2Gnb55/HFxxNx5WDynntYDB4+vRpSWY9ez1RXFys9jp37rw679yla7eioiK1sqioqEvXbh6vT99SvaRnRDs58uHOXU6cOGEqVjSqqqpeGTtOCSxduky/GlLmleWuIL1dMQ0DdXT+iwACCCCAQIIEyJEpkyNlIs0wDIka8eXIUCj0/urVKsSo/7Zu027a9BmHDh2Ws+QNHHASfSQ5mQo8evSYPCxd3eUzbNjw7dt3lJeXm7a0/6scVG+aLOtnitXUo9xtI6e2ZY7QlO0Mw4g1R3700cdSc6mYaMgaCYuycWVl5UujRqtqq06XjT1eX0zDQMpkAQEEEEAAgUQIkCNTJkfq34vYwBypUtT69Z+0btNOYpZa6NGz1w/3UDd8qEn0keRkLfPbb48+3TfXVIHslq0+/PCj+OKsHNRUpsqpa9d+aCpW7rYZP2Fi9a2f8RMmery+tu3aHz/+vanCseZIfc5SKiYa1jVyOOuBZGOZZ1Ub1zsMpEwWEEAAAQQQSIQAOTJNc6QaTDU1NQcPHpw2fYYeKLt2637u3PkGjjaJPpKcwhYYDAaLiopWrlzVo2cvCX8ZmVlbt/7bvS9h97WulINKUR6v75Eu3ebMmXvhwgXr9vI8oIc7dzl37rzEMhUrTdtb451pgyhzllIx0ZA11vnImzdvDhs2XDVB/fEgG5MjreasQQABBBBoRAFyZFrnSBl5gUBg2+efy3OFTI+nkc3sL0j0keQUfd9QKHT69Oneffqq/GR9rGP03dWrclBT3oqyr9xts2bN32RZTnPrO+pXNOrnrPVtImVNqZho6GHx/dWr9esj5Yy/bCy7m9olwTfS5Q163VhGAAEEEEDAcQFyZDrmyNLS0r/+9Y3t23eUlJSoU70qxj3aPUfFuCTkyHfeXbly5apz587LHTYVFRWvvvZ6knOk3G3TtVv3nr2eCHuHjbzr5B7z3Nz+YSc47edIwzDkTiP9fm09TMtDgsiR0gUsIIAAAgg0KQFypHtypKQcFcWs/5UrLPVcYt1MneSNY5jK9Ji1TLVGfzBk9NqanrljszJ6u6Sx0ffVH/SjKmm9w0ZKkAlLUwPlUsiYcuS5c+e7dutuKkp+zW7ZSpoQqV0Cznyk9BELCCCAAALJFCBHkiN9kl08Xl92y1abNm/WT7PaH44Sa/QC9WWbOXLKlGkVFRX2jytbRspbskHYBXnweKQ7bGSv4uKS3Nz+eovUcnw50jCMvfv26VemSsmt27TbvHmL9EKkdgk4OVL6iAUEEEAAgWQKkCPTMUeGQqGLFy+uXLnq6b656mudMzKzevTstWjR4rCna22OSIk1kodMC3qOLC8v3759x/ARIyVIdez00PgJE/fvPxD3wywj5a3o9Ze7bTxe36uvvV5dXR1l+ytXrixZsrT7Y7cvAGhgjjQMw1TgI126zV+wUB5yqWoSqV0CTo6M0mW8hAACCCCQOAFyZCPnyMR1LSXbFDhz5ow6v5zdstWhQ4dt7sVmCCCAAAIIIECOJEem77sgGAweOnS41xNPqWnFOXPmmh4wmb40tBwBBBBAAAEbAuRIcqSNYeK6TeR7I+XMu/59g65rLg1CAAEEEEAgIQLkSHJkQgZWEy/UlCN7PfHU6dOnm3idqR4CCCCAAAJNTYAcSY5samMyGfXZsGGjx+vLyMx6qnefdevWV1ZWJuOoHAMBBBBAAAF3CZAjyZHuGtG0BgEEEEAAAQSSJUCOJEcma6xxHAQQQAABBBBwlwA5khzprhFNaxBAAAEEEEAgWQLkSHJkssYax0EAAQQQQAABdwmQI8mR7hrRtAYBBBBAAAEEkiVAjiRHJmuscRwEEEAAAQQQcJcAOZIc6a4RTWsQQAABBBBAIFkC5EhyZLLGGsdBAAEEEEAAAXcJkCPJke4a0bQGAQQQQAABBJIlQI4kRyZrrHEcBBBAAAEEEHCXADmSHOmuEU1rEEAAAQQQQCBZAuRIcmSyxhrHQQABBBBAAAF3CZAjyZHuGtG0BgEEEEAAAQSSJUCOJEcma6xxHAQQQAABBBBwlwA5khzprhFNaxBAAAEEEEAgWQLkSHJkssYax0EAAQQQQAABdwmQI8mR7hrRtAYBBBBAAAEEkiVAjiRHJmuscRwEEEAAAQQQcJcAOZIc6a4RTWsQQAABBBBAIFkC5EhyZLLGGsdBAAEEEEAAAXcJkCPJke4a0bQGAQQQQAABBJIlQI4kRyZrrHEcBBBAAAEEEHCXADmSHOmuEU1rEEAAAQQQQCBZAuRIcmSyxhrHQQABBBBAAAF3CZAjyZHuGtG0BgEEEEAAAQSSJUCOJEcma6xxHAQQQAABBBBwlwA5khzprhFNaxBAAAEEEEAgWQLkSHJkssYax0EAAQQQQAABdwmQI8mR7hrRtAYBBBBAAAEEkiVAjiRHJmuscRwEEEAAAQQQcJcAOZIc6a4RTWsQQAABBBBAIFkC5EhyZLLGGsdBAAEEEEAAAXcJkCPJke4a0bQGAQQQQAABBJIlQI4kRyZrrHEcBBBAAAEEEHCXADmSHOmuEU1rEEAAAQQQQCBZAuRIcmSyxhrHQQABBBBAAAF3CZAjyZHuGtG0BgEEEEAAAQSSJUCOJEcma6xxHAQQQAABBBBwlwA5snFy5I4v/v7y2El9cgc92ecZF/x76ukB/EMAAQQQSBMBF3xsub4JfXIHvTLu1R1f/D3RqZUcmewceeNG2V/GTrrrngz+IYAAAggggIBrBH75X13+b87K/9Vvz/8csD85//5Xvz3/N2flL/+rSxTDl8dOunGjLHFpkhyZ7By58bMtUfqblxBAAAEEEEAg5QR+0TL3jpeNxvr3i5a5UcQ2fraFHGlLIKT9BH/8qf3xJxAI1Nz6qa6urrr14/f7KyuTnSMf69E7SmfzEgIIIIAAAgiknMD/GHSosULkHS8b/2PQoShij/XobStFxbUR85FJzZHBYPA/fS2idDYvIYAAAggggEDKCfy3F8sbMUf+txfLo4h5M/8QDAbjSon170SOTGqONAwjSk/zEgIIIIAAAgikokAjhkh16Oho9efBeLcgR5IjueMHAQQQQAABBBokQI4sLy+/efNmxa2fyspKv9+vriGsrq5WVxUGAoEfrzSs/fHaw6B2QWIo3ihb/3531L/JrS302kgVpdJN5PrI6H8x8CoCCCCAAAIIpJwAOZIcebO8vLysrOzGjRulpaU2k2scm6Xce4MKI4AAAggggEB0AXIkOZIc2aAp/ehvMF5FAAEEEEDAxQLkSHIkOZIciQACCCCAAALxCJAjyZHkyHjeOS7+45KmIYAAAgggYFOAHEmOJEeSIxFAAAEEEEAgHgFyJDmSHBnPO8fmH2pshgACCCCAgIsFoufIJ9caZVV1t+aWVRlPrq37+sRJO4zq2p/WPLDc+Paysf/CT2ueXGuUVNRtdsfLdbsU3bi9Y6QDRbeN47Zgm7vw/EieH0l8RAABBBBAAIEGCUSKd3e8bDywvC4FLiv46du3H1hunLx6OyN+fqIuQaptvr1ct41aoxY+P1G3ZllB3cooh7jj5Xq+5cRmKIxjM3IkObJB75zofwDxKgIIIIAAAukgECXkTdpRlxofWP5TENTXPLm2LkcO/+ynZCmvTtpRN0N5x8t1/1UTk1GOEh05joBocxdyZKrkSF+z3xH4XCVAh0b/fz1eRQABBFJIIErCk1wo2+hrwuZIFR/Vye6JO4wvz/yUQaUQ00J0K5uhMI7NyJGpkCN/54s+Png1hQXo3Htc9edBCg9FOgIBBBogYEp1+q/W89r6tY9yXlvOdH97+aez2OpV/Zy4XrK+HP3/fOIIiDZ3IUemQI5sRtRowHs7+lur0V+lcxu9C6gAAggg0HABPdJZl0131ej32RTdqDvlrbKmim7qKklVyKQddXfbqFtzrMXqa6I3wWYojGMzcmQK5Mjog4NXEUAAAQQQQKBxBfRIF8eyfueNvrudO2zU9tGbH0dAtLkLOZIcyVlFBBBAAAEEEGiQgB7+4li25kg1halmK+0USI6MEnzviPKa/lJI+wn++FP7408gEKi59VNdXV1168fv91dWpkuO7Naq746R3y7p+1H0oVbvq/0Hv7hw+ZrM5g/Ilv3H9Zi346XHn+sia2JamPje4EW7xizaNebFef1kxxfn9VMrJ743WFYmeaF993azt4xctGtMlNZNfG+wXm0rxZ/adl64fM2f2nZOcuU5HAIIIIBAMgXsRL2EbhO9sXpYcnaZ+ch0yZFdWvbZMeLIoj5row+1u+7J6Naqb95zu7MzO1m3fKxnvxWrNz7S/Sn9qr7csTlzd7yUM+R2VHpxXr+p64a1aPtHtbvpV2uZv/z1PT/7+a/GvztwxNy+8uqdzX7/s5//6oVZvSesGiQr7S/0H9dDr8Nd92T0H9cj1kja7O57f/HLu7I7tZi+8QVpnakOE1YN0qttorjrnoxmd987atzkBf+evE2F8CsCCCCAQKoLJDQj2ik8OqCz2VEvjRyZLjnyN7/1/vz/Nfvlr++JPtTuuiejS8s+Hw/e9YeMjqYtM5s/sGD5mlFj3/jNb736S7ljc2ZtGdG2Wxu1csTcvlPyht7fpmXYX/Ud9WVTIJN948uRuWNzZm8Z0a57OzlE7tic+Ipq92jbGbHkSJ1CHf3OZr+fOmvpXyZMk8qwgAACCCDgMgE7US+h20T31JOfs8vkyJTMkT9MFn4waPszHV7aMfLbPaNPfjBou8/T6q57Mp7p8NIHg7Y/0XaIWi9nsZf0/WjP6JN7Rp+c+NhcNdR8nlbvPPPZMx1e2vTC/j2jT256YX92ZqfszE7qV7XxntEnd4z8tlur29OE/Z59cf6yD7yZ2abB+uu7PL/45V3N7r5XrY+SI+Vs9ewtI9trIe+uezJs5kgpYdGuMf3H9TDVRH59bHDn6RtfaPdoW1kzcm5flSMff67LvB0vmU6aq/nL3i89pl7SZy6tObJF2z9OXTdMlbBo1xh9PtJEIUfv+ljvpe/mcXZbQFhAAAEEXCaQ0Ixop/Dons5mR700cmRK5sg/ZHTcNKxg07D9Gfe0anand/WAbRO71wXEfu1H1oXCW+s73Jezadh+lQLVueMFT60Z/+hsNdTu/c8/rh7w+Y4R3/65ec9md3rfrythjjqT2+G+nI8G77r3ty1/9vNf/fz/NZPZx2mzl48aN1k/ox121EbKkf3H9Zi9ZUR2pxY/+/mvhs/uM0U7920zR+ol9B7dNcplizlDOs+4lSPldPaIuX1HzHlaXfLYZ0y3n/38V9mdWszeMkJd3Zg7NmfRrjGzt4z840PZXfo/OHvLCLnc05ojJ7737IRVg372819ZT8eHBbnrnoyM+1rNX/ZBv2dHRtqA9QgggAACKS1gJ+oldJvoenryc3aZHJmqOfLjwbvqIuDd9zb7nW9c1zfVhY/92o/cMeKIWu/9ffb7A7b1b/9TdlnUZ+2/58htfVo//5vfevUSIp3XrjupveyDvgOHRx+pd92TMWJuX5mrUwvqNPfEVc8+/ZdH1bRl664PzNj4wuPPPSKl1Tsf2aLtH6esGzZ8dh9Vwq/v8oxfOXDk3FwpQV9o261NXflDHpm46tnZW0a0796uLkfO7fvi3NzJeUP/64EW6srFp//y6JS8oS3a/rHuusbtL3Ub2LHZ3fc2b/2HyXlD+419XBVoypGPP9dlxsbhDzxSN/sbKf7qNVHLzX7nmzpr6ZjxU60vsQYBBBBAwAUCCc2IdgqPbuhsdtRLI0emcI7s0rKPGjfjH529esDnPk+rfu1Hvj9gm/f3daeem/3O9x+/uvvXd3lkbFlzZL8fU+b4R2fLLThhr49s1ebhFe9vyB00QkqLtDBibt/JHz/vae5VM3YvzOo9JW9oxx7tp+QN1fPlPO3WnEiBbMSPJ6Pvuifj/jYtp+QN7fvKY3LcsNFTvarC31MjHx29KHfUor79xj0+YdWgvq88pgqUKdXcsTkq4+aOzZmc93zz1n+wuplypMx0qgNFqYPUUy2MHjdl2uxlppX8igACCCDgDoH//sJFO2kvQdv89xcuRmfUk5+zy+RIl+TIRX3+1ux3vn7tR64esO3e/7x9r7RpVDUkR2Zm1Z2ZtZkjrffZdHi83ZS8ob1Hd1Xh0nTG3H6OHPnjPd1105N5Q/VrE/XG3t86+/U1Q4ZO7/38tCe7P/vQ2LcHTlg1KHdsjjrnLveSj/zxliAJlHohatmpHDlt9rLR46ZYy2cNAggggIALBP5Pj9UJyoh2iv0/PVZHN3Q2O+qlkSNTPkfWPRhyxLd9276gro9seI5s4euwaVhB/wdf1Ael/TOzYa+PbN46e/icPtbba+QQYSf29PnIZr/z3Sqh7iR1XUtvXW3ZuutPj7GUomTycsbG4bmv5LTt1mZK3tApeUNzx+Z0H/zwvB0v9bt1g86tayVHPP1y92a/89nPkW27tZm9ZUS/cXVnvdVNP5GyrF4f+1cF6HuxjAACCCCQKgK/+c8//O9eH9nJfI5v8797ffyb/6w7nxbln578nF0mR6Zqjtw0rEDuqu7T+nl1/jrsfKT1LuyJj829dZ/NtrDntZvdfW+f1kNV4fr92n0HvLBi9YZ6bzoOmyPvb9Pyzma/Hz67j5zaVs93lGd9y/oX5/Uz3RC9aNcYdQO1XsK8HbcvZwz7tlEnwWdvGdGmW+tmd987YdWgeTteemxw59/81tt1QEe5X3v47D7KLWyO7D+uh9RKnkbe7O57n/7Lo2r9hFWDXpjV206O7N6z39J3P275QJhHcoatPysRQAABBFJR4Deelr/I7vPzVgOS8+8X2X1+47n9lL3oXM5mR700cmSq5siPB+/qcF+OOk0sF0H++i7Pf/zqbrn+T40qdRe2nFD+2c9/dWez35uunryz2e/1R0v++i6P2l6/X9uX+cf5yz6o9zmIdzb7vV4H/Vf1dHFVstomSt30CkvdpAS9YtY3j2qdPI3ol7++R7ZXz9FUhd/Z7Pdq37BugmCikPW//PU9dzb7vRRirYasqbvVfexkeTSSrGcBAQQQQACBJAjoyc/ZZXJkCudIuc8mCUNQ3YDySPenVqze+FjPn77AMDmHTumj/GXi9AXhnruZ0o2i8ggggAACKSTgbHbUSyNHkiOjXVFhepP85rfePs8M5Vv+TCxRfv1T284Llq25/4/tTJPEUXbhJQQQQAABBJwV0JOfs8vkyJTMkc3uvvc/7vytPCHc2dEWvbSwp4Cj75LOr9b11K/u5ox2Oo8B2o4AAgg0uoCz2VEvjRyZAjmy2T0ZzaLeh9XoA5QKxC1Az8ZNx44IIIAAAjYF9OTn7DI5MgVypBolBA6b75ZU2YwOTZWeop4IIIBAqgs4mx310siRKZMjU30QU38EEEAAAQQQaBQBPfk5u0yOJEfGcJ9No4x+DooAAggggAACDRFwNjvqpZEjyZHkSAQQQAABBBBws4Ce/JxdJkeSI938zmnIX2/siwACCCCAgDsEnM2OemnkSHIkORIBBBBAAAEE3CygJz9nl8mR5Eg3v3Pc8XckrUAAAQQQQKAhAs5mR700ciQ5khyJAAIIIIAAAm4W0JOfs8vkSHKkm985DfnrjX0RQAABBBBwh4Cz2VEvjRxJjiRHIoAAAggggICbBfTk5+wyOZIc6eZ3jjv+jqQVCCCAAAIINETA2eyol0aOJEeSIxFAAAEEEEDAzQJ68nN2mRyZ7Bz54J+7NeRPCvZFAAEEEEAAAQTsCzz4527OZke9NHJksnPkuIl/td/3bIkAAggggAACCDREYNJrU/Tk5+wyOTLZObKy0t/hIaYk3Xz6oCHvdvZFAAEEEEDAQYEuj/by+6uczY56aeTIZOdIwzCqqqpef2O6L+uPDg4UikIAAQQQQAABBETAl/XH19+YXlWVwBBpGAY5shFypAT5g4e+2fePAv4hgAACCCCAAAIOChw89I2EjYQukCMbM0cmtGspHAEEEEAAAQQQSKgAOZIcmdABRuEIIIAAAggg4FoBciQ50rWDm4YhgAACCCCAQEIFyJHkyIQOMApHAAEEEEAAAdcKkCPJka4d3DQMAQQQQAABBBIqQI4kRyZ0gFE4AggggAACCLhWgBxJjnTt4KZhCCCAAAIIIJBQAXIkOTKhA4zCEUAAAQQQQMC1AuRIcqRrBzcNQwABBBBAAIGECpAjyZEJHWAUjgACCCCAAAKuFSBHkiNdO7hpGAIIIIAAAggkVIAcSY5M6ACjcAQQQAABBBBwrQA5khzp2sFNwxBAAAEEEEAgoQLkSHJkQgcYhSOAAAIIIICAawXIkeRI1w5uGoYAAggggAACCRUgR5IjEzrAKBwBBBBAAAEEXCtAjiRHunZw0zAEEEAAAQQQSKgAOZIcmdABRuEIIIAAAggg4FoBciQ50rWDm4YhgAACCCCAQEIFyJHkyIQOMApHAAEEEEAAAdcKkCPJka4d3DQMAQQQQAABBBIqQI4kRyZ0gFE4AggggAACCLhWgBxJjnTt4KZhCCCAAAIIIJBQAXIkOTKhA4zCEUAAAQQQQMC1AuRIcqRrBzcNQwABBBBAAIGECpAjyZEJHWAUjgACCCCAAAKuFSBHkiNdO7hpGAIIIIAAAggkVIAcSY5M6ACjcAQQQAABBBBwrQA5khzp2sFNwxBAAAEEEEAgoQLkSHJkQgcYhSOAAAIIIICAawXIkeRI1w5uGoYAAggggAACCRUgR5IjEzrAKBwBBBBAAAEEXCtAjiRHunZw0zAEEEAAAQQQSKgAOZIcmdABRuEIIIAAAggg4FoBciQ50rWDm4YhgAACCCCAQEIFyJHkyIQOMApHAAEEEEAAAdcKkCPJka4d3DQMAQQQQAABBBIqQI4kRyZ0gFE4AggggAACCLhWgBxJjnTt4KZhCCCAAAIIIJBQAXIkOTKhA4zCEUAAAQQQQMC1AuRIcqRrBzcNQwABBBBAAIGECpAjyZEJHWAUjgACCCCAAAKuFSBHkiNdO7hpGAIIIIAAAggkVIAcSY5M6ACjcAQQQAABBBBwrQA5khzp2sFNwxBAAAEEEEAgoQLkSHJkQgcYhSOAAAIIIICAawXIkeRI1w5uGoYAAggggAACCRUgR5IjEzrAKBwBBBBAAAEEXCtAjiRHunZw0zAEEEAAAQQQSKgAOZIcmdABRuEIIIAAAggg4FoBciQ50rWDm4YhgAACCCCAQEIFyJHkyIQOMApHAAEEEEAAAdcKkCPJka4d3DQMAQQQQAABBBIqQI4kRyZ0gFE4AggggAACCLhWgBxJjnTt4KZhCCCAAAIIIJBQAXIkOTKhA4zCEUAAAQQQQMC1AuRIcqRrBzcNQwABBBBAAIGECpAjyZEJHWAUjgACCCCAAAKuFSBHkiNdO7hpGAIIIIAAAggkVIAc2aRz5LXr1594srfH6/N4fQUFBTaHQnV19fwFC+/Lat7+wY5//3t+KBSyuaODmx09eqxHz14ZmVnjxk+4fv26gyVTFAIIIIAAAgg0EQFyZLJz5MlTpzp07KSiYaT/dujY6eSpU4ZhxJcjjx//vm279qrw3Nz+paWlSR5ttbW1U6dOk9Z9tmlTkisQCoXOnj07bfqMR7p0U9Vo3abdpFdfKywsbJRUneTmczgEEEAAAQSSI0COdGEwtmJbAAAgAElEQVSO9Pv98+YvUPORW7ZsbZTkdOTIETUfOWr0mKtXryZnNKuj+P3+OXPmZmRmSZCVBQnoyawPx0IAAQQQQMCtAuRIF+ZItw5WO+0KBAILFiyU4GhaIEfaMWQbBBBAAAEEbAqQI5OdI00dM2v2HJV1Zs2eY3op7vPa1nLSZ01+/i6ZiRzy3NDvvvsuEAgYhnHz5s2DBw9OmTLt1KnTVo28vHWqF/Ly1llf1dcUFBRE6S99S5YRQAABBBBwvQA5MjVyZEZm1oEDX3/33XcjRr54X1bzjMysgYMGf/vtUX2Ahr3yMmw8VXv5/f5NmzcPenZwdstWHq/vvqzmAwcN/uKLL/x+v15sTMsSi2UiMMoUYDAYPHLkyPgJEzt2ekht3/2xnBUr3ikpKYnpoLJxRUXF8BEjVVHDhg2/ceOGvBR9gRwZ3YdXEUAAAQQQCCtAjkyNHNn+wY4LFy5SgU8iWtt27Y8ePSb9GlOOLC4uGThosBSlL9Q7JydHtC7Yz5GBQGDR4iUyd6hXYMyYl+PLsseOHfvTA208Xl9GZtaXX+62Vi/SGnJkJBnWI4AAAgggEEWAHJkaOVKPWfry9Bkz1XlbwzDs58hAIDB9xky9HH05OTnyyy93hw2RHq8v7hy5dds21ZCevZ6I6eYecmSU/4/gJQQQQAABBCIJkCNTKUeOGj2muLi4urp63vwFKjD17tM37GN9JBiFPa+tP04oP39XMBg0DKOmpubcufPL33p7y5atkYaL/fVyiEjntWXmcsqUaTU1NYZhBIPBK1eubN22bd78BfHNR0qrXxo1urKy0n5tZcd6MzTXR9pXZUsEEEAAAdcLkCNTJkfm5vYvLr594eDhw9/c3yLb4/U98WTva+Ge8i3BKGyOLCsrGzjwWZVEhzw39Pjx4ypKOjjc682Ry5YtVxXo0LHTts8/jy84mios2bTeGc2wc7eqPvJflYClIbI+7IL9p8Sb6syvCCCAAAIIpK4AOTJlcuTefftknEkMii9HhkKh91ev1vNQ6zbtpk2fcejQYTlLLseKb0HiV6T5yKNHj8nD0tVdPsOGDd++fUd5eXl8RzQMQ7IpOTJuQ3ZEAAEEEEDAvgA5MmVypD7j1cAcaRhGIBBYv/6T1m3a6WnS4/X16Nnrh3uo7Q+gSFvWmyMNw/j226NP9801VSC7ZasPP/wovjgrs7D1Xh8pgKaj678yHxmpc1mPAAIIIICAEiBHpmmOVN1fU1Nz8ODBadNn6IGya7fu586db+A7xE6OVNdEFhUVrVy5qkfPXpLhMjKztm7dFkcFCgoK1L0797fIPnjwoP0SJIByfaR9NLZEAAEEEECAHJnWOVLeAIFAYNvnn8tzhfLzd8lL8S3YzJFSeCgUOn36dO8+fVWanDxlahxTkpcvX87J6aFKGDV6TEVFhZQffYEcGd2HVxFAAAEEEAgrQI5MxxxZWlr617++sX37jpKSEhXXVIx7tHuOCmFJyJHvvLty5cpV586dlztsKioqXn3t9YbkyFAotHTpMlWCx+vTv8+mrKzsq6++GjduPN9nE/b/CFiJAAIIIIBAHALkSPfkSLlbWYKUaUGusJTJQtMG6teHO3eJ77x2vRcd6re/RK/tps2b4xjNhmEUF5fk5vYP2y6P1xfpph/mI+PTZi8EEEAAgTQXIEeSI3166spu2WrT5s2hUCiON4ZTOXLKlGn2T0lb61lUVNT/mQF6o2SZHGnlYg0CCCCAAAJxC5Aj0zFHhkKhixcvrly56um+ufdlNVdfJNijZ69FixZfuHAh7sEUU44sLy/fvn3H8BEj5Rafjp0eGj9h4v79Bxr+MMvq6updu3ZJ4RmZWap158+fjy8ix23CjggggAACCLhYgBzZyDnSxWOLpiGAAAIIIICAuwXIkeRId49wWocAAggggAACiRIgR5IjEzW2KBeB/9/e3QZFdR4MH3c60w+9+6XtV2cwVXQReRIQjPHdqKDVGEN8AbRGBGwkaImuGAlB0dYmGLxv8SWlrbZpxRgf02Abm4a8kEns03l6T9InaRNbO2naSdN0YmoEVlmWddnnXi65vPbs7uGwnLOwF/8dJz37du05v72wf8/ZsyCAAAIIIKC3AB1JR+o9w9k6BBBAAAEEEHBKgI6kI52aW4yLAAIIIIAAAnoL0JF0pN4znK1DAAEEEEAAAacE6Eg60qm5xbgIIIAAAgggoLcAHUlH6j3D2ToEEEAAAQQQcEqAjqQjnZpbjIsAAggggAACegvQkXSk3jOcrUMAAQQQQAABpwToSDrSqbnFuAgggAACCCCgtwAdSUfqPcPZOgQQQAABBBBwSoCOpCOdmluMiwACCCCAAAJ6C9CRdKTeM5ytQwABBBBAAAGnBOhIOtKpucW4CCCAAAIIIKC3AB1JR+o9w9k6BBBAAAEEEHBKgI6kI52aW4yLAAIIIIAAAnoL0JF0pN4znK1DAAEEEEAAAacE6Eg60qm5xbgIIIAAAgggoLcAHUlH6j3D2ToEEEAAAQQQcEqAjqQjnZpbjIsAAggggAACegvQkXSk3jOcrUMAAQQQQAABpwToSDrSqbnFuAgggAACCCCgtwAdSUfqPcPZOgQQQAABBBBwSoCOpCOdmluMiwACCCCAAAJ6C9CRdKTeM5ytQwABBBBAAAGnBOhIOtKpucW4CCCAAAIIIKC3AB1JR+o9w9k6BBBAAAEEEHBKgI6kI52aW4yLAAIIIIAAAnoL0JF0pN4znK1DAAEEEEAAAacE6Eg60qm5xbgIIIAAAgggoLcAHUlH6j3D2ToEEEAAAQQQcEqAjqQjnZpbjIsAAggggAACegvQkXSk3jOcrUMAAQQQQAABpwToSDrSqbnFuAgggAACCCCgtwAdSUfqPcPZOgQQQAABBBBwSoCOpCOdmluMiwACCCCAAAJ6C9CRdKTeM5ytQwABBBBAAAGnBOhIOtKpucW4CCCAAAIIIKC3AB1JR+o9w9k6BBBAAAEEEHBKgI6kI52aW4yLAAIIIIAAAnoL0JF0pN4znK1DAAEEEEAAAacE6Eg60qm5xbgIIIAAAgggoLcAHTk8Hdn2+hs1tfuKS8vXF39Lgz8PbHyQPwgggAACo0RAg//b0n4TikvLH9v9nbbX33C6YunIRHdkR0fno7X70jJy+IMAAggggAACCDgqUFO7r6Oj07mapCMT3ZHnX2x1dMYwOAIIIIAAAggkXmD8XflfKzj55bLf/seDbyfmz5fLfvu1gpPj78o339jzL7bSkZYEepVLoP9yo//i9/t7+i4+n6+77+L1eru6Et2Ra4o2mL/f3IsAAggggAACySUwbm7pmJrgcP0ZN7fUhGtN0QZLFRXXg9gfmdCODAQCd2TPMnmzuQsBBBBAAAEEkk7gS+XvDldEjqkJfqn8XROxrGmzA4FAXJU48JPoyIR2ZDAYNHmnuQsBBBBAAAEEklHgC1WeYezIL1R5zNEG7sF4H0FH0pGc8YMAAggggAACQxIYxogUL01HmpTwGJP71LuUj0f29n88MtD/8cgbI+TzkebvNPcigAACCCCAQNIJ0JEej+fatWvX+y5dXV1er1eci+Lz+cTZKX6/XyaZjDS13NSis3eZjhzSP5KS7qeRFUYAAQQQQCC5BOhIOvKax+Pp7Ozs6Ohob2+3N4TV0ZLrB4O1RQABBBBAAIEBBehIOpKOZK8nAggggAACCMQjQEfSkXRkPD85A/4TjQcggAACCCCgvQAdSUfSkXQkAggggAACCMQjQEfSkXRkPD852v8Tkw1EAAEEEEBgQAHzjlx/NtjZHTpXorM7uP5s6Nfe7GsL+m7cumXBieD7nwbf/uetW9afDX52PfSwMTWhp3zccfOJsV7IfA3V8zTsXeb7I/n+SPIRAQQQQAABBIYkECvvxtQEF5wIVeDxt2791sQFJ4J/vXKzEV/9IFSQ4jHvfxp6jLhFLLz6QeiW42+FbjR5iTE1A/yWE3vbUR2NjqQjh/STY/4PIO5FAAEEEEBgNAiYRN6+tlA1LjhxKwTVW9afDXXk9hdvlaW8d19baA/lmJrQf8WOSZNXMUdWy8/eZToyWToy2zWF4EMgfgHmj/lfstyLAAIIDEXApPBkF8rHqLdE7UiRj+Jg99624G/+fqtB5SCGBfOVt7cd1dHoyGToyCnZ5vODexGwKsBcyoi/xa0i8xIIIDD6BAxVp16NPK6tfvZRHteWR7rf//TWUWxxr3pMXB1ZXTb/C0otP3uX6cgk6EgX/98/+v5KMv8bIe57mUtx0/FEBBBAwERATbrIZcNZNep5Nh93hA55i9YUhSc+JSkG2dcWOttGnJoTOax6i8m6pWXk2NuO6mh0ZBJ0pPnk4F4EEEAAAQQQGF4BNeniWFbPvFGfbuUMG/F4881Xy8/eZTqSjuQwHwIIIIAAAggMSUCNvziWIztS7MIUeyutDEhHmvTxGJP71Lt6lUug/3Kj/+L3+3v6Lj6fr7vv4vV6u7pGV0dOm7Hg+yfObKqoMp9wI/PeWbnzDpx7eO+pisWr8xpbd1QdLYtjPfeeqmi6UN10oVp9euHW/KNtO5suVDe27li8Oi+OYW15StR1U0fetLvowLmHZ+XOs4VCHZllBBBAAIGhCFhJPUcfY77yaizZu8z+SN06clNF1fdPnJk2Y0HUKTXtrruPHX+2tNwd9V6nbzRftwFffeaiufUtlXXN5Xmrcg+1ut1HStIycjbtLlLjz3A1cszxEzPGpqTu+dlm8XTxgEmTs1K+7srftKTh/La8VbmRzzK/pXBr/sFfbVcDtHBr/vfOfntW7jzzJxrujbpu6mNKawvqWypnLpoblUJ9JMsIIIAAAokUcLQRrQxuvrH2tqM6Gh2pW0eWlruPHX922l13R51Sw9uR5us2u6hq7U8uTc0tVNd8am7h2p9cml0U2oHqmpJd11zuPrxx5sI5T7RUljy2Ji0jp7S24FCrW8af4ao6lLocGqcvQ9UbC7asOBhXRxZsWdHY6i7ccp8crWDLiv1ntsxcNFfeYn0h6rqJp8uOjEph/SV4JAIIIICAvQJWUs/Rx5hvjlp+9i7TkcnakXfnrvjp6fNnf/n62V++LnZArllbduq5l8Ut4r8/PX3+7twVaRk56oPP/vJ1uT9S3N5w+MeG+ffo3oZTz728Zm3YgeNNFVVy8Ef3NoinPLq3Qd4oDpffnbvi+M9a5HMbDv/40b0NJusmxllQ/uTGlqtzy/a70qfKlZldVPXAmX8tqTk9aXKWuHH8xIwJrttdU7JvS02fmJZp3pGbdheJQ9hH23YWbs2Xw6Zl5ERttciOlMe7my5U7z1VoY6gLueuXNRwflvBlhC1+FNWWyh2HIpD8GI1xCFpsQ/1wLmHN+xcIw6mG0aOXLeqo2VihKYL1WLYtIycSArx0rHeU7luLCCAAAII2C7gaCNaGdx8i+xtR3U0OjJZO7Kh8cQjtY+PTUkdm5J6W2q6a0q2ODj7QOnWYz86nZ6RMzYlddz4NFf61GkzFjx14ox4cHpGzrEfnZYdOX/h8qefeeHAoeOG+bdrT/2p51pXFYYOHIs/myqqTj3Xujx/rXjFCa7bQz1UUfX06RfunLlgbErqA6VbTz3XumZt2fyFy3/00+flcw8cOr5rT32sdRODL9tz9oEz/8q+r0KkobhRlOXs0u+K15JrYlgw7ICUVwu35je27sjftGRsSmpx9Ur12LfFjhQJWFy9cmxK6pxlsxpb3epHKtXVyFuVe7CvI+Xh7NLagrrm8tDR53MPb28sHpuSmjkjq76lcu+ph0T7is9izls+J3/TktC+TCVzDR3Zd6TePWfZrLEpqRt23S87Ul0BdTnWe6o+hmUEEEAAAXsFrKSeo48x3xy1/OxdpiOTtSMPHDr+1PEon4OMPHZc9lDVsePPZk2bk5aRYziu7UqfOm582viJGYb5N8F1e8rXXXIvoCxReUtoqP48FXsQJ6ZlHvivH1XXHYjakWL8yHVLy8hZeejCulN/T5+9XB08alkaVvLmmLUFcl+dWBCHuXccKd3eWCzGvGvBrCdaKst23zpibmg1MZRhf2TVkdInWirvWjArdEg9ferGR1fVt1RG/cjjzIVz6lsqy2oLdxwp7dv3eZ/oyLLQZzfdC+8PfVbVNSV7Vfmyg+dDH6MsrS048trOlZuXutKnzlg4O7RutdHXbVbuvPpzD298dJVAlse1o1KIG2O9pyZP4S4EEEAAgSEKONqIVgY3X39721EdjY5M1o7MzJ517Piz4piyev51ZKuptxg60nzayXvnL7r36WdeKNm8Xd4ik1S9Uex6HFRHTs0tXNf893XNf89aGPqwo/jzv2YsLvjhHx4486+ZBQOfDxTaAfnSzd11Yo+d6Mi65nJDX5bWFsiXsNKR7iMldc3l8ou7TRpOnPVSWluwq6lsS/26HUdKdxwpcR/eWFpb8ERL5cyFoYJPy8iRndp3+7dnLJwt+lIeoxcPU9dNjizuMlkHuWksIIAAAggkXsBK6jn6GPNNVsvP3mU6Mlk7UnxGcGxK6vL8taeea5UpqVajmFXqLfF15LTp8yPP8hZDVe85IF4ltHvy+LO79tQPqiPFzrMlNc88cOZf4mQamVazS7+7seXqgvInzX825IHsmxvbf9pNXXP5tkMbxFF48V/1oLnaanJ82XniFveREnUH5I6+q1FPnRFnvVQ2bNjVVLbo/oV1zeW7flDmPlJSWlvQ2OrO6/8iobLawtDVVbnmOaiuGx0p3x0WEEAAgZEs8MVtnziaieaDf3HbJ+Y49rajOhodmawdKWfMvIX3PP3MC/Ijj6sKS54+fX61coqMekvD4RNxnGfjmpL9yO4nnj79gjhrR7y04cayh6qefuaFOXcvFZ/PKyvfkZaRI87C2bWnXjxFXRO5/mkZORNct0dW48S0zOz7Kh44869le86qDzYsx+rIkprVkafXyOeqrSZvNHTk6op7j7btLNtdlJaR0/dZSffGmtVy96R8llioay4/eH67OJd8/5mt+//3VveRkkUrFx5qdVcdKU3LyBFHqLc3FrvSp1rvSFGoe5tDn6oUJ/0M+PlIcZ6NyXc/GdacqwgggAACQxf4atFp89Rz9N6vFp023wS1/OxdpiOTsiMN518/Uvu43Nk2aXLWI7WPq+drq7fs2l1f/18/lNEZ65yMyPNsJrhul8Oe/eXr4nxt9cZTz7Xet2q9K32qK31q8bcqxQo82Xi8/r9+KDtSXRN5LrmY+qIaDd/7M2lyVvrs5UX93/sT9YckVkdOTMssrl4pD22L82zUs6fFXeLUGfWEaPlt5JMmZ93/4FJxSnXThertjcUSOXJN6prLj7btXF1xr2tKtvvwxqYL1SWPrXGlT51/79zGVrd4rbrmcnHOUNSOjLVuC+6bL0ZobN1RXL1ywK8TEjuPTz3Xqv5bInKFuQUBBBBAwEaBSXfM/sq6nzsai7EG/8q65yfdEfqglMkfe9tRHY2OTMqOFIeD5UFbwxnNE1y3i7vE+dpih5+4ZYLr9vETM2QPxTonw3CejZiactixKanyFeWN6nk5E9MyxcuNn5ghvp5GTm75eLlu8q5Jk7NumzBZ/d4fcYLLbRMmq6fgyMeLhYlpmepQ6lW5GvLUdYOb3BC5VgY3cZq5pDO8tHp1/MQMKSBGE8jqK8rzmSamZYpT7NUR1EeqryhvHzc+bWJa5tdTp8TaJypGc03JPnDoR8eOn865c746PssIIIAAAk4LTMqcO25Occr8BxPzZ9yc4kmZlr6oWC0/e5fpyKTsSKd/Ehg/SQXEd3w+dfzZ26fOMM/NJN1AVhsBBBBAIA4Be9tRHY2OpCPN9oTHMVl5yjAKiF2wkTs7h3GVeGkEEEAAgWEXUMvP3mU6ko6kIxFAAAEEEEBAZwF721EdjY5Mgo50ZeS4TD8/O+z/0GEFkkWAiZQs7xTriQACCNgooJafvct0ZBJ0pJhJFICNP1GjcCjmzyh809lkBBBAQAjY247qaHRk0nQkPwwIIIAAAggggEAcAmr52btMR9KROn8iJI4fNp6CAAIIIICAZgL2tqM6Gh1JR9KRCCCAAAIIIKCzgFp+9i7TkXSkzj85mv2Dks1BAAEEEEAgDgF721EdjY6kI+lIBBBAAAEEENBZQC0/e5fpSDpS55+cOP7RxlMQQAABBBDQTMDedlRHoyPpSDoSAQQQQAABBHQWUMvP3mU6ko7U+SdHs39QsjkIIIAAAgjEIWBvO6qj0ZF0JB2JAAIIIIAAAjoLqOVn7zIdSUfq/JMTxz/aeAoCCCCAAAKaCdjbjupodCQdSUcigAACCCCAgM4CavnZu0xHJrojl9yzUrN/5bA5CCCAAAIIIDBiBZbcs9LedlRHoyMT3ZG7935vxE41VgwBBBBAAAEENBPY9916tfzsXaYjE92RXV3ebyxnl6TOhw80+wuIzUEAAQQQSF6B/FXrvN5ue9tRHY2OTHRHBoPB7u7u/Y83ZE+fl7zzkjVHAAEEEEAAgZEskD193v7HG7q7HYzIYDBIRw5DR8qQf+fdP/7uv9/iDwIIIIAAAgggYKPAO+/+UcaGowt05HB2pKNvLYMjgAACCCCAAAKOCtCRdKSjE4zBEUAAAQQQQEBbATqSjtR2crNhCCCAAAIIIOCoAB1JRzo6wRgcAQQQQAABBLQVoCPpSG0nNxuGAAIIIIAAAo4K0JF0pKMTjMERQAABBBBAQFsBOpKO1HZys2EIIIAAAggg4KgAHUlHOjrBGBwBBBBAAAEEtBWgI+lIbSc3G4YAAggggAACjgrQkXSkoxOMwRFAAAEEEEBAWwE6ko7UdnKzYQgggAACCCDgqAAdSUc6OsEYHAEEEEAAAQS0FaAj6UhtJzcbhgACCCCAAAKOCtCRdKSjE4zBEUAAAQQQQEBbATqSjtR2crNhCCCAAAIIIOCoAB1JRzo6wRgcAQQQQAABBLQVoCPpSG0nNxuGAAIIIIAAAo4K0JF0pKMTjMERQAABBBBAQFsBOpKO1HZys2EIIIAAAggg4KgAHUlHOjrBGBwBBBBAAAEEtBWgI+lIbSc3G4YAAggggAACjgrQkXSkoxOMwRFAAAEEEEBAWwE6ko7UdnKzYQgggAACCCDgqAAdSUc6OsEYHAEEEEAAAQS0FaAj6UhtJzcbhgACCCCAAAKOCtCRdKSjE4zBEUAAAQQQQEBbATqSjtR2crNhCCCAAAIIIOCoAB1JRzo6wRgcAQQQQAABBLQVoCPpSG0nNxuGAAIIIIAAAo4K0JF0pKMTjMERQAABBBBAQFsBOpKO1HZys2EIIIAAAggg4KgAHUlHOjrBGBwBBBBAAAEEtBWgI+lIbSc3G4YAAggggAACjgrQkXSkoxOMwRFAAAEEEEBAWwE6ko7UdnKzYQgggAACCCDgqAAdSUc6OsEYHAEEEEAAAQS0FaAj6UhtJzcbhgACCCCAAAKOCtCRdKSjE4zBEUAAAQQQQEBbATqSjtR2crNhCCCAAAIIIOCoAB1JRzo6wRgcAQQQQAABBLQVoCPpSG0nNxuGAAIIIIAAAo4K0JF0pKMTjMERQAABBBBAQFsBOpKO1HZys2EIIIAAAggg4KgAHUlHOjrBGBwBBBBAAAEEtBWgI+lIbSc3G4YAAggggAACjgrQkXSkoxOMwRFAAAEEEEBAWwE6ko7UdnKzYQgggAACCCDgqAAdSUc6OsEYHAEEEEAAAQS0FaAj6UhtJzcbhgACCCCAAAKOCtCRdKSjE4zBEUAAAQQQQEBbATqSjtR2crNhCCCAAAIIIOCoAB1JRzo6wRgcAQQQQAABBLQVoCPpSG0nNxuGAAIIIIAAAo4K0JF0pKMTjMERQAABBBBAQFsBOpKO1HZys2EIIIAAAggg4KgAHUlHOjrBGBwBBBBAAAEEtBWgI+lIbSc3G4YAAggggAACjgrQkXSkoxOMwRFAAAEEEEBAWwE6ko7UdnKzYQgggAACCCDgqAAdOaI78vOrV7+5fkNmVnZmVvZbb71lcSr4fL5jT33/zukzFi9Z+sYbb/b29lp8oo0Pu3jxT0Vr1+VMm757T93Vq1dtHNmuoVpazgnY6uoar9dr17B//fDDbyxdJkaW/z3UeDjq+IcaD8vHiIVvLF321w8/jPpgbkQAAQQQQGCkCdCRie7IqJ0RKybi68hLl/6Sm7dYjFlauqm9vT3B0+7GjRsHDjwpN+rFX/86wStg5eXoSCtKPAYBBBBAAAETATpSw470er1Hjz0l9ke2tr48LPsj33vvPbE/8pFd1VeuXDGZgsN1Fx05XPK8LgIIIICANgJ0pIYdqc3sdHRDHOpIdZ3lS8Q6ri0fLHc8c1xbmrCAAAIIIDDyBejIRHekYU7IT8hFTQ2ZF4P6fKThJbgaVUBGnr2fj1RfS75E1DdXfaR8o+lIlYVlBBBAAIERLkBHJkdH5kyb/vvf/78///nP7h1Vd06fkTNt+ubyivffv6hOr6ifvDQpGK/X++uXXip/qGLO3PmZWdl3Tp+xubzi9ddfH8pJJzKL5YcjTcIoEAi89957e+r2Ll22XDx+9ZqCp5/+6WeffaZu12CXLQ4rI++x2t3t7e3NzafuXZGfmZW9cFHej3/8k0iE3t7eixf/VLXzEcG1cFHezkd2Xbz4J5OPDciXMHkXxNbRkYN9l3k8AggggMBIEKAjk6MjFy9Z+v3vN4mCkYmWm7f44sU/yWk0qI68fPmzzeUVcih1oaXlnBxzsAvWO9Lv9zf94Ic506arLy2Wh7KD0PqwMvKqH615ZFe1YTUOHHjS7/fLzY81bM606U0/+KH6SPmUYDAoX4KOVFlYRgABBBDQRoCOTI6ONFSOvNpw8D9lxFjvSL/f33DwP+UghoXEdORvfvN/okZkZlb2UDrS+rAy8gybL67m5i2+dOkv4ue8t7f33LlfxFrbnGnTX375lah/I8iXoCOj+nAjAggggECyC3S/76oAAB1iSURBVNCRydSRj+yqvnz5ss/nO3rsKZE7G4pLon6tj3nByKOomVnZb755IRAIBIPBnp6ejz76x4kf/6S19eWhT2v5ErGOa8s9l/X1T/b09ASDwUAg8O9///vlV145euypyMPKFlfJ+rCSKDMre87c+a+8+qrf77906S/i6HZmVvYLL5wXL3r58uW1676ZmZWdM236M6dPX79+PRgMXr58We7FjBW+8iXoSItvHw9DAAEEEEguAToyaTqytHTT5cs3Pzj4hz/8ceasOZlZ2d9cv+HzaN/ybV4wnZ2dmzc/JEp0y9bKS5cuiZS0ce4O2JHHj58QK/CNpcteefXVuMPRsM7Wh5VE/7Oj8dy5X4iPOfb09Ozb9x2xYnK/7JtvXhC37Knb6/P55Ct+8MEHi5cszczKLigo+vTTT+XtckG+BB0pTVhAAAEEENBJgI5Mmo78v7/7nZx58hB2fB3Z29v7zOnToo3Efxcuynuy4eC77/5BHiWXrxXfwoAdefHin+SXpYuzfB5+ePtrr7V5PJ74XlE8y/qwMvJ2PrKrq6tLvqjcoyk7UrapKqYux9rnKl+CjpS8LCCAAAII6CRARyZNR6q/F3GIHRkMBv1+/y9+8cuFi/LUHsrMyi5au+5/zqEe+hQfsCODweD771/cWFJqWIE5c+c/99zPh5KzFoeVkWc4Kh3ZkfIWw6rKq/n3r/z4448j0eRL0JGRONyCAAIIIKCBAB05SjtSzN2enp533nnnyYaDalDev3L1Rx/9Y4iT20pHis9EfvzxxydPNhetXSezzOTMFYtrFQgEBhxWRp71jjx+/ITFFRAPky9BRw7KjQcjgAACCCSLAB05qjtSTlO/3//Kq6/K7xV6880L8q74Fix2pBy8t7f3b3/724biElGTT9QfGMouSSvDysgbsCN//vPnxVptLq+IelaTfDnDgnwJOtIgw1UEEEAAAT0E6MjR2JHt7e3f+97jr73W9tlnn4lcExm3anWBCKYEdORPf3by5Mnmjz76hzzD5vr169/57v4hdqT1YWXkDdiRly79RX6Uc9s294cf/k2geb3eS5f+cqjx8Pnzv4r614F8CToyqg83IoAAAggkuwAdqU9HDvgxPvkJS7mzUESb4b/3rsiP77i2/NSmYUB5VS0287X99UsvxfejZX1YGXnqWgWDQTmCPM/G7/cfOPCk3IrIBflI9bvHIx8mbrH4LgzxezTj0+NZCCCAAAIIDEqAjqQjs9XimTN3/q9fesnkd/2ZTC+7OrK+/knxHY0mrxXrLlmB6kaJZcOw1jsyGAxevXr1sdrdkWOKW+jIWG8HtyOAAAII6C1AR47Gjuzt7f3kk09OnmzeWFJ65/QZ4hu2i9aua2r6wT//+c+4Z/ygOtLj8bz2Wtt29w55is/SZcv31O19++3fD+XLLK0PO6iOFKcEvf3273c+skuscM606UVr1zUePmL4siQ5bKzoZH9k3BOMJyKAAAIIjDQBOnKYO3KkTQjWBwEEEEAAAQQQsChAR9KRFqcKD0MAAQQQQAABBMIE6Eg6MmxCcAUBBBBAAAEEELAoQEfSkRanCg9DAAEEEEAAAQTCBOhIOjJsQnAFAQQQQAABBBCwKEBH0pEWpwoPQwABBBBAAAEEwgToSDoybEJwBQEEEEAAAQQQsChAR9KRFqcKD0MAAQQQQAABBMIE6Eg6MmxCcAUBBBBAAAEEELAoQEfSkRanCg9DAAEEEEAAAQTCBOhIOjJsQnAFAQQQQAABBBCwKEBH0pEWpwoPQwABBBBAAAEEwgToSDoybEJwBQEEEEAAAQQQsChAR9KRFqcKD0MAAQQQQAABBMIE6Eg6MmxCcAUBBBBAAAEEELAoQEfSkRanCg9DAAEEEEAAAQTCBOhIOjJsQnAFAQQQQAABBBCwKEBH0pEWpwoPQwABBBBAAAEEwgToSDoybEJwBQEEEEAAAQQQsChAR9KRFqcKD0MAAQQQQAABBMIE6Eg6MmxCcAUBBBBAAAEEELAoQEfSkRanCg9DAAEEEEAAAQTCBOhIOjJsQnAFAQQQQAABBBCwKEBH0pEWpwoPQwABBBBAAAEEwgToSDoybEJwBQEEEEAAAQQQsChAR9KRFqcKD0MAAQQQQAABBMIE6Eg6MmxCcAUBBBBAAAEEELAoQEfSkRanCg9DAAEEEEAAAQTCBOhIOjJsQnAFAQQQQAABBBCwKEBH0pEWpwoPQwABBBBAAAEEwgToSDoybEJwBQEEEEAAAQQQsChAR9KRFqcKD0MAAQQQQAABBMIE6Eg6MmxCcAUBBBBAAAEEELAoQEfSkRanCg9DAAEEEEAAAQTCBOhIOjJsQnAFAQQQQAABBBCwKEBH0pEWpwoPQwABBBBAAAEEwgToSDoybEJwBQEEEEAAAQQQsChAR9KRFqcKD0MAAQQQQAABBMIE6Eg6MmxCcAUBBBBAAAEEELAoQEfSkRanCg9DAAEEEEAAAQTCBOhIOjJsQnAFAQQQQAABBBCwKEBH0pEWpwoPQwABBBBAAAEEwgToSDoybEJwBQEEEEAAAQQQsChARw5PR7a9/kZN7b7i0vL1xd/S4M8DGx/kDwIIIIDAKBHQ4P+2tN+E4tLyx3Z/p+31NyzmYNwPoyMT3ZEdHZ2P1u5Ly8jhDwIIIIAAAggg4KhATe2+jo7OuDNxwCfSkYnuyPMvtjo6YxgcAQQQQAABBBIvMP6u/K8VnPxy2W//48G3E/Pny2W//VrByfF35Ztv7PkXWwfMwbgfQEcmuiPXFG0wf7+5FwEEEEAAAQSSS2Dc3NIxNcHh+jNubqkJ15qiDXFn4oBPpCMT2pGBQOCO7FkmbzZ3IYAAAggggEDSCXyp/N3hisgxNcEvlb9rIpY1bXYgEBiwCON7AB2Z0I4MBoMm7zR3IYAAAggggEAyCnyhyjOMHfmFKo85WnyNaOVZdCQdyRk/CCCAAAIIIDAkgWGMSPHSdKRJ9Y4xuU+9q1e5BPovN/ovfr+/p+/i8/m6+y5er7eri44c0k+O+cTlXgQQQAABBEaDAB3p8XiuXbt2ve/S1dXl9XpFa/l8PlFffr+/v8hu9DdaQAm3XrXo7F2mI0k9BBBAAAEEEBi5AnQkHXnN4/F0dnZ2dHS0t7fbG8LqaKPhn2VsIwIIIIAAAqNKgI6kI+nIkfvvvFH1lxEbiwACCCCQdAJ0JB1JR9KRCCCAAAIIIBCPAB1JR9KR8fzkJN0/GVlhBBBAAAEEbBegI+lIOpKORAABBBBAAIF4BMw7cv3ZYGd36FyJzu7g+rOhX3uzry3ou3HrlgUngu9/Gnz7n7duWX82+Nn10MPG1ISe8nHHzSfGeiHzMlbP07B3me+P5Ht/4vmBMZ+v3IsAAggggMCoEoiVd2NqggtOhCrw+Fu3fmvighPBv1652YivfhAqSPGY9z8NPUbcIhZe/SB0y/G3QjeavMSYmgF+y4m97aiORkfSkXQkAggggAACCAxJwCTy9rWFqnHBiVshqN6y/myoI7e/eKss5b372kJ7KMfUhP4rdkyavIp5tavlZ+8yHZksHZntmjKkKW4+w7jXFgHeI1sYGQQBBBBIOgGTwpNdKB+j3hK1I0U+ioPde9uCv/n7rQaVgxgWzMXsbUd1NDoyGTpySrb5/ODekSXA+5XBv3kQQACB0SVgqDr1auRxbfWzj/K4tjzS/f6nt45ii3vVY+LqyOqy+f8PquVn7zIdmQQd6aJLkqpLeL/M/zrjXgQQQEA/ATXpIpcNZ9Wo59l83BE65C1aUxSe+JSkGGRfW+hsG3FqTuSw6i3mpPa2ozoaHZkEHWk+ObgXAQQQQAABBIZXQE26OJbVM2/Up1s5w0Y83nzz1fKzd5mOpCNH16EH85807kUAAQQQQCAOATX+4liO7EixC1PsrbQyoPk629uO6mh0pP4duXh13sFfbS/cmm8+yczv3bS76GjbzsKt+VVHyxpbdyxenWf++Mh7C7fmH23b2XSh2vD0vacqmi5UN12orjpaFvmsxNwSa93kqxduzT/4q+1iq4dOIYdlAQEEEEBADwErqefoY8wZ1fKzd5mO1L8j81blHjy/rWDLCvNJZn5vaW3BkbadBVtWuI+UHGp1563KnZU778C5h2X8Ga5GjjZpclbK1135m5Y0nN+WtypXPmD8xIyxKal7frbZfaRE3pjghVjrJlejYMuKg/2rHUkhH8YCAggggMDoFHC0Ea0Mbs5ubzuqo9GRdKSl49prKlY0nN+Wu3JRyWNrnmipnLlwzsxFc+tbKmX8Ga7GmtBqkKmPqWsul0OptydyOda6pWXkqHdFUiRyJXktBBBAAIERKGAl9Rx9jLmJWn72LtORydqRi1fnNbbuiDwirN5+4NzDs3Lnif2RlQ0bxGFlcWNaRk7kI01m4aTJWbdNmOxKnzoxLfO21HTXlGxDOKpX1ZHlDksxuBpk6ssZOlIdQa6w+ni5vPdUhfoSYrfopt1FaRk58oi5OCKflpEj7xV3ydtjrdum3UVCuO9wfGgvbFpGTiSFXBkWEEAAAQRGp4CjjWhlcHN2e9tRHY2OTMqOnJU7r/7cw9sbi8empM5ZNqux1S3KSeSXuH1sSqoIvrxVuY2t7sZW97zlc8SDy3YXqSNkzsiqb6nce+oh81louFcNx7SMHHlVHVldN/F0Kx2pjjDgurkPb6xrLpfrJlajtLag6mhZfUtl5oyssSmp2xuLxYcyxb1NF6rdhzeGDqaf3KxutWHdCrfmN7buyN+0ZGxKauThePmKLCCAAAIIIGAl9Rx9jPlboJafvct0ZFJ2ZOHW+/af2TL97plpGTmu9KnbG4v3NocqsOpI6RMtleJ2OaXyVuU2nN+2cvNSV/pUV/rUupObdxwpKdtd1NjqXnj/gtAIU7JXlS87eP7meSTyieYLssnkHrtQnx0pibVuYjRDq8mXUPdHDmrdSh5bIzpS7JjMW5138Py2zd9Z29jq3lizWnyV4/S7Zz7RUlm2u1Cs856fbZ7guj0tI6ekZnV9S+Ws3HlR123vqYe2NxZPmpxlOK4t15kFBBBAAAEEhICjjWhlcPM3wt52VEejI5OyI8tqC9V6a7pQLVqqrrm8rrnc8D3YhvNsRLGV1haIjzmKmRcr70zmpWiybYc2jE1JHZuSmjkj64nnv+0+UhJr3cxfSO3IQa3bmooV+89sva/knrrm8l1NZXmrcutbKtdtz284v21Nxc1Ti8SqltYWiIWSmtViZeQx+qjrpq5SHD4mdNyFAAIIIKCZgJXUc/Qx5p5q+dm7TEcmZUeGSuv5b4uDtiLjxk/MSMvIMRzkFbMqVkc2trrz+r++p6y2MHRVOY3afEaqB7LFI0WiuY+UxFo38bBYQaZGW2ltgfV1y125qL6lsrJhg/vwxl1NZWW7C/ef2bLyW8saW91ltYU3BUKfJXXLjiytLYi6dYZ1U1fJcFfUp3MjAggggMCoFfjitk8czUTzwb+47RNzeXvbUR2NjkzKjly0cmFjq7vqaKlh3qyuuPdo207xWUl5V9SOXLRy4aFWd9WR0Ajy84iu9KnyWQMuyHAUj5RXY62beFisIFOjbVDrJnZA7vpB2eqKe92HN+5tfqiuuXzS5Ky6k5vr+04zkof771owS6ykxY50H94ojnqLT50OtrMHBOQBCCCAAALaCHy16LR56jl671eLTptLquVn7zIdmZQd6UqfOv/euY2tbnl0W7TjpMlZ9z+4VJyX3XShWj1fW35/pCg2wwh1zeXiI4PmE1G9V4ajuFFeNYzcdKFarFvV0TK5tvLbyNXzssW9VUfLDCOYr9vMhXPqWyrrWypnLJwtMtp9eGNaRs74iRl1zeVizMZW9933zZPnmEd2ZNR1m373zPqWyqYL1Ufbdm58dNUTLZWD2l+rWrGMAAIIIKC3wKQ7Zn9l3c8djcVYg39l3fOT7phtzmtvO6qj0ZFJ2ZHi9Jpx49PEQe2xKakT0zLFHBJfqS1uF+dru9Kn3jZhsjhfRASWSEZX+lQ5gjgsbj4LDfe6pmTflpou61O9qo4s122C63a5tmNTUseNTxPn/ch1EPcOdt3E64otFdsuV0l8w7l8LXFG0W2p6dJKblH0devbwLEpqSlfd938JOVg9tfKwVlAAAEEEBglApMy546bU5wy/8HE/Bk3p3hS5lwrtmr52btMRyZrR1qZNzwGAQQQQAABBBCwtx3V0ehIOtLS77PhhxABBBBAAAEEklRALT97l+lIOpKORAABBBBAAAGdBextR3U0OpKO1PknJ0n/4chqI4AAAgggYKOAWn72LtORSdCRrowcVwa1lzQCvFk2/t3HUAgggAACQxewtx3V0ejIJOhIMYGok6H/IDk9Au+R08KMjwACCCAQh4BafvYu05FJ05FxzBueggACCCCAAAII2NuO6mh0JB2ZNMeL+YsAAQQQQAABBOIQUMvP3mU6ko6kIxFAAAEEEEBAZwF721EdjY6kI3X+yYnjH208BQEEEEAAAc0E1PKzd5mOpCPpSAQQQAABBBDQWcDedlRHoyPpSJ1/cjT7ByWbgwACCCCAQBwCavnZu0xH0pF0JAIIIIAAAgjoLGBvO6qj0ZF0pM4/OXH8o42nIIAAAgggoJmAWn72LtORdCQdiQACCCCAAAI6C9jbjupodCQdqfNPjmb/oGRzEEAAAQQQiENALT97l+nIRHfkkntWxjEDeAoCCCCAAAIIIBCHwJJ7VtrbjupodGSiO3L33u/FMQl4CgIIIIAAAgggEIfAvu/Wq+Vn7zIdmeiO7OryfmM5uyQ5mI4AAggggAACjgvkr1rn9Xbb247qaHRkojsyGAx2d3fvf7whe/q8OP5VwVMQQAABBBBAAIEBBbKnz9v/eEN3t4MRGQwG6chh6EgZ8u+8+8ff/fdb/EEAAQQQQAABBGwUeOfdP8rYcHSBjhzOjnT0rWVwBBBAAAEEEEDAUQE6ko50dIIxOAIIIIAAAghoK0BH0pHaTm42DAEEEEAAAQQcFaAj6UhHJxiDI4AAAggggIC2AnQkHant5GbDEEAAAQQQQMBRATqSjnR0gjE4AggggAACCGgrQEfSkdpObjYMAQQQQAABBBwVoCPpSEcnGIMjgAACCCCAgLYCdCQdqe3kZsMQQAABBBBAwFEBOpKOdHSCMTgCCCCAAAIIaCtAR9KR2k5uNgwBBBBAAAEEHBWgI+lIRycYgyOAAAIIIICAtgJ0JB2p7eRmwxBAAAEEEEDAUQE6ko50dIIxOAIIIIAAAghoK0BH0pHaTm42DAEEEEAAAQQcFaAj6UhHJxiDI4AAAggggIC2AnQkHant5GbDEEAAAQQQQMBRATqSjnR0gjE4AggggAACCGgrQEd2dXWFUvLatWsej6ezs7Ojo6O9vV3bN5wNQwABBBBAAAEEbBKI7MhQV3V1eb3e7r6Lz+fr6bv4/f4b/ZdA/6VXudi0RlGGGRPltmg3KSvT27+Ggf51vuH3+8WW+Pou3d3dXq9XbC0dGY2T2xBAAAEEEEAAATMB844UxaVPR4qUpCPNZgT3IYAAAggggAAC1gQsdqS/7yJ37cmdfeoeQGsvGM+jbNsfabEjOzo64llNnoMAAggggAACCIwmgY6+S2dnp8fjuXbt2vXr19Xj2nJ/pLYdKQ5tG45r05Gj6UeAbUUAAQQQQACBOAWidqS379Ld3Z3EHdnbe/MjknInqmjhnp4e9bh2ZEeKU23i5ORpCCCAAAIIIIDAqBHo6Ojo7Luo+yMtdqR6ULu3t9c5s3iOa8fXkfKUbec2hpERQAABBBBAAAE9BERHevou8rg2HcnnI/WY3mwFAggggAACCDgoQEeGvvpHfD5S/QpJB8kZGgEEEEAAAQQQ0EJAduS1vos4zyZZ90cGg0H1WLs8q1x8RFJ+PlJ8RFJ8Pab6+Ug6UospzUYggAACCCCAQIIEYnVk5JeQy+8hl3mmNpujq2v185FD6UjDKduObg+DI4AAAggggAACGgioHXm97xLrl9nQkRq83WwCAggggAACCCBgmwAdGf1XI9oGzEAIIIAAAggggICmAoaOVL+EXHx/pPyliEm/P/LGDau/Yruzs1PTt5vNQgABBBBAAAEEbBOI/PJIeVxbfgl5T0+PjMgbN24k6+cjY3Vk1FNtbANmIAQQQAABBBBAQFMB+RsRTb48UquOjPwV23SkpnObzUIAAQQQQAABZwWsdOTw/nLtYDBoz/naYn+koSO7u7tlR6qnbDv6+3mcfUsZHQEEEEAAAQQQcF4gEAjIjox6srbP5xM7I5P7uHYgEBjwKyTlt5GL3+3j9/ud9+cVEEAAAQQQQACBZBXw+/2G34goPxw54Ek2gUBgpH9/pPwV2wN2pNwlKb6N3ePxeL3eZH1XWW8EEEAAAQQQQMB5Aa/X6/F4ov4mmwE7Uo1Ipw8Cx3lce8CO9Pl84ri27Eh5aNvj8Ti9Vc6/v7wCAggggAACCCDgiEBvb6+6MzLWb0Q0HNeOerK208U1iI40/5U25h+RNBza9vl8jsAzKAIIIIAAAgggkOQCPp9P7cjIb44cIR+OHNx5NtY70vBbtuUuSXlo2+PxJPlbzOojgAACCCCAAAL2C6g7IyO/8SfWQe1h+fJIezoy1kckzQ9tezyeQCBgPz8jIoAAAggggAACySkQCATEnkjx4Uj1TG2v1ysiUuyMjHVQO5En2QypIyM/Imnx0Pa1a9c8Ho84m51zt5NznrPWCCCAAAIIIGCzgDhHW37dj9wZaThT2/pBbac/HDnojhz6oW1xto1MyY6Oju7u7gRsp81vNcMhgAACCCCAAAI2CfT29nZ3d6u/CFFEpOEMm5F2UNvxjhSHtuUXksuzbURHir2S4teQd3V1+Xw+jnTbNCEZBgEEEEAAAQRGukAgEPD5fF1dXZ2dnSKH5Ok15jsjDQe1h+vDkUPtSPND21HPtomVkh0dHe39F/nJABHmArej79L/EP4XAQQQQAABBBAY6QKiXkQjyt2NonPkqovHiMPZhu+MFEe0xScjB7szMjEHewf3vT+G49pWOlLdJSlP3DYc3ZalKEyv9l0+779c6b/8O/zyGRcEEEAAAQQQQGCECYTXyr/7K+ZKf9d8LjpHNI+MSMPHIqMe0Y56hk2snZFJ1pGGs7bF79oWuyTVlBTfgSTOP1K/BsiQku3t7bFq8sqVK4Z3KOrVETapWB0EEEAAAQQQ0EQgangYbpT5eOVK9IJsb2+XEWk4nC0iMurpNfKItvy12vLrxw1nao/QjrRll6Q4uq3ulRSflYxVk1evXpUV//nnn6vvjVw2vH9cRQABBBBAAAEEEiAgU0RdULtF7Bq7evVq5LHsyMPZakSqR7RH4M7IeD4fab0jY+2SFEe3B0xJ9ROT8g0wBKV8k9R3jmUEEEAAAQQQQCCRAjJI1AW1XgwFKT8xabIn0iQi5c7I4T2obXNHykPb6hdJ9vRdfH2X7r6Lt+9icoBbfBBVfjRV0suD3eobo75hLCOAAAIIIIAAAsMloPaJWFYbRoaNPI14sBEpD2rf6L8ElEtv+CWYkMugz7MRaxW+qr1yK/q3K/S//r5LZEeKrwGKuldS/T4gQ02quyfluyLeJP6LAAIIIIAAAgiMBAGZKHJB5qPcB2k4lq1+VaThBG2TX2AjiksGWG/4RdRaAv5rc0dG7pKMenQ7akrKj0tG1qT83KT6Zsh3iAUEEEAAAQQQQGCECKitIpblDshYBRn1M5FRIzLqEe1hOcMm2HeJsyNNPiUZX0oaPi6pnsotT8FR34bIN4lbEEAAAQQQQACBkSCgFotYFoew5ddDis6Rvz5bfNhPfPBPfAgwKSIyzs9HigIN34EauiZ3rsY6um34GiC5V9JwjFvdMWkISvE2RL49UW8ZCTOJdUAAAQQQQAABnQSiJkfkjTIc1Q9BiqqRB7INuyHliTWGiIz8WKTJ6TWJ+bofkYJD6kiLuyQNH5SUKSm/VDKyJuW+yciglIe8DW+PejXyveQWBBBAAAEEEEDAXgG1PaIuy2qUC2IHpMxH+WnIyIKU3/JjHpHDeERbpOT/B3ygEEBDvqBqAAAAAElFTkSuQmCC;imageBorder=default;" vertex="1" parent="1">
          <mxGeometry x="-10" y="100" width="458.21" height="430" as="geometry" />
        </mxCell>
        <mxCell id="cnLCLMYv-gfv657BTeQf-2" value="" style="shape=image;verticalLabelPosition=bottom;labelBackgroundColor=default;verticalAlign=top;aspect=fixed;imageAspect=0;image=data:image/png,iVBORw0KGgoAAAANSUhEUgAAA2wAAAM3CAIAAADOR0QyAAAgAElEQVR4Aezd+XdUVb73ce/zy73/wV3r9lr93KeHi2379FNlJeQiNzQtk0ALBsTIoCABGRUEFNLKqK3MQpgCBEFlkEZMEJRJkA5Cw+1AAzKIYR6bhCEmJJWkqDqPcXu/7j5VqdQpTlXlVL1ZLNepU+fss/dr77I+7DPUAwZ/EEAAAQQQQAABBBCwKPCAxe3ZHAEEEEAAAQQQQAABgxDJIEAAAQQQQAABBBCwLPBALX8QQAABBBBAAAEEELAo8EAdfxBAAAEEEEAAAQQQsChAiLQIxuYIIIAAAggggAACdXUP1PMHAQQQQAABBBBAAAGLAg/4+IMAAggggAACCCCAgEWBB+7xBwEEEEAAAQQQQAABiwIP+PmDAAIIIIAAAggggIBFAUKkRTA2RwABBBBAAAEEEPD7HwjwBwEEEEAAAQQQQAABiwKESItgbI4AAggggAACCCAQCPCzh5Z/5IcdEEAAAQQQQAABBAiRjAEEEEAAAQQQQAABywKESMtk7IAAAggggAACCCBAiGQMIIAAAggggAACCFgWIERaJmMHBBBAAAEEEEAAAUIkYwABBBBAAAEEEEDAsgAh0jIZOyCAAAIIIIAAAggQIhkDCCCAAAIIIIAAApYFCJGWydgBAQQQQAABBBBAgBDJGEAAAQQQQAABBBCwLECItEyW3DvcvnOn37P9XW6Py+2ZNz/vPhs7b36eKqrfs/1v37lzn6WxOwIIIIAAAgg0HwFCZNN94fV6jxw5Mj9vwUujRid9EiJENj0g2AIBBBBAAAEEDCPxIVJPLWrWKsx/S0pK4txrXq83N/e1WEyn3bp1q0/ffqrkzl26nj13Tpp25cqVrB491VudHu9y5swZeSvWC3p3MBMZa23KRwABBBBAwLkChMgm+i52IfLsuXOdu3SVxLx12zapSnHxXlnvcnviGZ0JkdILLCCAAAIIIIBAGAFCZBichrfiFiKnTXujvr7eMAyfzzd7zlxCZBMdw9sIIIAAAgggkFCBxIfI4OY3q7sx4hYis7N737hxwzCM27dvP9d/ACEyeGCwBgEEEEAAAQSaj4DjQ+TVq1fz8hZ06fqEy+1JS8/o3afvqlXvhbn9pby8fM3adc8PzGmZ0Up2yc9fWlpa6vf7VcfowVEPc8HL93PVYElJiSrwlVfHP9o6My09Q522Pnbsq0dbZ3bo2GnylKlqg8LCIhkxPp/vm29KC1a8OzBnUGabtmqDdu07jhz50tZt27xer2ypFvTT06r8mzdvzpo1O7NN27T0jEGDh+zf/xdpeEOEbeTubJ/Pt3jxEhF4feKk6upq/Vh+v//06dOzZs95MuuHqzm7dH2iXfuOapeQd2eXl5evWvVe7z5909IzXG5Pu/Ydx4wdt3fv3rq6Oim5sLBIlZCb+1pw62SzhYsWq80KClYYhiGXCqiLTWtqaoqKNj3Xf0BaekZaesbQYSOOHz8eCARkdxYQQAABBBBAwKqAg0Okz+fbsOEjlQUl3KiFdu07Hjh40GTh9/uLijaF3N7l9ui3tsQ5RK5cuWro0OEut0cFoIKCFS63Z8zYcatXr1HN0UOkRE9Tk9XLnJzBZWXlesP1UFhSUnL27NkePXvp+34X4IqKNkmi0reXiBwIBIqKNqmo53J7Ro8ec+vWLf0od+7ceX3iJL1Y07IpRPr9/k8//UxCsGnjwS8MuXLliir/wMGD6l1TCfrRDcOQ2evNm7eYQuS+ffuHDhthOkTLjFZbtnxqKoSXCCCAAAIIIBC5gFNDpCnWmCKCCoWlpaU6xIGDBx9tnRm8pVqTwBBZWFikguPo0WNu3LgxevQYl9uzddu2zZu3qLpFHiJdbs8bb/5Rn8nTQ+F3k3xyp7nu0K171qVLl5WVvr2EyAMHD0rgC86pt27dGj5ipF5g8LIeAZvsO5fbI0c5derU7x5r73J75HS/3qdqWQ/9arZVZiKDayJr+vTtV1ZWFlwaaxBAAAEEEEAgEgGnhkg9JYx8cdT58+f9fr/X6/3ss60SdyZPmSpxqr6+ftq0N1SA6NY969Chwz6fzzAMv99/8+bN4uK902fMvHDhQjCZHlD0JBS8pdU1O3buVPU5cPBgSUlJWnpGVo+efzlwIKtHT5VoZdJRzVCq8o8cPTpp8pTi4r3l5eWqCT6f78jRo337PadKy+rRU6bxTKen33p7ujqZe/Xq1bq6OjkF7HJ71ASeaXsVIs+cOdOte5bQmZ43FAgEVry7Ur3rcnueH5hz9OgxdX68srLyjTf/qN7S6fS+69yla3HxXp/PFwgELl68OPLFUVLU2nXrAoGAPO1IT/km6rt376rkLdvoh1AXLax4d6XX662qqvrDa6/LIYKnq00l8xIBBBBAAAEEGhNwZIgMBALLlxeoKNCjZy+ZRTMMQ39LIoXpJuvsZ/pcv369MRHT+tiFSLnar6Sk5MaNG9nZvV1uz6vjJ6hz2dXV1RIiZUbQVDf9pTwV6NHWmceOfSVv6TOLLrdH59KTlhxC337e/LyysvKcnMGKOrNN2+DUVVZWJk+7DIaVs8x6iFTTri6357tLP/ft2y9VNQzj+vXr2c/0UYcbOnR4ZWVlRUVF/wED1Ro1yxgcGaXOffr2U+fZ9aalpWesX/8nFbgNwxBVl9ujT/Hq1WAZAQQQQAABBJoUcGSIrKysVBcRutye6TNmSj5QrdVTgoodwc/NeaJb940fF5aX/8PlgyGx4hMi9YlSl9uzZs1aPe5IwgtZwzCtNs0smmKTZC/9Fw71ldPeeFOudAyZIA3DOHz4b3KtpKq2XsngECkRUF1beffuXX37QCCQl7dARUb1b4Da2lqpQ3HxXsMwTp/+pkPHTmob9XDNCxcu/P6J7nqBeogcPyFXvwdIf4sQqeOzjAACCCCAgCUBR4ZIOcWpkkSY/+opQT8tK7t0656Vn7/08uXLcmeJiS92IXLNmrWqGirpysTk7x5rf+rUKT1EmoKy3Aed/UyfkPcJSXQ2hcjBLwypqKgwNdD0Ug+RouRyez4uLAxJJNVOS884fPhvptKCQ6T+Oz1z574TXKYUKE9Zl0JUb+obqIdrSi6UZ23KGj0fq7rpb+nDw1RzXiKAAAIIIIBAeAFHhkg9B+hBJ3jZlBJOnDj5/MCc4M1cbs8rr4w33XGs4GIXIiUbqcwnd5Co07iGYahn/bjcHv3pNmVlZa+8Mj5kE2RlYyEykhlNPUS2a99RbkWaNGlyyCfsSKTTLx6QMSdtlNPZet+FrI8UKCFS1ixctPi7i1zVk49UxdQFoDL3vHDRYnXoMEfR3zIND6k2CwgggAACCCDQpECSh8jga/j8fn9paWl+/lK5WUSyV8icFOsQKRN4co5ebqORuCMhsqKiIvhpNVJ/WbArRM6aPUeeDWl6EpAMLEl4IX/jOzhEytWfLrcn/EykyMhTfubOfefSpcvqV8UXLV6icuSOnTvlelAJhULHTKT0FAsIIIAAAgjYK+DIEKmfEg05mxWJUSAQuH79+jvz5sslfXIeWd89RiEyEAjMnfuO6fmU+nH1hx2+On5CTU2NYRhffrlPajvyxVHnzp2X60FlNk4m8FRp+sxiJFam7fXYGvKySLnH3OX2mCJ7dXX1+Am5KtrKTKR+o8zo0WNM10T6fL7pM2aqXeQ2c5mjzc19bfv2HS63J6tHz6NHj6nf9Zk+Y+ZHH21Uu0h6JkSaxhIvEUAAAQQQsF3AkSFSvw2l/4CB9/O0Pzk9akohAq3f2BHmUYWyfYQLkk1DngVWhUgSkgQm036mvBsIBD7bulU1wd4QaRiGfi1pt+5Zpkf8SMJzuT3LlxfINY6mX7iRJugxMfju7EuXLsuz0GX+VS6Bfa7/AHWTTW7ua3fv3lVx87n+A1RU1adChY6ZyAgHJJshgAACCCBgVcCRIdIwjOLivTIn9/zAnAMHD6or9gKBQGVl5bFjX+XnL12+vEA4vF7vO+/M++CD1WfOnKmsrFRZx+fzHTp0WM5rm5KZ7Ks/T3Hu3HeqqqrkragXoguR8vhx9fM21dXVgUDg8uXLb/7xLdGwPUSang0ujwFXbZez8C63J7NN2127dvv9/qqqqnnz8/QqSYg0zafKcyL9fv/Zs2cHvzBEReG09Ax1L7ZhGDJ5mZae8Z+tWss95uos9qOtM9WPK+oRnxAZ9chkRwQQQAABBCIUcGqI9Hq9kyZNlrm3kAv62VsJbSG3VCtNv/UigvpJZNPu+iFk+0gWpD5hZiLl8kFJYPrTbUw10V/KWV3T3dmR1NZ0Olu1xefzzZw5Sw5hunh0x46del6UzdSTINVLaYJhGHV1dfIQcn1jfXnx4iVypl6s1AaS9WWGUq2XG5L0KwGYiYxkNLINAggggAACUQg4NUQahlFVVfX29Bl68jAt65nJFERMW7rcntcnTrpz505IQdOZWX1f/RAh921spcyuhQmRkud+/0R39Ws6Pp9v+fKC4MSWlp4xecpUuefG9hBpGIb+1PHvKqD/3HZjPqNHj9m6bZvi0kNk+L5LS8/Iy1tguhNcbtBxuT0SFk19+vrESbW1tQqcmcjGBh7rEUAAAQQQsEvAwSFS/T5NaWnprNlznszqqcJKZpu2/fs/Pz9vwZEjR+rr63WmioqKXbt2vz5xkmyclp7xVK/sWbPnnD59Wv1Sn769vuz3+w8cPDhm7Dh15lRyZNQhUgKiKV3pB5Vt9KDp9/v37//LoMFDVJTs0vWJWbPnlJaW1tTUyO9ixyJEqudWyk9Kmm6y0WuVlp4xaPCQPXv+XFdXJ08pCm6m3+8/fvz45ClTu3R9Qnk+mdVTtUUurBSNjRs/FvO8vAWywfr1f5L1el8QIoWOBQQQQAABBGIk0BxDZIyaSrEIIIAAAggggAACdgkQIu2SpBwEEEAAAQQQQCCFBAiRKdTZNBUBBBBAAAEEELBLgBBplyTlIIAAAggggAACKSRAiEyhzqapCCCAAAIIIICAXQKESLskKQcBBBBAAAEEEEghAUJkCnU2TUUAAQQQQAABBOwSIETaJUk5CCCAAAIIIIBACgkQIlOos2kqAggggAACCCBglwAh0i5JykEAAQQQQAABBFJIgBCZQp1NUxFAAAEEEEAAAbsECJF2SVIOAggggAACCCCQQgKEyBTqbJqKAAIIIIAAAgjYJUCItEuSchBAAAEEEEAAgRQSIESmUGfTVAQQQAABBBBAwC4BQqRdkpSDAAIIIIAAAgikkAAhMoU6m6YigAACCCCAAAJ2CRAi7ZKkHAQQQAABBBBAIIUECJEp1Nk0FQEEEEAAAQQQsEuAEGmXJOUggAACCCCAAAIpJECITKHOpqkIIIAAAggggIBdAoRIuyQpBwEEEEAAAQQQSCEBQmQKdTZNRQABBBBAAAEE7BIgRNolSTkIIIAAAggggEAKCRAiU6izaSoCCCCAAAIIIGCXACHSLknKQQABBBBAAAEEUkiAEJlCnU1TEUAAAQQQQAABuwQIkXZJUg4CCCCAAAIIIJBCAoTIFOpsmooAAggggAACCNglQIi0S5JyEEAAAQQQQACBFBIgRKZQZ9NUBBBAAAEEEEDALgFCpF2SlIMAAggggAACCKSQACEyhTqbpiKAAAIIIIAAAnYJECLtkqQcBBBAAAEEEEAghQQIkSnU2TQVAQQQQAABBBCwS4AQaZck5SCAAAIIIIAAAikkQIhMoc6mqQgggAACCCCAgF0ChEi7JCkHAQQQQAABBBBIIQFCZAp1Nk1FAAEEEEAAAQTsEiBE2iVJOQgggAACCCCAQAoJECJTqLNpKgIIIIAAAgggYJcAIdIuyVQp59LlKx8Vbl68dOWyFe9v+WzHrVu3U6XlEbeztrb2+t9v3L1bHfEebIgAAggggIDzBAiRzuuzBNa4rq5u4ZIV8xYslb9rPtyYwPo0q0PX1dcfOXZ87YcbBefdVWv++6+Ha7zeZlVPKoMAAggggIAtAoRIWxhTpZBvSs9KQpKFim+/tbH9Fy5eVjl1WcH7FRV2lmxjJYOL+vbbyndXrRETfWFx/rt/v1EWvEss1ii9wk2fxqLwmJZ54eLlle+tkx53bkNiqkThCCCAQLMSaBYh8qvjp9SX7sIlKy5cvCxAe4r3qfV6nijc9KlauXrdBq+3Vm0sW6q3vjp+SgoJXqio+HZZwftqyz3F+9QGkl3U+ia/huWIet0Mw1Drw1dAHTFkq0PWLbgJdpXQWMmNrf/bka+Uj/7fK1evNbZ91OtNkSLqcuKzY21t7aoPPpy3YOn8hcv2H/jrrVu37927d6fi2yPHji/Kb5i4Xbx05e3bd8JXJuR4CL9L8LvNNnvJx9b0uZMmmHo8ZEO+On5K/9TLvvFcuHfyZPWYMdUjR3rfftuo5oqFeNpzLAQQaHYCiQ+RFRXfrl63Qc1A7CneJ5nsq+OnZLlw06fqy+Or46dUvPN6a1ev2yBRb0/xPomD4Y3Vjmpj9UWlAt+Fi5fXf1QkqTR8ISHrpkre8tmOZQXvNxkiL1y8vLTgPZWYpdWN1S1kZUK66SWoPNpkTUIW3tjKOMxEqkObIkVj9WkO6+/du/fhhkKVjQ797aiq0jelZw/+9XBtbe2Fi5fVW+++t7amptHz2iHHQ3NonV11KNz0afhPaCQ9HqMQGSgvr87NrR45Uv2t++ijJlvt27cvohBZXe19+23fvh/+pdpksWyAAAIIOEsg8SFS95KvUj0MGYYh6/WN9xTvk2mJyEOknv8Mwyjc9KlKopGHyMbqtqd431fHT0UY3eS4hmHILo3VTbW6cNOnkqp1B93HVMKe4n2Ss027RPeyvr5eJnFVNvro408iKSrkRJQ++2uqZ3CkCJ6o++r4qfUfFa1et2HhkhV/OfDXhUtW6ONBVW/egqUqRqvM/dXxU+pcuWwZSeXDb1Ny+Ig61vyFy+75/WrjfX/573kLlq7fUGQYxvur16sNdn1R3FhRIcdDyI1ltKh39ZeCbIprplnzkLYKRI1tVdvGBlvIWjW5srEQKd06b8FSOWJwQ/ShYnv1AuXlNVOm3Dt50jAMFSibzJGEyCZ7nA0QQCAVBJppiKyo+Hble+vURJ36mpQ0IL0SXYjUc5X6clVfn5GHyPB107/UpaqmBfVVrcKNfG2rHCxZSq+b2j3CEKnHo1jM3Hz7beUnW7Zt2PjJho2f7Ph8T21tnal1wS8l2qrGqjbqUGpZjz6moKP/K0JKU/lDTU4vK3j/4qUraszIBoZhqNR44eJldQgVU/RDB9fW6pplK364NOK91esNw7h67fqBgyVy+1FdXd1n2z5XuSdv0fKQN9k0Nh4aq4meOE1Q6t9FuqSuoT4yN26Uy4dLHULGif7paOzo0a0PGSL1bm2yIao39eEdXU2C99JDpGEYekCsXbRITU+a5h31bVSBcpq7euRINfVY99FHMrvZsDBmjMqphmE0Vmxw3ViDAAIINGeBZhQiTQlj5Xvrvik9u3rdBhUfTV9C+plouRJRfVVLDgvprr4mVf5YvW7DN6Vn1eX8+lSHzIiELEGFyMbqFklAkdCgZlwkPjZWt5DVkJUmNzmZrmoSiy9dOXSEC3rokegvC6oQyTHqpSlS6DPNoie7qLHxP/1ybvW6DXqK0t+VK25NwynChoTc7JMt29TAW/7uB4ZhqBGr1uQvfy8QCMi82qr31wUCgeBCpEWm8RC8pVqj4+gy6l1T0wo3fSqXNAjR+o+KLly8LOVIdpQrKxo7dNTrBUHJqCrpVZXKyCH0d9VK6XHZxpYFU4i8d/JkzZQpgfLyuo8+kilJfdkUNNX8pffttwPl5aZlI9TpbL0ofdmWtlAIAgggEE+BZhQi5cJHOcMrs4/yLatoVDzSg4KQ6YlKzcqoL615C5aq7U0zfCG/lvSvUv10mwpk6ujh6yZf21IxfUFVUqoks0eR1E0vRy3rbmq2RjV5WcH7fznw1/CROri0MGsCgcC+/f+9ZNlKIZ23YOm7q9acPHU6zF4q4qtcrhouHaHXzdQRpkhhiiAKX3ZRaUMS0up1G3R//d1YhMjy8lsCcvdu9eUrVxfnvztvwdK8RctPf3Pm3r17y1Z8oDY4c/Z8SKjGxkPIjQ3DUNt/dfyU11ur4qC+pZ69pGSpobp3TSVLNTwuXLysJ1GhDvn50g9kaVmvleyorzT1uHwoZOO4zUT+ECIvXfK+/bY+lVi7aJFUxjQT6du3T9/yx0nH4BD5/Rp9Y71YKZ8FBBBAwBECzSVEms7V6mlDZUo5AacynJ4/TNAyrWJar17qZ/dUvgkuKvj7TC8qTN0k/uohRt9XlvXJOckEkdRNSlALJjfTu3o4ML1l9aXf7/90607JIqaFw387FqbA4CCu5PVZUtPEpKkL9LQhBwoTIiUASWepiBmLEGkYxqmvv1Egf/poU43XW3X37uUrVyurqnw+39btu9Rb+w/8VWoevBByPARvJmvUIA95DYZuJUNLdlQLe4r37fh8jx4lTSM2zL/TTEVF+FKvleyirzT1eAJD5A8BsbzcO3eunICWOquF4BAZOguGDJGNF2s6Ci8RQACBZi7QLEJkyCS0p3ifPPFHEkaTCdJ0mjtYXy9BLZu+PtX3bnCy1IsKWTe1Qcgy9X3VslzPp+ZX9Gv11KGDywlWCl6jH0jQ9JVRL+///k4RU3bUX165ej1k4Y3lGL2nghtrihRyaaN+iJAhUs2ryQUJkstjGiINw5CHHy1ZtvLTrTu/3H9w6/ZdBStXK6JdX+zVax68HHI8BG8ma1R83PH5HtPoDc5e+rS67L6neN+Wz3bs+HxPRcW36uYkiddqGwnfsst9Luh5UYqSIaoGgPSa2iB4F/0aSink/hf009nq0kZ1UWPtokWmSyHlWKYQqe8l26iF2kWL5Jy4rGmsWNO+vEQAAQSauUDiQ6R+MaL6xpUAp07vzluwVKasZI3EF3VSTy5Ek9wZxl19Y6kS5DtYL1nmscIUIttL3fT5NlPhIcuR7fXvzpB1U7ubImNIN/Xdb2IMeXSrK999b62Yh1wIc+uxtFTtKGJ6E8RcYNXGgqMXolY2FiL1a2RlPMQ6RBqGce3a31e+v86Es6zg/dIz5yLRlgZKk8PvZRoP+shRdQhJqvDVsdTgl3L0wTNvwVL5GIavRoTvyllyvW5yxIVLVqjerKj4NkxD9J6NUCmS6v3DI36021/UFY1y6lklS9OZa4mD+npZaRjGjzfcSMn/eEabBwBF0kdsgwACzVMg8SGyebpQK5PAgkXLTfHI9HLDxtDP+lFBQcK6ein5xnQUp78MBALnzl/c8+eGJyt9vrv41Nff3Lt3z+mNov4IIIAAAgiEFCBEhmRhpVngm9KzfzlYEubv1WuhT2eriSUJkfpZbPMxeI0AAggggAACzhEgRDqnrxxbUzlRqyYvJVA6tkFUHAEEEEAAAQQMQiSDAAEEEEAAAQQQQMCyACHSMhk7IIAAAggggAACCBAiGQMIIIAAAggggAAClgUIkZbJ2AEBBBBAAAEEEECAEMkYQAABBBBAAAEEELAsQIi0TMYOCCCAAAIIIIAAAoRIxgACCCCAAAIIIICAZQFCpGUydkAAAQQQQAABBBAgRDIGEEAAAQQQQAABBCwLECItk7EDAggggAACCCCAACGSMYAAAggggAACCCBgWYAQaZmMHRBAAAEEEEAAAQQIkYwBBBBAAAEEEEAAAcsChEjLZOyAAAIIIIAAAgggQIhkDCCAAAIIIIAAAghYFiBEWiZjBwQQQAABBBBAAAFCJGMAAQQQQAABBBBAwLIAIdIyGTsggAACCCCAAAIIECIZAwgggAACCCCAAAKWBQiRlsnYAQEEEEAAAQQQQIAQyRhAAAEEEEAAAQQQsCxAiLRMxg4IIIAAAggggAAChEjGAAIIIIAAAggggIBlAUKkZTJ2QAABBBBAAAEEECBEMgYQQAABBBBAAAEELAsQIi2TsQMCCCCAAAIIIIAAIZIxgAACCCCAAAIIIGBZgBBpmYwdEEAAAQQQQAABBAiRjAEEEEAAAQQQQAABywKESMtk7IAAAggggAACCCCQ+BB55vw1/iKAAAIIIIAAAgiEEWiGmTXxIbIZolAlBBBAAAEEEEAAgfAChMjwPryLAAIIIIAAAgggEEKAEBkChVUIIIAAAggggAAC4QUIkeF9eBcBBBBAAAEEEEAghAAhMgQKqxBAAAEEEEAAAQTCCxAiw/vwLgIIIIAAAggggEAIAUJkCBRWIYAAAggggAACCIQXIESG9+FdBBBAAAEEEEAAgRAChMgQKKxCAAEEEEAAAQQQCC9AiAzvw7sIIIAAAggggAACIQQIkSFQWIUAAggggAACCCAQXsCRITLAHwQQQAABBBBAwLEC4cOZU95t7iHSscODiiOAAAIIIIAAAhYEnJIdpZ7NMURa8GZTBBBAAAEEEEAg6QQkqDXnhWYUIpNuANAgBBBAAAEEEEDgvgQIkU0IRKLr5w8CCCCAAAIIIJB0ApGkoCaCVILeTvBMZBi4pBskNAgBBBBAAAEEEAgnECYXBQKBBGXFRg+bsBDZGFM42u/fu8cfBBBAAAEEEEDA4QLhA09jMalZRcnEhMiQNCE1HT5CqD4CCCCAAAIIIBCRQMggFDIyNTo3GN83EhAigzmC1RrD9vEHAQQQQAABBBBICoHG0k5wLgrOTvGNi6GPFu8QGaxgkjKBhhkk9fxBAAEEEEAAAQQcJRAm2JgikCkgBSeo0MkujmvjGiJN7Tfp6HYmYkcNDyqLAAIIIIAAAghYEDDFHj0RmcKSKUrFMTGGOFT8QqSp2TqKjqU7BvPX8QcBBBBAAAEEEEgKgeCco6cgPR3pqckUqEKEu3itilOINDVYtxAjE5zf729WtyDFq0c4DgIIIIAAAgikokAgEPD7/ffu3TMlIpWU9OxkilWJwkpAiNQVghPkvXv3EmXBcRFAAAEEEEAAgeYgoEdJCUt6gtJzZKIqHI8QqbdTb2BU0vkAACAASURBVL+gqMRdX1/P1GOixgHHRQABBBBAAIFmJRAIBOrr61VGksik5yg9XyWk5jEPkXoL1Tytar9wyJwtCTIhI4CDIoAAAggggEDzFAgEAhKTJDhJjjRFrPg3Ia4hUpotEDIH6ff74994jogAAggggAACCDRnAb/fH2Y+Us+R8W9FbEOk3rYwCZLrIOPf8RwRAQQQQAABBBwhcO/eveaZIxMWImUOkkshHTGCqSQCCCCAAAIIJERAXRxpypEyN6dP2MW5enEKkdJU/US2ejySz+eLc5s5HAIIIIAAAggg4CABn88nqUmilApXyRki9VaZQqQ+DcnVkA4axFQVAQQQQAABBOIvoK6MbG6TkTGciQwOkSo76wmyrq6Om7LjPxY5IgIIIIAAAgg4SCAQCNTV1clkpM/nU5kqsZORsQqRwQlSPYRdHp6pIOrq6hzUhVQVAQQQQAABBBBIiECYEKl+5E9Fr3jWLTEhUhIkITKenc2xEEAAAQQQQMChAurXwmUyUp+J1ENkPE/wxi9EhjyXXVtb69C+pNoIIIAAAggggEDcBGpra8NMRupngONWpZiHyMZuqVGBmhAZt57mQAgggAACCCDgXAEVIlWOVLeXNDYZGbc2JiBEyrns2u//xK2pHAgBBBBAAAEEEHCogEpN+mRkcoZIfU5VzUSazmXLNKTX63VoX1JtBBBAAAEEEEAgbgJerzf8ZKSevuJTq5jMROrNIETGpyM5CgIIIIAAAggksQAhsuEkfn19fV1dnZqVZSYyiYc7TUMAAQQQQAABuwRUiJTba4Ivi9Sn8Ow6aPhy4j0TabogkhAZvnt4FwEEEEAAAQQQMAzDFCLVr9fol0UmW4gMvjVbD5He7/8wMhBAAAEEEEAAAQTCC6jUJDORwSFSf1pk+KLseje2M5F6iJRfO9TvqmEm0q6OpBwEEEAAAQQQSGIBPUSaHvQjcUsmI+PjkOAQWVNTE592chQEEEAAAQQQQMC5AjU1NY3dW5PMITLM830Ikc4dzdQcAQQQQAABBOImECZE3rt3T+XIJJyJDA6Rcms2ITJug48DIYAAAggggIBzBSREymWRYW7Qjk8z43E6mxAZn77kKAgggAACCCCQrAIpESJlKjUQCKjJVUJksg5o2oUAAggggAAC8RGwFCIDgUAcamX/TCQhMg7dxiEQQAABBBBAIKUECJHmn6vhmsiU+gDQWAQQQAABBBCIToAQSYiMbuSwFwIIIIAAAgiktECqh0j952pqa2u9Xi8zkSn9gaDxCCCAAAIIIBCZQHCIDP7RGv2SwshKva+t4npNpB4i1YPXCZH31XvsjAACCCCAAAKpIaBCpDxvXGUqn8+nbl82PScyCW+sIUSmxjinlQgggAACCCBgswAhsiFG1tXVqXPZnM62eXxRHAIIIIAAAggkqQAhkhCZpEObZiGAAAIIIIBALAUIkYTIWI4vykYAAQQQQACBJBUgRBIik3Ro0ywEEEAAAQQQiKUAIZIQGcvxRdkIIIAAAgggkKQChEhCZJIObZqFAAIIIIAAArEUIEQSImM5vigbAQQQQAABBJJUgBBJiEzSoU2zEEAAAQQQQCCWAoRIQmQsxxdlI4AAAggggECSChAiCZFJOrRpFgIIIIAAAgjEUoAQSYiM5fiibAQQQAABBBBIUgFCJCEySYc2zUIAAQQQQACBWAoQIgmRsRxflI0AAggggAACSSpAiCREJunQplkIIIAAAgggEEsBQiQhMpbji7IRQAABBBBAIEkFCJGEyCQd2jQLAQQQQAABBGIpQIgkRMZyfFE2AggggAACCCSpACGSEJmkQ5tmIYAAAggggEAsBQiRhMhYji/KRgABBBBAAIEkFSBEEiKTdGjTLAQQQAABBBCIpQAhkhAZy/FF2QgggAACCCCQpAKESEJkkg5tmoUAAggggAACsRQgRBIiYzm+KBsBBBBAAAEEklSAEEmITNKhTbMQQAABBBBAIJYChEhCZCzHF2UjgAACCCCAQJIKECIJkUk6tGkWAggggAACCMRSgBBJiIzl+KJsBBBAAAEEEEhSAUIkITJJhzbNQgABBBBAAIFYChAiCZGxHF+UjQACCCCAAAJJKkCIJEQm6dCmWQgggAACCCAQSwFCJCEyluOLshFAAAEEEEAgSQUIkYTIJB3aNAsBBBBAAAEEYilAiCRExnJ8UTYCCCCAAAIIJKkAIZIQmaRDm2YhgAACCCCAQCwFCJGEyFiOL8pGAAEEEEAAgSQVIEQSIpN0aNMsBBBAAAEEEIilACGSEBnL8UXZCCCAAAIIIJCkAoRIQmSSDm2ahQACCCCAAAKxFCBEEiJjOb4oGwEEEEAAAQSSVIAQSYhM0qFNsxBAAAEEEEAglgKESEJkLMcXZSOAAAIIIIBAkgoQIgmRSTq0aRYCCCCAAAIIxFKAEEmIjOX4omwEEEAAAQQQSFIBQiQhMkmHNs1CAAEEEEAAgVgKECIJkbEcX5SNAAIIIIAAAkkqQIgkRCbp0KZZCCCAAAIIIBBLAUIkITKW44uyEUAAAQQQQCBJBQiRhMgkHdo0CwEEEEAAAQRiKUCIJETGcnxRNgIIIIAAAggkqQAhkhCZpEObZiGAAAIIIIBALAUIkYTIWI4vR5V9/Pjx5/oPSEvPGD8h99atW46qO5VFAAEEEEAg3gKESEJkvMdc8zxeZWXl0KHDXW6P+puXtyAQCDTPqlIrBBBAAAEEmoMAITLeIfLsuXOdu3SVsKIW0tIznuqVPWv2nNOnT/v9/uYwMlKtDo4OkSUlJTKiCguLUq3vaC8CCCCAQEIECJHNIkRKAnC5Pa+8Mr6srCwhoyHFD+rc09mEyBQfujQfAQQQSIgAIbLZhUiX25OTM7isrDwhA4KDOlGAEOnEXqPOCCCAgNMFCJGJDJHz5uepAVRfX3/g4MG+/Z6TKcn16//k9LFF/eMmQIiMGzUHQgABBBAQAUJkswiRqj9KS0vlcsnRo8fcvXtXrb99506/Z/urfFlSUmIYxs2bN2fNmp3Zpm1aesagwUP27/9LyCspy8vLV616r3efvmnpGS63p137jmPGjtu7d29dXZ2MAH2hpqbmk82bhw4b0TKjlcRZfaHfs/1v37mjdiksLFJv5ea+5vV6/X7/3i+/7N2nrzrQosVLbt68qRduGEZFRcWuXbtfnzjpyayeal+5GPTixYv6jSySig4cPHjixMnBLwxxuT1P9co+fPhvfr9/67ZtnR7vkpaeMXbcK9euXTMMw+v15ua+5nJ7Xh0/4fbt2yveXZnZpm3LjFZz575TXV1dVlY2fkJuWnpGp8e7fLJ5s8/nk4pJK/Rmutyexq4snDc/T205b35eIBAoLS2d9sab7dp3VK1e8e7KmpoaKVwW1JazZs/p0vUJ04HkZWNHlELCLAhXmJqbdo+8LwzDkAt5O3fpevbcuZqamqKiTepO9rT0jKHDRhw/flzvPjlW5CNKDuFye+QfV6ocvXVq/Ev5llqh9oquL65evZqXt0B1X1p6Ru8+fVetek8+C1IfWSgvL1+zdt3zA3PUR0ntkp+/tLS0NORHVXZkAQEEEHCQACGyGYVIn883fcZMlSr0uGYKkWfPnu3Rs5eED5fb811GLCrapH+L+/3+Tz/9LLNNW30zWR78wpArV66Yhun58+f1qVDZWF/QayXxKzf3taqqqvyly1RUle1NJ+Ul58kG+oKpCZIb3np7erfuWbLl4BeGrFv3oX6gMWPHVVdXS+HZ2b2nTXtDtne5PWvWrhs6bISsSUvP+PLLfdJ2aYVsoBYai3QSIufOfaeoaFNw2h4+YqTp8UA+n2/Ve+/rdTYdK/wRpaphFoQrwhApXCFrYuoLU4jct2+/7qlKaJnRasuWT001tDSiogiRVlthGEYUfeHz+TZs+Ci4o9U/Gw4cPGhqtd/vDzkwFJRK4aZdeIkAAgg4VIAQ2YxCpGEYklH0uKaHyO/mEdWUm+nrv1v3rEuXLqtRGAgEioo2hU8tpoRXUVERnAxMh3C5PXqtJH7l5r72xZ49j7bODN5++fICibbhv/Jdbk9mm7ZHjx5TTdBTUXCx+ppHW2ceO/ZVk4Xru0yb9kZ9fb06kLRC3yBMFJMOMm2vvzRdirBjx87wfaH2bSy2RvJ/Fp0rknKa5NL7Qg+RejNNy3369tNvCLM6omwPkaYRpRit9kWTH6XOXbqWlpbqfXTg4MGQnwXFRYjUrVhGAAGnCxAim1GI1L/a+w8YWFFRoYaXHiLfenu6OoF49erVurq6hYsWy3f55s1b1Pb693HnLl2Li/f6fL5AIHDx4sWRL46S7deuWycJ78sv96mgk5aesXbduurqanX2ed78PLV+8AtDTBNsEr+GDh0+aPCQlhmtCguLfD7f6dPfyNyh3gqv1/vOO/M++GD1mTNn5Ex9RUXF0mXLJWMVFKxQTdBT0fd5t+yDD1ZLzefnLaiqqpo8Zapas2PnTp3uu9KKijZdu3btqV7ZaoPOXbp+/fXXR44cUd/uQ4cOr6ysDP7o6gdtLIqZQmTffs99803DCcp9+/bLvO+r4yfISe3q6uoxY8epavQfMPDs2bN+v9/n8x0+/Dc1nZyWnvHJ5s3BlbG0JpKa6wVa6ovgEJmWnrHi3ZVer7eqquoPr70u/aJPy1kdUfqgjfB0ttVWRNEXeq1Gvjjq/Pnzfr/f6/V+9tlW6e7JU6bK9SH19fUyEd6te9ahQ4fVtRN+v//mzZvFxXunz5h54cIFvS9YRgABBJwrQIhsRiHy5MlTHTp2Ul/Js+fMlUv39BDpcnt69Owlk476l5x89RYUrFCFPNo6c9++/frovH79evYzfdS7epZas2atWql/IxqGcevWrT59+6m3TJejSYhU7654d6WKpIFAIC9vgVoZybzL3bt3R48eo7aXOUJJRY+2zlTRRA4nc66S5woLi/QQqa7R1NHUhKhY6fOpOo4cNMKZyP4DBspVAXoF9PJv3LiRnd3b5fY82jrzyJEj+uE2bvxYtVpVWH/L6nIkNY+kzJB9YQqRaekZ69f/SQZnY4e2OqKkdyxdExmyUY21wmpfBAKB5csLVB/pHzrDMPS39EGuD4PsZ/pcv349ZA1ZiQACCCSHACGyWYTI+vr6PXv+LHfVmE4m6nnIlG/0t1SI1L9B9btz1HhtLOFJ7pQYp7aPMEQOzBlUXv7jM4kk8Onfr419YPTvXYlTEk2kCVLm9BkzVYJpLEQWF+81DENkfvdY+1OnTulJSA95eq3koCZkfRs5aHBAl7f08q9cuZLVo+EuInXaXS+qGYbIkH2h07ncnvETctVEtWqLHv706VurI0ovR/45pA6h94vpXzK6pyw31gqrfaE/f15GnRwlZK18Pt/sOXNV7nS5PU90677x40L9oyG7s4AAAggkgQAhMpEhUr5sTAuLFy+RmR49D7ncnsEvDJHT3CHHnx775s59R05Yy8aSxlxuj3wl79i5U9Uhs03bjwsLvV6vOp393e0jan2Hjp1On/5GCjEMQy9n67Zt+lthlquqqj7ZvHnkyJdC3qccHCJljRxOEoaENtNMpGqUhEgJshJT9JCnV1WPBXoe0reRg0qx8q68pZevB5GRL45SN6H7fL5Dhw7LSX991llKs7QQSc2DC4ywL0whUvxVgaJqSt5WR5RejukQeutkxEpzIm+F1b6Q0Gn6eAa/1EfLmTNnpGdly27ds/Lzl16+fDn48ygNYQEBBBBwnAAhsnmFyJYZrT74YLWeIE0h0vT9GjzgwnwZq40ljekhssnbIN54849y4ZepnOA4FVwrwzD8fv9nn21VT8ORL1fTgkRGyQ2yRqotAhLamnOINAwj/M0cplnnkHRNrhQuU5JrbEdLfRFdiLQ6osKMW711eoi02gqrfaFXyTRQTS/1EGkYxokTJ58fmGPaRr185ZXxpmuLG+sj1iOAAALNX4AQ2SxCZMuMVs8PzFmzdl3IM18yqRZ8uVjwCJMLv1xuT/iZyLT0jMOH/6ZKCAQCf9qwIeTXnsvtGTpsRPAv6EiqizBEhs9S6tASGSU3yBo5nONC5I0bN+QxnybhlhmtPtm8+f5np4QrwhBpqS+iC5FWR5Se2KSL1eDUW6eHSKutMAzDUl/oVTJ1nOmlfkeRqrPf7y8tLc3PXxo8Kzlp0mQ10x/84WUNAggg4CwBQmQiQ6Tpy7KxoWMpRFZUVPQfMFB9yckFhVKy/ijKrB495b4QuacnO7v3iy+NUneeZrZpO2z4iD17/myag1SlSaqLJETqN8aqM+Zyf3TIK9gkNzg9RPp8vpkzZ6lneY4ZO67X0z/cMP5kVs+8vAVXr16VrrmfBeGKJERa7YvoQqTVEaUnNtPnQkaaPnceRSus9oV+ZYipSpF3ViAQuH79+jvz5ssjCOQi3cgLYUsEEECgeQoQIpMtROoxMfjmj0uXLsuDyiWf6XcDfPHFFxGOVPlqjyRE6jnYdI/CzZs35RGVUiVJRbJGDidf5444nX369DfqjvuRI1/67rFEEdpa3Uy4IgmRVvsiihAZxYjSQ6Q+g64/MUoPkVG0wmpf6M/r6T9goP4UTKsd9N0/w+SJVHorrJbD9ggggECzEiBEJluINAxDHtHncnvkOZF+v//s2bPq9wPVxJi6i9nQfjPQ5faMfHHU2XPnbt+5U1FREf732STVRRIi9fnR7Gf6nDp1Sj1vb9eu3U906y4nByUySiqSNXI4Z4VIaYiaf71169btO3dsP5spR4kkRFrtiyhCpD67HOGI0mvVrXvW6dPf+P3+gwf/Wx5ZoAaJnM7Wt49kRBmGIUqR90Vx8V6ZQXx+YM6BgwdV3wUCgcrKymPHvsrPX7p8eYH8P11/dGVlZaW6UMF0HxUzkcLFAgIIOF2AEJmEIbKuru6NN/8oySzkgn4DuD5vFLxxy4xWQ4eN2LZtu+mktqS6SEJk+EPIQSUyyve9rJHD2Rgi9dksqUPwghxR/0mh4FbLzKh+d7bMfgUX63J7unR9YtbsOZcv//BTQ1H/30S4Qh5FrZSbP6z2RRQhMvwhQo6oMLukpWf8Z6vWqhUSIsNsryPI+DEMI4q+8Hq9kyZN1gsMXtaHh56eg7dUa4LvUYu639kRAQQQSKwAITIJQ6RhGFVVVW9PnxHyaywtPSMvb4FpMqysrFzOKYfcK/j2Gkl1wXEq5Ji+cOGCnEnXD/FEt+4LFi5Sa+QrX1KRrJHDyXe2hLao786OQ4gMBAKfbN4c8peXBeH+b68RLikzeEFCpGEYlvoiihBpGEYUI+rKlSvqwex65du17/jZ1q3jJ+SqlRIio2hFdH0R5qOkqiQD0jSpr7dCll+fOOnOnTshPyCsRAABBBwnQIhMzhCpHqlz/PjxyVOmyhMZn8zqOWv2nNLS0uDbga9cuSJnuuULL3hB/y1sSXURhkjDMG7evLlo8RL1lB81HfXJ5s01NTWSgSQyBq+Rw8l3tiNCpM/n27Dho/Ah0uX2yM/wRPd/EOEK7jJZo4dIS30RXYiMYkSpWs2eM1eNkC5dn1D3HunTe3qItNqKqPsiEAiUlpbOmj3nyayG58arX+Xu3//5+XkLjhw5Ir/DrvquoqJi167dr0+cJBunpWc81St71uw5p0+fDn+JSHS9z14IIIBAogQIkfEOkYnq6TDHvXXrliTIuXPfkd99NgzDdDmXhLwwpfGWLvDJ5s3qorpu3bOOHD2qx/eKigp5lnuS3WzRPEdUavaFPhpZRgABBOwVIEQSIg35cZFOj3c5c+aMaYTpv6NIiDThhH+p/0SKfsex7FVcvFdmCk1zbLKNExea4YhK2b5w4vihzggg4BQBQiQh8h9+wHDWrNl///vf1Uk3v99/8dKlN//4ltygWlCwwikjuznUU7/mslv3rH379sulqNXV1fqd6fozO5tDze+zDnLtgcvtaSYjKmX74j67kt0RQACBMAKESEKkcfToMfV0cZkVC7mQkzM4+Hdrwowt3orkNnn1uKWiok36mW6n0zXDEZWyfeH0sUT9EUCgOQsQIgmRRiR3rb788thr164156HcPOvW5E3K7dp33LTpE9OvpTfPtkReq+Y5olKzLyLvNbZEAAEErAoQIgmRP4yZ8vLyDz9cP3LkS+reWDVDxl2lVj9Rwdv7fL6SkpLpM2Y+1StbLgxo177jyJEvfbJ5c+x+xia4JnFe0wxHVMr2RZy7nsMhgECKCBAiCZEpMtRpJgIIIIAAAgjYKUCIJETaOZ4oCwEEEEAAAQRSRIAQSYhMkaFOMxFAAAEEEEDATgFCJCHSzvFEWQgggAACCCCQIgKESEJkigx1mokAAggggAACdgoQIgmRdo4nykIAAQQQQACBFBEgRBIiU2So00wEEEAAAQQQsFOAEEmItHM8URYCCCCAAAIIpIgAIZIQmSJDnWYigAACCCCAgJ0ChEhCpJ3jibIQQAABBBBAIEUECJGEyBQZ6jQTAQQQQAABBOwUIEQSIu0cT5SFAAIIIIAAAikiQIgkRKbIUKeZCCCAAAIIIGCnACGSEGnneKIsBBBAAAEEEEgRAUIkITJFhjrNRAABBBBAAAE7BQiRhEg7xxNlIYAAAggggECKCBAiCZEpMtRpJgIIIIAAAgjYKUCIJETaOZ4oCwEEEEAAAQRSRIAQSYhMkaFOMxFAAAEEEEDATgFCJCHSzvFEWQgggAACCCCQIgKESEJkigx1mokAAggggAACdgoQIgmRdo4nykIAAQQQQACBFBEgRBIiU2So00wEEEAAAQQQsFOAEEmItHM8URYCCCCAAAIIpIgAIZIQmSJDnWYigAACCCCAgJ0ChEhCpJ3jibIQQAABBBBAIEUECJGEyBQZ6jQTAQQQQAABBOwUIEQSIu0cT5SFAAIIIIAAAikiQIgkRKbIUKeZCCCAAAIIIGCnACGSEGnneKIsBBBAAAEEEEgRAUIkITJFhjrNRAABBBBAAAE7BQiRhEg7xxNlIYAAAggggECKCBAiCZEpMtRpJgIIIIAAAgjYKUCIJETaOZ4oCwEEEEAAAQRSRIAQSYhMkaFOMxFAAAEEEEDATgFCJCHSzvFEWQgggAACCCCQIgKESEJkigx1mokAAggggAACdgoQIgmRdo4nykIAAQQQQACBFBEgRBIiU2So00wEEEAAAQQQsFOAEEmItHM8URYCCCCAAAIIpIgAIZIQmSJDnWYigAACCCCAgJ0ChEhCpJ3jibIQQAABBBBAIEUECJGEyBQZ6jQTAQQQQAABBOwUIEQSIu0cT5SFAAIIIIAAAikiQIgkRKbIUKeZCCCAAAIIIGCnACGSEGnneKIsBBBAAAEEEEgRAUIkITJFhjrNRAABBBBAAAE7BQiRhEg7xxNlIYAAAggggECKCBAiCZEpMtRpJgIIIIAAAgjYKUCIbL4h8vadO/2e7e9ye1xuT0lJSYTdXldXt2jxkpYZrTo93uXPfy4OBAIR7mjjZidPnurdp29aesakyVPu3LljY8nNuSiv15ub+5rqr8LCouZcVeqGAAIIIIDA/QsQIuMaIs+eO9e5S1eVMxr7b+cuXc+eO2cYRnQh8vTpbzp07KQKz8kZXFFRcf+jxFIJ9+7dmzlzlrTus61bLe0e9cY6lxy9S9cnJk+ZeujQYb/fH3XJhmEEAoFr164VFW16eczYLVs+DVkUITIkS5MrvV5vSUnJ/LwFY8e9cjtl/snRJAsbIIAAAs1fgBCZbCHS6/UuXLRYzURu374jITORx48fVzOR4yfk3rp1Kz4fg5AhUtLk6xMn3c+caCQBMZJt4kPhrKOUlJSobur3bH9CpLP6jtoigECKCxAiky1EpuyADh8iXW7PG2/+sa6uLjqfSAJiJNtEd/Tk3osQmdz9S+sQQCCJBQiRcQ2RppE0b36emoOZNz/P9FbUp7ODy0mRNXqIVJeQ+v3+i5cuTZjwB4X8aOvMY8e+ik4jkoAYyTbRHT259yJEJnf/0joEEEhiAUKkA0JkWnrG4cN/+/rrr8eOe6VlRqu09Iyhw0acOHFSH5chr7YMmU3VXl6vd+u2bcOGj8hs09bl9rTMaDV02IgvvvjC6/XqxVpalkwsJ5Hl+s7gcvx+//HjxydPmdql6xNq+15PZ69a9V55eXnwxpGsCQ6Raq+KiorBLwxRhygsLPL5fLPnzFUvp8+Y6fP59MIDgcDy5QXq3eXLC/7617+q5TD/lXto9BC5efOWa9euTZv2huLt3afvvn37gy8tqKur27Zt+9BhI1pmtHK5Pe3ad5w8ZerJk6f0LaVd/QcMvH3nzqFDh0e+OKqxYaC3JZLlJnvBElcgEJBEuHDRYq/X+9FHG3s9ne1yezLbtJ01a7ZcUaBbNWZrOrvt9XqLi/e+PnGSDJjMNm2HDR+xZ8+f9Qnm4uK9aekZ6ogHDh4UhEAgsOLdlepYr0+cVF1dLW+xgAACCCAQnQAh0gEhstPjXZYsyVdxRL5xO3TsdPLkKel1SyGyrKx86LARUpS+IJFISo58IfIQ6fP58pcuU1/2+tFdbk9u7mvRBVkJW8E3s0vFVOuOHDnyaOtMl9uTnd37xo0begNv3779XP8BLrfn0daZR44ckUhkqqT+UsT0YJS/dFm37ln6ZmnpGcXFe/VjXblyRdKtacv8pcsk3Uq7nuqVPXPmLBOaaRjo5Te5HGEvRM5lGIaIvTp+wujRY/R2udyel18eW1VVZRiGbmXaRl6aQqR0omwgC1OmTpNQ6PP5Fi9eot4a/MIQuST35MlT6oazbt2zzpw50yQOGyCAAAIINClAiHRAiJQvS9PC7DlzJWpEHiL1uSVTgS63RyJRk0MneIPgr/nGZiK//HKfKQxJTWwPkT6fb/qMmap81brq6uoxY8epNTt27tQbIhUbM3ZcdXW1RCKpXvCCiDUZjFSZ6nAVFRWN5XiX25OWnvHJ5s1qSwmRwYdWa/RhoLelyWVpbHDJei9EzqWHvpTKWgAAIABJREFUyOAyVbu+/HKf7SEyLT1DFauaXFZWnpMzWFVgxbsrA4FAdXX1+Am5JtgmfdgAAQQQQCC8ACHSMSFy/ITcsrKyurq6hYsWqy/I/gMGhnyCT2Fhkdog5OlsPZQUF+9Vz76pr6+/dOnyindXbt++I/yIieRdOURjIVLi5owZs+rr6w3D8Pv9N2/e3LFzpzoNGslRTNvIQU0zkdevX89+po8CkfOb69f/Sa2ZNu0NVQHDMPS4uXXbNr18PSBKatQ3CA5G/QcMPH/+/L179z4uLFSJ+fdPdL9w4YLaa+u2baoCmW3aflxY6PV6A4HAxYsXR744Sq0f/MIQ1bl6u1xuT+TDwFS94JeR90LkXHrsTkvPWLtundfrvX79uqS6hYsWm2oiu5imHk2bLV9esOLdlZcuXZYBc/bs2f4DBiouU7ElJSVq5l7N1H6yebPqgvu5ucpUH14igAACCBAinREic3IGl5X9cLHgsWNfqbOxjX3phg+RlZWVQ4cOV1+9I18cdfr06ft8hmLwp0hyT2MhsqBghapA5y5dd37+eXTnr03HlYNKiPT7/efPn5dY1qdvv7KyMrXXpUuX1enmrB49r1y5olZeuXIlq0dPl9ujb6neshoi9XOmUqxo1NbWvj5xkhJYvrxAvwJSZpTlNiC9XZaGgckn+GXkvRA5lyRCl9uzePESmSmXYwX/w0Z2aWw8B9dc1mzc+LFiNBWrXwH5VK9s9XDW7Gf6XL9+XfZlAQEEEEDgPgUIkc4IkTKFZhiG5IzGvnTDh8hAILB23Tr11av+2659x1mz5xw9eky+8u9zVEnukdhkKlAuUFMVaJnRavToMbt27VYXzJk2jvClHFRvmizrJ4jVpKPcXiNntGV20BTsTLOMkcxEbtz4sVRbKiYaskaSomxcU1Pz6vgJqtqq02Vjl9tjaRhImY0tRN4L+iUQ4bkkEfbp20+uRzQMI8yYlF0aG89S//Ly8jVr1z0/MEfdhySd63J7TCHSMAw5ha02e7R15r59+6UoFhBAAAEE7l+AEOmMEKn/7OF9hkgVoTZt+qRd+47617DL7endp+93d0zf/6iS3COxKbjMEydOPj8wx1SBzDZtP/poY3RZVg5qKlPde75hw0emYuV+kclTptZ9/2fylKkut6dDx06nT39jqrDVmUg9aErFRCN4jRwu+ECyscywqo2bHAZSZpiFyHshQq7GEuF9hshAILB12zbTvWV6RweHSMMw9u//i2wzcuRL9/NPlDCGvIUAAgikrAAhMhVDpBru9fX1R44cmTV7jp4me/TsdenS5fv8PEjukdgUskC/33/lypUPPljdu09f+bJPS8/YseMfbnYJuW/wSjmoFOVye57M6pmXt+Dq1avB28ujf7p1z7p06bJkMpUpTdsHZzvTBmFmK6VioiFrgmci7969Kzc1q385yMaxCJHqatRIeiFCrhiFyKNHj6kE2blL1z17/iyXsYbJpvrtNeqWmqKiTfqVA8E9yBoEEEAAAUsChMjUDZEyUHw+387PP5dpHtOTaGSzyBck90hsCr9vIBA4f/683CQR/PjG8Lurd+WgprAVZl+5X2T9+j/Jspyu1XfUr2LUT1Xr2zQWNKVioqEnxbXr1unJRk4xy8ayu6ldknqbPAusVzLMcpO9IERhuKIIkYcP/03d9WI6A65Xdc2aterfBvqMo8/ny8tbELxezbWrt9LSM/Lzl/bo2cvl9nTu0rW0tFQvlmUEEEAAgfsRIESmXIisqKh46623d+3aXV5ers7wqvTwVK+Gh0K73J44hMj33v/ggw9WX7p0WW6pqa6ufuPNP6oKxC1Eyv0iPXr26tO3X8hbauTTJfcy5+QMDjm1GXmINAxDbjTR787Wk7Q8Dyh2IdJqL0TCFUWIlDSclp6xcePHpqsOlL88kUDhqzvZX355rBowpmsiA4FAUdEmFUxzc1+rqan5uLBQbTl02IiQDzSQXmYBAQQQQCByAUJkkoRIiTjytWpakKsq9VBi2sbl9qhzu5EPINlSokBwmWqN/ujB8LU1PV5HDhF+QW+XNDb8LvozfVQlg2+pkRJkHs7UQLn80VKIvHTpspoeM5WmXma2aStNaKxdAh71TKTVXoiEK4oQWVZWphK8iUJv146dO03vml7qM5RnzpxRt97Lk9grtKdy6veMS+eygAACCCAQhQAhkhDZMPuo/ma2abt12zb97GrkQ0oyjZRmWogwRM6YMUt+fSTyo0f9U+P6A7dD3lIjdTBdYyetiy5EGoZx4OBB/WpUKbBd+47btm2XXkhIiGysF5rkiiJE6hOHguBye/QQeevWreBf92mZ0ert6TM6Pd5Fn4nU86J60rjqQXlyZGabtvpN7tK/LCCAAAIIWBUgRKZciAwEAteuXfvgg9XyqJS09Izeffrm5y8NeZY2wiFlKURWVVXt2rV7zNhxkqK6dH1i8pSphw4djvqhlY2FrfD1l/tFXG5Pk0+ivnnz5rJly9WPQUvciTpEGoZhKvDJrJ6LFi+Rh1mqmjfWLgHXw1b4xprejaIXmuSKIkSqm3sOHDz48pixcmGuKUQahnHnzp1Fi5eoAdOufcdpb7x5+fKPt0OpmUj9Nw/7DxioS/p8vpkzZ6le44GRppHASwQQQCA6AUJkIkNkdH3GXjYKXLhwQZ1WzmzT9ujRYzaWnJRFwZWU3UqjEEAAgegECJGEyOhGjuP38vv9R48e69vvOTU7lZe3IOQtHY5vp00NgMsmSIpBAAEEkkeAEEmITJ7RHGFL5OGCckpa/znBCAtJnc3gSp2+pqUIIICAJQFCJCHS0oBJho1Nqahvv+fOnz+fDA2LTRvgio0rpSKAAAKOFyBEEiIdP4itNmDz5i3qJ0ye6z+gqGhTTU2N1RJSanu4Uqq7aSwCCCAQuQAhkhAZ+WhhSwQQQAABBBBA4AcBQiQhkg8DAggggAACCCBgWYAQSYi0PGjYAQEEEEAAAQQQIEQSIvkUIIAAAggggAAClgUIkYRIy4OGHRBAAAEEEEAAAUIkIZJPAQIIIIAAAgggYFmAEEmItDxo2AEBBBBAAAEEECBEEiL5FCCAAAIIIIAAApYFCJGESMuDhh0QQAABBBBAAAFCJCGSTwECCCCAAAIIIGBZgBBJiLQ8aNgBAQQQQAABBBAgRBIi+RQggAACCCCAAAKWBQiRhEjLg4YdEEAAAQQQQAABQiQhkk8BAggggAACCCBgWYAQSYi0PGjYAQEEEEAAAQQQIEQSIvkUIIAAAggggAAClgUIkYRIy4OGHRBAAAEEEEAAAUIkIZJPAQIIIIAAAgggYFmAEEmItDxo2AEBBBBAAAEEECBEEiL5FCCAAAIIIIAAApYFCJGESMuDhh0QQAABBBBAAAFCJCGSTwECCCCAAAIIIGBZgBBJiLQ8aNgBAQQQQAABBBAgRBIi+RQggAACCCCAAAKWBQiRhEjLg4YdEEAAAQQQQAABQiQhkk8BAggggAACCCBgWYAQSYi0PGjYAQEEEEAAAQQQIEQSIvkUIIAAAggggAAClgUIkYRIy4OGHRBAAAEEEEAAAUIkIZJPAQIIIIAAAgggYFmAEEmItDxo2AEBBBBAAAEEECBEEiL5FCCAAAIIIIAAApYFCJGESMuDhh0QQAABBBBAAAFCJCGSTwECCCCAAAIIIGBZgBBJiLQ8aNgBAQQQQAABBBAgRBIi+RQggAACCCCAAAKWBQiRhEjLg4YdEEAAAQQQQAABQiQhkk8BAggggAACCCBgWYAQGe8QWVtb++bbszp2fvLBh9P4iwACCCCAAAII2C7QqUvWW9Pn1NbWWg6GVnYgRMY1RB45+tXjv+9p+1ihQAQQQAABBBBIoMC/Pf7avww/8U8Tah94zYjP33+aUPsvw0/8W6c/hGl1lyeeOnHyayux0Nq2hMi4hsi8hflhOpu3EEAAAQQQQMBxAv/6+7fiExxDHuVff/9WGLGFi5dZC4ZWtiZExjVEMg0ZZqDzFgIIIIAAAk4U+OeRp0PGu/is/OeRp8OgPd27v5VYaG1bQmT8QqTXW/ur/5sepqd5CwEEEEAAAQScJdDi4Zb/69Wq+OTFkEf5X69Wtvi/GY2hudP/y+/3W8uGEW9NiIxfiDQMo7E+Zj0CCCCAAAIIOFQgZLaL58rwbhFnQssbEiIJkdwkjgACCCCAAALRC8QzL4Y8FiFS8u8DsmTXQkD74//+z73v//h8voYIWV9fV1dXW1vr/f5PTU2NXccNLid8N/MuAggggAACCDhOIGSwi+fK8GLBacSuNcxEEiKj/7dX+FHLuwgggAACCKSCQDzzYshjhUe2KzIGl0OIJEQSIhFAAAEEEEAgeoGQwS6eKwmREnA5nR39OA4/jHgXAQQQQAABBGwXiGdeDHms8C2SgGX7AjORzESSWRFAAAEEEEAgeoGQwS6eKwmRko+ZiYx+HIcfRryLAAIIIIAAArYLxDMvhjxW+BZJwLJ9gZlIZiLJrAgggAACCCAQvUDIYCcrn91gVNY25LfKWuPZDQ2/rD1tt1F378c1j60wTtwwDl39cc2zG4zy6obNHnitYZcr3/6wo5RpWiBESj5mJjL6cRx+GPEuAggggAACCNguYIp0+svHVjREwIKShjio/j62wjh764eA+PmZhviotjlxo2EDtUYtfH6mYU1BScNK2T3kQvgWScCyfYGZSGYiyawIIIAAAgggEL1AyGCnVk7b3RAZH1vxYwrU1zy7oSFEjvnsx1gp707b3TA3+cBrDf9VU5JhjkKIlHzMTGTwOPa0+HXwStY4WOD7DvWE/9jzLgIIIICAIwTCxDsJhbKNviZkiFTZUZ3jnrrb+PLCjwFUCjEthFeSgGX7AjORzEQ6OIqF/9g0/3dbPAw+AggggIDjBUyRTn8ZfDpbv95RTmfLCe4TN348ea3e1U+F6yXry+G/72zPjlIgIbJ5h8hfex78NfNVjv//S2Mf7xZ0LjEaAQQQcL6AnueCl0230eg31lz5tuFMtwqaKpmpKyNVIdN2N9xeo+7FCS5WX9PYt4xaL5nP9gVCZPMOkc7/aIUf2byLAAIIIICA0wX0PBfFsn6rjb57JLfUqO3DA9qeHaVAQiQhMmnn+cJ/qHgXAQQQQAABWwT05BfFcnCIVJOXap4ykgLDt0Iyn+0LhMiUCJE92w7cPe7EsoEbw4+zJt8dPOKVJSvWp7d6TLYcPKn3wt2vPvNilqyxtDB1zYj8vbn5e3NfWThIdnxl4SC1cuqaEbIyzgudenWcv31c/t7cMK2bumaEXu1git916L5kxfrfdege58pzOAQQQACBeApEkvNiuk34xtqeHaVAQmRKhMisNgN2jz2eP2BD+HH24MNpPdsOLHxxX2Z61+Atn+4zaNW6LU/2ek6/ki9nYvaC3a9mj/whJ72ycNDMotGtO/xW7W56GVzmz3758E9++ovJ7w8du2CgvPvzFr/5yU9/8fK8/lNWD5OVkS8MntRbr8ODD6cNntTbah5t8dAj//tnD2Z2bT17y8vSOlMdpqweplfbRPHgw2ktHnpk/KTpi/8xdpsK4SUCCCCAgNMFYhoQIyk8PKBkPtsXCJEpESL/41fun/6fFj/75cPhx9mDD6dltRnw8Yi9/5XWxbRleqvHFq9YP37i2//xK7f+Vs7E7Hnbx3bo2V6tHLtg4IzCUY+2bxPypb6jvmxKY7JvdCEyZ2L2/O1jO/bqKIfImZgdXVEdn+owx0qI1CnU0X/e4jcz5y3/w5RZUhkWEEAAAQSSTCCSnBfTbcJ72p4dpUBCpPNC5HfThB8O2/VC51d3jzuxf8LZD4ft8rjaPvhw2gudX/1w2K5+HUaq9XLyetnAjfsnnN0/4ezUpxeoceZxtX3vhc9e6Pzq1pcP7Z9wduvLhzLTu2amd1Uv1cb7J5zdPe5Ez7Y/TBAOGv7KooIP3emZppH6ywdd//tnD7Z46BG1PkyIlJPU87eP66QlvAcfToswREoJ+XtzB0/qbaqJvHx6RPfZW17u+FQHWTNuwUAVIp95MWvh7ldN58rVzGX/V59Wb+lzlsEhsnWH384sGq1KyN+bq89Emijk6D2e7r/8/UJOagsICwgggECSCcQ0IEZSeHhPyXy2LxAinRci/yuty9bRJVtHH0p7uG2Ln7vXDdk5tVdDOhzUaVxDIvx+feeW2VtHH1IRUJ0yXvzc+slPzVfj7JH/99t1Qz7fPfbE71v1afFz99qGEvLUCdzOLbM3jtj7yK/a/OSnv/jp/2kh846z5q8YP2m6fiI75JBtLEQOntR7/vaxmV1b/+Snvxgzf8AM7ZR3hCFSL6H/hB5hLlXMHtl9zvchUs5ij10wcGze8+oyxwG5PX/y019kdm09f/tYdUVjzsTs/L2587eP++0TmVmDH5+/faxc4hkcIqeuGT5l9bCf/PQXwWfhQ4I8+HBaWsu2iwo+HDR8XGMbsB4BBBBAwNECkeS8mG4TXs/27CgFEiIdGSI/HrG3If899EiLX3sm9XhHXew4qNO43WOPq/Xu32SuHbJzcKcfg0v+gA3/GCJ3Dmj30n/8yq2X0Njp7IZz2QUfDhw6JvwwffDhtLELBsosnVpQZ7enrh7+/B+eUhOW7Xo8NmfLy8+8+KSU1uRMZOsOv51RNHrM/AGqhF8+6Jr8wdBxC3KkBH2hQ8/2DeWPfHLq6uHzt4/t1KtjQ4hcMPCVBTnTC0f952Ot1dWKz//hqRmFo1p3+G3DtYy7Xu05tEuLhx5p1e6/pheOGjTxGVWgKUQ+82LWnC1jHnuyYd63seyr10Qtt/i1Z+a85bmTZwa/xRoEEEAAgSQQiGlAjKTw8IaS+WxfIEQ6NURmtRmgBs3kp+avG/K5x9V2UKdxa4fsdP+m4Yxzi197/v0XD/3yQZcMrOAQOeh/Iubkp+bLPTchr4ls277bqrWbc4aNldIaWxi7YOD0j19ytXKrubqX5/WfUTiqS+9OMwpH6eFyoXYvTmNpbOz/nIN+8OG0R9u3mVE4auDrT8txQ+ZO9a5Kfs+Ne2pCfs74/IGDJj0zZfWwga8/rQqUydScidkq4OZMzJ5e+FKrdv8V7GYKkTLHqQ4Upg5ST7UwYdKMWfMLTCt5iQACCCCQHAL/PPJ0JFEvRtv888jT4Rltz45SICEyGUJk/oA/tfi1Z1CnceuG7Hzk//1wZ7RpSN1PiEzPaDghG2GIDL6xpvMzHWcUjuo/oYdKlqYT5ZGHyHH/cwd3w8Rk4Sj9ekS9sY+2y/zj+pGjZvd/adazvYY/MXHl0Cmrh+VMzFan2uXO8XH/cw+QpEm9ELVsV4icNb9gwqQZweWzBgEEEEAgCQT+9fdvxSggRlLsv/7+rfCGkvlsXyBEOjtENjwAcuyJgR1eVtdE3n+IbO3pvHV0yeDHX9FHZOQnZENeE9mqXeaYvAHB99PIIUJO6ekzkS1+7fm+hIZz0w0t/f4Ky3Y9fnxcpRQl05ZztozJeT27Q8/2MwpHzSgclTMxu9eIbgt3vzro+ztyvr8+cuzzr/Vq8WtP5CGyQ8/287ePHTSp4WS3usunsSCr1yfyiwH0vVhGAAEEEHCQwL91+sO/DD/xTxNqI4l9tmzzTxNq/2X4iX97/LUmlWzPjlIgIdKRIXLr6BK5h3pAu5fUaeuQM5HB91xPfXrB9zfW7Ax5OrvFQ48MaDdKFa7fnT1wyMur1m1u8hbjkCHy0fZtft7iN2PmD5Az2uo5jvJAb1n/ysJBptuf8/fmqtul9RIW7v7hEsaQnxx17nv+9rHte7Zr8dAjU1YPW7j71adHdP+PX7l7DOkid2ePmT9AuYUMkYMn9ZZaySPHWzz0yPN/eEqtn7J62Mvz+kcSInv1GbT8/Y/bPBbi0Zsh689KBBBAAAEEbBSQzGf7AiHSkSHy4xF7O7fMVmeH5cLHXz7o+vdfPCTX/Knxp+65lvPIP/npL37e4jemKyZ/3uI3+iMkf/mgS22v353tSf/tooIPm3ze4c9b/Eavg/5SPUJclay2CVM3vcJSNylBr1jwx0y1Th489LNfPizbq+dlqsJ/3uI3at+QboJgopD1P/vlwz9v8RspJLgasqbhxvaJ0+UpSLKeBQQQQAABBOIgYHt2lAIJkU4NkXJjTRzGn7rj5Mlez61at+XpPj/+PmF8Du3oo/xh6uzFoZ6v6ehGUXkEEEAAAQcJSOazfYEQSYhseFpNJH//41fuAS+M4kf8IrFS2/yuQ/fFBesf/W1H0/Rw5CWwJQIIIIAAAvcpYHt2lAIJkc4LkS0eeuTff/4reQz4fY4tS7uHPPNrqYSU2rihp37xECeyU6rTaSwCCCDQ3AQk89m+QIhs7iGyxcNpLSKbKWxuo5b6NClAzzZJxAYIIIAAAvcpYHt2lAIJkc09RN7n0GF3BBBAAAEEEEhlAcl8ti8QIgmREV0QmcofP9qOAAIIIICAcwVsz45SICGSEEmIRAABBBBAAIGkFZDMZ/sCIZIQmbQfG+f+q5GaI4AAAgggYJeA7dlRCiREEiIJkQgggAACCCCQtAKS+WxfIEQSIpP2Y2PXv+EoBwEEEEAAAecK2J4dpUBCJCGSEIkAAggggAACSSsgmc/2BUIkITJpPzbO/VcjNUcAAQQQQMAuAduzoxRIiCREEiIRQAABBBBAIGkFJPPZvkCIJEQm7cfGrn/DUQ4CCCCAAALOFbA9O0qBhEhCJCESAQQQQAABBJJWQDKf7QuESEJk0n5snPuvRmqOAAIIIICAXQK2Z0cpkBAZ1xD5+O972jUmKAcBBBBAAAEEEAgv8HTv/pL5bF8gRMY1ROYtzA/f2byLAAIIIIAAAgjYJbBoyXLbs6MUSIiMa4isr6/PeqqvXSODchBAAAEEEEAAgcYEuvfoXV9fL5nP9gVCZFxDpGEYtbW1b02f06lLVmNdznoEEEAAAQQQQOB+BDp2fvKt6XNqa2ttD456gYTIeIdIXZ9lBBBAAAEEEEDAoQKESEKkQ4cu1UYAAQQQQACBRAoQIgmRiRx/HBsBBBBAAAEEHCpAiCREOnToUm0EEEAAAQQQSKQAIZIQmcjxx7ERQAABBBBAwKEChEhCpEOHLtVGAAEEEEAAgUQKECIJkYkcfxwbAQQQQAABBBwqQIgkRDp06FJtBBBAAAEEEEikACGSEJnI8cexEUAAAQQQQMChAoRIQqRDhy7VRgABBBBAAIFEChAiCZGJHH8cGwEEEEAAAQQcKkCIJEQ6dOhSbQQQQAABBBBIpAAhkhCZyPHHsRFAAAEEEEDAoQKESEKkQ4cu1UYAAQQQQACBRAoQIgmRiRx/HBsBBBBAAAEEHCpAiCREOnToUm0EEEAAAQQQSKQAIZIQmcjxx7ERQAABBBBAwKEChEhCpEOHLtVGAAEEEEAAgUQKECIJkYkcfxwbAQQQQAABBBwqQIgkRDp06FJtBBBAAAEEEEikACGSEJnI8cexEUAAAQQQQMChAoRIQqRDhy7VRgABBBBAAIFEChAiCZGJHH8cGwEEEEAAAQQcKkCIJEQ6dOhSbQQQQAABBBBIpAAhkhCZyPHHsRFAAAEEEEDAoQKESEKkQ4cu1UYAAQQQQACBRAoQIgmRiRx/HBsBBBBAAAEEHCpAiCREOnToUm0EEEAAAQQQSKQAIZIQmcjxx7ERQAABBBBAwKEChEhCpEOHLtVGAAEEEEAAgUQKECIJkYkcfxwbAQQQQAABBBwqQIgkRDp06FJtBBBAAAEEEEikACGSEJnI8cexEUAAAQQQQMChAoRIQqRDhy7VRgABBBBAAIFEChAiCZGJHH8cGwEEEEAAAQQcKkCIJEQ6dOhSbQQQQAABBBBIpAAhkhCZyPHHsRFAAAEEEEDAoQKESEKkQ4cu1UYAAQQQQACBRAoQIgmRiRx/HBsBBBBAAAEEHCpAiCREOnToUm0EEEAAAQQQSKQAIZIQmcjxx7ERQAABBBBAwKEChEhCpEOHLtVGAAEEEEAAgUQKECIJkYkcfxwbAQQQQAABBBwqQIgkRDp06FJtBBBAAAEEEEikACGSEJnI8cexEUAAAQQQQMChAoRIQqRDhy7VRgABBBBAAIFEChAiCZGJHH8cGwEEEEAAAQQcKkCIJEQ6dOhSbQQQQAABBBBIpAAhkhCZyPHHsRFAAAEEEEDAoQKESEKkQ4cu1UYAAQQQQACBRAoQIgmRiRx/HBsBBBBAAAEEHCpAiCREOnToUm0EEEAAAQQQSKQAIZIQmcjxx7ERQAABBBBAwKEChEhCpEOHLtVGAAEEEEAAgUQKECIJkYkcfxwbAQQQQAABBBwqQIgkRDp06FJtBBBAAAEEEEikACGSEJnI8cexEUAAAQQQQMChAoRIQqRDhy7VRgABBBBAAIFEChAiCZGJHH8cGwEEEEAAAQQcKkCIJEQ6dOhSbQQQQAABBBBIpAAhsvmGyNt37vR7tr/L7XG5PSUlJREOk7q6ukWLl7TMaNXp8S5//nNxIBCIcEcbNzt58lTvPn3T0jMmTZ5y584dG0umKAQQQAABBBBoJgKEyLiGyLPnznXu0lXlwsb+27lL17PnzhmGEV2IPH36mw4dO6nCc3IGV1RUxHmo3bt3b+bMWdK6z7ZujXMFAoHAxYsXZ82e82RWT1WNdu07TnvjzdLS0oRE6jg33+rhqqqqiov3Tp8x849/fNvr9Vrdne0RQAABBFJWgBCZbCHS6/UuXLRYzURu374jIbHp+PHjaiZy/ITcW7duxfPT5fV68/IWpKVnSIqVBUnn8axP8z9WYWGRIsrNfY0Q2fz7ixoigAACzUeAEJlsIbL5jK3418Tn8y1evERSo2mBEBmyRwiRIVlYiQACCCDQpAAhMq4h0tQf8+bnqaAzb36e6a2oT2cHl5M6a4qL98oc5MgXR3399dc+n88wjLt37x45cmTGjFnnzp0P1pAUVVhYFPyuvqakpCRMf+lbOmhZms9MpIN6japQVlrTAAAgAElEQVQigAACzUGAEOmAEJmWnnH48N++/vrrseNeaZnRKi09Y+iwESdOnNQHUMirLUNmU7WX1+vdum3bsOEjMtu0dbk9LTNaDR024osvvrifE5qSiWUKMMzkn9/vP378+OQpU7t0fUJt3+vp7FWr3isvL9fbFflydXX1mLHjVFGjR4/59ttvI9xXUlT8Q2STvSBXuP7usfanTp0ytejSpcvdume53J5u3bMuXbpsGIa0ZfPmLZWVlcuXFyjedu07vvvuSulc/XJb6SzTgilTVlVVffrpZ2PGjmvXvqPasl37jq+On3Do0GG/368qVlVV9fLLY9W7r0+cVF1dLRW+dOlyj569XG5PZpu2Bw4elPUsIIAAAgg4V4AQ6YAQ2enxLkuW5Ku0J9/0HTp2Onnyx1RhKUSWlZUPHTZCitIXmgxSYcZ65CHS5/PlL10ms4Z6BUzZJczhTG+dOnXqd4+1d7k9aekZX365z/RumJcSvJpsu70zkZH0Ql1d3eQpU5XPmjVrTa2Qmk+eMvW7LfUQ+dbb0/v2e06Hdbk9M2fOUlOzVkOk1+vNzX3NVJp6mZaekb90mSrWMIwzZ86oXJuWnvHJ5s2qwj6fT+61Wrx4iWxsag4vEUAAAQScJUCIdECIDPnl7XJ7Zs+ZK9/HkYdIn883e87cxspsMkiFGd+Rh8gvv9wXMkG63J6oQ+SOnTtVo/r07Wfpbh6JYk223cYQGXkviNXQocMrKyvFX2Ze9dAsbQnZvx06djp9+hvTlRIhtzR1RJgQ6XJ7pFjDMAKBQFHRJtW5PXr2UvOj+/btf7R1psvtGfzCEEtdI41lAQEEEECgGQoQIh0TIsdPyC0rK6urq1u4aLH64u8/YGDIJ/hIkgh5OlufhSou3qvORdbX11+6dHnFuyu3b99x/8NUDtHY6WyJmzNmzKqvrzcMw+/337x5c8fOnQsXLZazrpZqIq1+dfyEmpqayPeVHeMZIoXI5faE74WysrI+ffu53J5HW2ceO/aVtEtmXge/MESGgbRFnTje+fnnPp/v9Olv1Oygy+3ZvHmLlKAWZJcw8d3r9c6aNXvjx4XXr19X/27x+XyHDh0OWazX6500abIaojNnzrpx48bgF4ao+hw9esx0dF4igAACCDhXgBDpjBCZkzO4rOyHiwWPHftKzev0e7b/7VCP8pZYEDJEVlZWDh06XH3Hj3xx1OnTp+WaNrvGsSSkxkJkQcEKVYHOXbru/Pzz6FKjqbYSTMOEIbVLyFlbVR/5r6q5NETWh1yI/FHwUufIeyEQCCxfXqCOW1CwQkoQw/Xr/yQrpeu/mwssKtqkHvBUX18/bdobqoTgoCy7NOkmR1ELgUBg7tx3QhYrV0A+2jrzuf4D1DZr161LyAOnTNXmJQIIIICAXQKESGeESP1eBMlA0YXIQCCwdt069b2u/tuufcdZs+ccPXpMTo7f5/CS7NVYiDx58pQ8EV3d1jN69Jhdu3ZXVVVFfWgJVU2GIQHUEUzLsQ6RlnpBbq+RM9oVFRVqek9uqVFukghN07GSsKMOkYFA4PLly/n5S9UTQE1cwcXKKWy15fgJufp9NlH3MjsigAACCDQfAUKkM0KkPtclGSi6EGkYhs/n27TpE7nNVgJB7z59v7tj+v5HZ5Mh0jCMEydOPj8wRw6tFjLb/P/27v05ijrf/7ie7w/6H1glVayLwQTIWglJzAKCCCQgFyFyCQEVSMIuIbABwiURAwEVCZdzSLgYJeyqBJGDGlbYlXjBOuJ+XavQgxdwWVApQS1Aj1k4IZOEyXydfPDN59sz6UwmPT3TnWfKsnq6ez6Xx3xCXvl0fzrDX3nl1fCyrOSnTu+JFEBD7frLSIfILn0Ksrxm8JChx48f9/l8x48fV7PR+n2x+sIaQ5LuZohsbW19/oUXO7qNNSk5JTBENjY2Fi9dJqTvvvtu98cVJSCAAAIIxJQAIbInhkg1BFtaWo4fP75x02Y9TcpiiO4M01BCpLoP8vz587t31+bMmClpIzUt/c033wqj9mPHjqmUI0krxEIkfQYmIUMJFi6skZJD/BTeOHxYEe3cWeP1equqtqq7JFWmlNKkL9aGyDfffEvZznz40eOffCIpv6Nsqi+vUc3W78eQ1rKBAAIIIOBoAUJkzw2RMnBbW1vfevtteYTQe+8dlUPhbYQYIqXwtra2r7/+etbsXBU41ldskJgi53S6ceHChezsHFVCly6eSvCKSoiUfpl/CrK8ZsbMhz/77DO11Eaubksh0pfQQ+TBg4cUmuEKuJTZ2tq6vmKDOkcnamxsXFFSGrjf5/OdPn1a/Y34efPmb9y4SZ1TVbU1jI9VmsEGAggggECsCRAie1yIbGhoWLfu6XfeOXLp0iX1Q11luClTs9UPextC5Asv7t69u/abb87JkprGxsYnnnxKNSC8EKkvQElKTtH/Ys3ly5c/+OCDVatWx85frOnqp6D37g9Fi9S8oL6kRv3LEkaIlOnVocOGH33//cBVVh6P5/GyVeqjeWzl4w0NDV6v95NPPtXvRtDD5cWLl/Ly5qqJ0r9/+OHFixfVrwdhzzHH2j+atAcBBBBAQAkQIl0SIuXCovphH/h/uatSpgkDz9H/9klXv0M6vdFQnxszb+0bhw93tXZ1vsSXoF3raJWPBC89CQVtgOStoMveg76lo51hfAryTB/VO8OSGlWR9EXX9vl8Ah7YR1m1Y0DTS5BFS4Zz5KUUq//5cnm2uVwNf3Bi1pkzZzoyYT8CCCCAgLMECJGEyBSJAkOHDX/j8OHwnsNiVYisqNjYnWW858+fV8uWpVOy4ZQQ2dGnIE8XVz0yLKlR/+6EESL12CdWhoeNf/XV1/JISDln5KhMeWq9hEjJi/rNtfqTIw1/DtFZ/1zSWgQQQAABXYAQ2eNCZFtb23fffbd7d+2c3Lx70gepvxOYM2NmdfWz3377rT44urTdpRB55cqVd945skT7Q8xjx01YXb5G/0PMXapdP7m5ufno0aNSeGpauurduXPnwsvHeuFWbYf3KcjymqHDhgd9cHcYIdLn8zU3Nx8+XD+voFCNBxUT9ZlIn8/33XffrV37hLpxduy4Cdt3PPPDDz/I1KwKkfI3D5OSU16rq9O19Yc68cBIq0YR5SCAAALRFSBERjNERvezp3ZnCXi9Xrms/MSTT6k/lu2sLtBaBBBAAAE3CRAiCZFuGs+u7cuVK1eefW6nWk/zwNhxp0+fdm1X6RgCCCCAgEMECJGESIcM1R7ZzMD1Nz/nSPl7hj2ShE4jgAACCMSKACGSEBkrY5F2BAoYQmRqWvrzL7zI0xYDodiDAAIIIGC/ACGSEGn/qKPGUAUaGhrUQxZHjspc+8STp0+f1lerhFoK5yGAAAIIIBABAUIkITICw4oiEUAAAQQQQMDtAoRIQqTbxzj9QwABBBBAAIEICBAiCZERGFYUiQACCCCAAAJuFyBEEiLdPsbpHwIIIIAAAghEQIAQSYiMwLCiSAQQQAABBBBwuwAhkhDp9jFO/xBAAAEEEEAgAgKESEJkBIYVRSKAAAIIIICA2wUIkYRIt49x+ocAAggggAACERAgRBIiIzCsKBIBBBBAAAEE3C5AiCREun2M0z8EEEAAAQQQiIAAIZIQGYFhRZEIIIAAAggg4HYBQiQh0u1jnP4hgAACCCCAQAQECJGEyAgMK4pEAAEEEEAAAbcLECIJkW4f4/QPAQQQQAABBCIgQIgkREZgWFEkAggggAACCLhdgBBJiHT7GKd/CCCAAAIIIBABAUIkITICw4oiEUAAAQQQQMDtAoRIQqTbxzj9QwABBBBAAIEICBAiCZERGFYUiQACCCCAAAJuFyBEEiLdPsbpHwIIIIAAAghEQIAQSYiMwLCiSAQQQAABBBBwuwAhkhDp9jFO/xBAAAEEEEAgAgKESEJkBIYVRSKAAAIIIICA2wUIkYRIt49x+ocAAggggAACERAgRBIiIzCsKBIBBBBAAAEE3C5AiCREun2M0z8EEEAAAQQQiIAAIZIQGYFhRZEIIIAAAggg4HYBQiQh0u1jnP4hgAACCCCAQAQECJGEyAgMK4pEAAEEEEAAAbcLECIJkW4f4/QPAQQQQAABBCIgQIgkREZgWFEkAggggAACCLhdgBBJiHT7GKd/CCCAAAIIIBABAUIkITICw4oiEUAAAQQQQMDtAoRIQqTbxzj9QwABBBBAAIEICBAiCZERGFYUiQACCCCAAAJuFyBEEiLdPsbpHwIIIIAAAghEQIAQSYiMwLCiSAQQQAABBBBwuwAhkhDp9jFO/xBAAAEEEEAgAgKESLtDpMfjefLpjZkPTEpITOU/BBBAAAEEEEDAcoHRY7PWrd/s8XgiEB1vFEmItDVEHv/kszHjJ1s+VigQAQQQQAABBBAwCIydMOXEyX/cCH1WbxEibQ2RVduqDR8wLxFAAAEEEEDA6QK3j1l56/wTN5d4blrps+e/m0s8t84/cfvox8zptu14zuroeKM8QqStIZJpSPOxzlEEEEAAAQQcJ3Db+HX2BMegtdw2fp2J2LScWTdCn9VbhEj7QmRTk6ffb9JMPmkOIYAAAggggIDjBG5ZcCpovLNn5y0LTpmIJafd6/V6rU6P18sjRNoXIn0+n8nHzCEEEEAAAQQQcJxAfOI9/7b8ij15MWgt/7b8cvxv0k3cIpQgfT4fIZIQySJxBBBAAAEEEAhfIGi2s3OnSYJMSEwlRHZLoE378rZ/XWv/am1t9UfIlpbm5maPx9PU/nX16tVuVWb6ZvOPmaMIIIAAAggg4DgBO/Ni0LrMxUyDSbcOMhNJiAz/dy/zUctRBBBAAAEEeoJA0GBn505z5G7lRNM3EyIJkYRIBBBAAAEEEAhfwM68GLQuQqRk3Ztky6oN7Wp2G5ezzYcaRxFAAAEEEECgSwJBg52dO81ba1WaCiyHmUhmIsP/3ct81HIUAQQQQACBniBgZ14MWpc5cmD4s2oPIZIQSYhEAAEEEEAAgfAFggY7O3cSIiUWczk7/HFsPow4igACCCCAAAKWC5jnxUf2+y57/CHnssf3yH7/H0Vce8TXfO3GnhG7fCcu+D769saeR/b7LjX6T7tppf8t5/91/Y0dVWTeIwlYlm8wE8lMJJkVAQQQQAABBMIX6Cjb3bTSN2KXPwLWHLvxB7VH7PJ9+eP1gPj2GX98VOecuOA/R+1RG2+f8e+pOebfaVLFTSs7+VMmlmdHKZAQSYgM/9vG/FcfjiKAAAIIINATBEwS3toj/sg4YteNFKjveWS/P0Qu+euNWClH1x7xz03etNL/fzUlaVKLObJkPss3CJGOCJEp8QOIegiEL9A+flLM/5XhKAIIIIBAeAIm8U5CoZyj7wkaIlV2VNe41xzxvX/2RgCVQgwb5s22PDtKgYRIR4TI8NOD+cDiaI8SiE9kICGAAAIIWC9giHT6y8DL2fr9jnI5Wy5wn7hw4+K1OqpfCtdL1rfNf5ZJ5rN8gxAZ2yFyQErCACaQrP+GN/9+c+vReMYSMRoBBBCIgICe5wK3Dcto9IU15//lv9KtgqZKeOrOSFXI2iP+5TVqLU5gsfoe8x9blmdHKZAQGdshMgJj3XyocRQBBBBAAAEEuiSg57kwtvWlNvrbQ1lSo843b61kPss3CJGESOb5EEAAAQQQQCB8AT35hbEdGCLV5KWapwylQEKk5GOeExn+ODYfRmmDRjyza9/cwmXmp8Xm0SEZ9204sGjNnsLRUzMr65cu25YfRjvX7CmsPlpafbRUf/v0hVnbjiyvPlpaWb909NTMMIq15C1B26aXPHdVzoYDi4Zk3GcJhV4y2wgggAAC3REIJedF9BzzxkvAsnyDmUhXzUTOLVz2zK59aYNGBB1Pab+9f3vNy3kFxUGPRnqneds6rX3wqGEVdUXltQWZUzK21BcXb81NSEyduypHT36Gl4Fl9umb2Kt33OoX56m3qxPu6pfc+9fxWXPHbDq0OHNKRuC7zPdMX5i1+S9L9PQ5fWHWuv1/GJJxn/kbDUeDtk0/J68su6KuaPCoYUEp9DPZRgABBBCwUyCiATGUws07a3l2lAIJka4KkXkFxdtrXk777f1Bx1N0Q6R52+7NWTbjT6cGZkzXWz4wY/qMP526N8c/dRo/IKW8tqC4as7gkUPX1xXlPj4tITE1ryx7S32xJD/DS70ofdtfTnsG1XdmL5i4OawQmb1gYmV98fQFk6S07AUTn9q3YPCoYbIn9I2gbVNvlxAZlCL0KjgTAQQQQMBagVByXkTPMe+OZD7LNwiRjgyR92dMfGHvof2vv7v/9XfV1OO0Gfl7XnlT7VH/f2HvofszJiYkpuon73/9XZmJVPs3Vf3RMPgeW7NpzytvTpvx/10vnlu4TAp/bM0m9ZbH1mySneoq+f0ZE2terJP3bqr642NrNpm0TZUzomDjnLqfhuU/Fd9/oDTm3pxlj+77fszKvXf1S1Y7+/RNvDP+7vgBKXfE9e+bkGQeIueuylFXrrcdWT59YZYUm5CYGjSoBYZIucxdfbR0zZ5CvQR9O2PyqE2HFmcv8FOr//LLpqspQ3XlXTVDXYlWs6cbDiyatXyauoZuKDmwbcu25asSqo+WqmITElMDKVTVHX2m0jY2EEAAAQQsF4hoQAylcPMeWZ4dpUBCpCND5KbKXSvKnu7VO65X77g74vrHD0hR12QfzVu4fefe/ompvXrH/apPQnz/gWmDRuzYtU+d3D8xdfvOvRIih4+c8PxLBzdsqTEMvpLVFXteqZ8y3X+9WP03t3DZnlfqJ2TNUDXeGX+3PwwVLnt+78F7Bo/o1Tvu0byFe16pnzYjf/jICTtfeE3eu2FLTcnqio7apgoft3r/o/u+T5lUqHKh2qli5b15T6q6pCWGDcPUo7ycvjCrsn5p1twxvXrHzS6drF/yDjFEqvw3u3Ryr95xQ8cNqawv1m+j1JuROSVjc3uIlKvYeWXZ5bUF/ovOBxYtqZzdq3dc0qDkirqiNXvmq+Cr7r+8b8LQrLlj/LOYWsY1hMj2C/TFQ8cN6dU7blbJQxIi9Qbo2x19pvo5bCOAAAIIWCsQSs6L6Dnm3ZHMZ/kGIdKRIXLDlpodNUHufQy8ZJw/f9n2mpeT04YmJKYaLmfH9x/4qz4JffomGgbfnfF39/51vMz/SQyVPf6ifsmmau6wb0LShv/YWVq+IWiIVOUHti0hMXXylqMz95ztf+8EvfCgsdLQyOtllmXLLJ3aUFe3l27NW1I5W5X52xFD1tcV5a+6caHcENRUUYaZyGVb89bXFf12xBD/lfT+A+c8NqWirijobY6DRw6tqCvKL5u+dGte+6znJBUi8/33axaPfMh/f2r8gJQpBeM2H/LfOplXlr31neWT542N7z9w0Mh7/W0rC962IRn3VRxYNOexKQpZLmcHpVA7O/pMTd7CIQQQQACBbgpENCCGUrh5+y3PjlIgIdKRITIpZcj2mpfVpWR9tXVgUNP3GEKk+ZiTo8NHPfj8Swdz5y2RPZJH9Z1q0rFLIXJgxvSZtWdn1p5NHum/wVH995tBo7Of+/TRfd8Pzu58AZB/6vHw9Yk6NVenQmR5bYEhXOaVZUsVoYTI4q255bUF8nRukwCnlrnklWWXVOcvqJi5dGve0q25xVVz8sqy19cVDR7pj+8JiakSUtv3/2HQyHtVuJRL8+o0vW1Ssjpk0gbpGhsIIIAAAvYLhJLzInqOeZcl81m+QYh0ZIhU9wX26h03IWvGnlfqJUfqkVENKX1PeCEyLX144JpuVVTp6g2qFv/EZM3LJasruhQi1bTZmJUvPbrve7V6RnLVvXlPzqn7aUTBRvNvDLl+fb2zv6yzKa8tWLxllrr4rv6vXyvXg5qULyFP7SnemqtPPS5tfxl0rYxa5lK0aVZJdf6oh0aW1xaUPJtfvDU3ryy7sr4485dnBuWXTfe/nJJhngX1thEi5dNhAwEEEIhlgVsWnIpoRjQv/JYFp8xxLM+OUiAh0pEhUobLfSPHP//SQbnNccr03Of3HpqqrYnR92yq2hXGwpr4ASkrVq1/fu9BtUxHVW3YmT9/2fMvHRx6/1h1T15+wdKExFS17KZkdYV6i94SaX9CYuqd8XcHRsa+CUkpkwof3ff9uNX79ZMN2x2FyNyVUwPX08h79aAmOw0hcmrhg9uOLM9flZOQmNp+f2TxnJVTZWJS3qU2ymsLNh9aolaOP7Vv4VP/ubB4a+6oySO31Bcv25qXkJiqLkwvqZwd339g6CFSxdM1tf47KdUqn07viVQLa0we82RoOS8RQAABBLovcNv4deY5L6JHbxu/zrwLkvks3yBEOi9EGlZbryh7WqbZ7uqXvKLsaX11tr6nZFVFxX88J4mzo0UYgQtr7oy/W4rd//q7anW2vnPPK/WTpjwS339gfP+Bs39XpBqwsbKm4j+ekxCpt0RWjqtxryKj4RE/d/VL7n/vhJxfHvET9DukoxDZNyFpdulkuaKtFtboa6XVIbVWRl/+LI8cv6tf8kO/H6sWUFcfLV1SOVuQA1tSXluw7cjyqYUPxg9IKa6aU320NPfxafH9Bw5/cFhlfbGqq7y2QC0SChoiO2rbiEnDVQmV9Utnl07u9MlBatp4zyv1+i8SgQ1mDwIIIICAtQK3j37s1vknbi7xRDQv6oXfXOK5df6J28es7LQjlmdHKZAQ6bwQqa4Cy7Vaw/rlO+PvVofU6mw11af23Bl/d5++iRKGOlqEYVhYo0anFNurd5zUKDv1hTh9E5JUdX36Jqon0cj4lvOlbXLorn7Jd9zZT3/Ej1rRcsed/fQ1N3K+2uibkKQXpb+UZshCdYObdERaZXBTi8qFzlC1/rJP30QRUKUpZL1GWcDUNyFJLajXS9DP1GuU/b/qk9A3IenXcQM6mg1VpcUPSNmwZef2mr2p9wzXy2cbAQQQQKDHCkjms3yDEOm8ENljvw3ouLmAepbnjpqX7x44yDxrmpfDUQQQQAABNwlYnh2lQEIkIfL6smg3fcP0zL6oydfAac6eqUGvEUAAAQSUgGQ+yzcIkYRIQiQCCCCAAAIIuFbA8uwoBRIiYz1Exiemxv/yDEV+qUKgOwIMpO7o8V4EEEDAoQKS+SzfIETGeoh06JCl2QgggAACCCAQCwKWZ0cpkBBJiHTtBH4sfOvSBgQQQAABBKIrIJnP8g1CJCGSEIkAAggggAACrhWwPDtKgYRIQqRrv22i+5sftSOAAAIIIBALApL5LN8gRBIiCZEIIIAAAggg4FoBy7OjFEiIJES69tsmFn7/ow0IIIAAAghEV0Ayn+UbhEhCJCESAQQQQAABBFwrYHl2lAIJkYRI137bRPc3P2pHAAEEEEAgFgQk81m+QYgkRBIiEUAAAQQQQMC1ApZnRymQEEmIdO23TSz8/kcbEEAAAQQQiK6AZD7LNwiRhEhCJAIIIIAAAgi4VsDy7CgFEiIJka79tonub37UjgACCCCAQCwISOazfIMQaWuIHDN+ciyMJ9qAAAIIIIAAAj1BYFrOLMuzoxRIiLQ1RFZtq+4JQ5Y+IoAAAggggEAsCGx/ZqdkPss3CJG2hsiWlpasKTNjYVTRBgQQQAABBBBwt8DEh3JaWlosz45SICHS1hDp8/k8Hs+69ZtHj81y98CldwgggAACCCAQLYHMByatW7/Z4/FI4IvEBiHS7hAZiU+RMhFAAAEEEEAAAZsFCJGESJuHHNUhgAACCCCAgBsECJGESDeMY/qAAAIIIIAAAjYLECIJkTYPOapDAAEEEEAAATcIECIJkW4Yx/QBAQQQQAABBGwWIEQSIm0eclSHAAIIIIAAAm4QIEQSIt0wjukDAggggAACCNgsQIgkRNo85KgOAQQQQAABBNwgQIgkRLphHNMHBBBAAAEEELBZgBBJiLR5yFEdAggggAACCLhBgBBJiHTDOKYPCCCAAAIIIGCzACGSEGnzkKM6BBBAAAEEEHCDACGSEOmGcUwfEEAAAQQQQMBmAUIkIdLmIUd1CCCAAAIIIOAGAUIkIdIN45g+IIAAAggggIDNAoRIQqTNQ47qEEAAAQQQQMANAoRIQqQbxjF9QAABBBBAAAGbBQiRhEibhxzVIYAAAggggIAbBAiRhEg3jGP6gAACCCCAAAI2CxAiCZE2DzmqQwABBBBAAAE3CBAiCZFuGMf0AQEEEEAAAQRsFiBEEiJtHnJUhwACCCCAAAJuECBEEiLdMI7pAwIIIIAAAgjYLECIJETaPOSoDgEEEEAAAQTcIECIJES6YRzTBwQQQAABBBCwWYAQSYi0echRHQIIIIAAAgi4QYAQSYh0wzimDwgggAACCCBgswAhkhBp85CjOgQQQAABBBBwgwAhkhDphnFMHxBAAAEEEEDAZgFCJCHS5iFHdQgggAACCCDgBgFCJCHSDeOYPiCAAAIIIICAzQKESEKkzUOO6hBAAAEEEEDADQKESEKkG8YxfUAAAQQQQAABmwUIkYRIm4cc1SGAAAIIIICAGwQIkYRIN4xj+oAAAggggAACNgsQIgmRNg85qkMAAQQQQAABNwgQIgmRbhjH9AEBBBBAAAEEbBYgRBIibR5yVIcAAggggAACbhAgRBIi3TCO6QMCCCCAAAII2CxAiCRE2jzkqA4BBBBAAAEE3CBAiCREumEc0wcEEEAAAQQQsFmAEEmItHnIUR0CCCCAAAIIuEGAEEmIdMM4pg8IIIAAAgggYLMAIZIQafOQozoEEEAAAQQQcIMAIZIQ6YZxTB8QQAABBBBAwGYBQiQh0uYhR3UIIIAAAggg4AYBQiQh0g3jmD4ggAACCCCAgM0ChEhCpM1DjuoQQAABBBBAwA0ChEhCpBvGMX1AAAEEEEAAAZsFCJGESJuHHNUhgAACCCCAgBsECJGESDeMY/qAAAIIIIAAAjYLECIJkTYPOapDAAEEEEAAATcIECIJkW4Yx/QBARGx6BAAACAASURBVAQQQAABBGwWIEQSIm0eclSHAAIIIIAAAm4QIEQSIt0wjukDAggggAACCNgsQIgkRNo85KgOAQQQQAABBNwgQIgkRLphHNMHBBBAAAEEELBZgBBJiLR5yFEdAggggAACCLhBgBBJiHTDOKYPCCCAAAIIIGCzACGSEGnzkKM6BBBAAAEEEHCDACEydkPk//z008OPzEpKTklKTjl27FiIw625uXn7jmfuSR80eszY//qv99ra2kJ8o4WnnTz5Rc6Mmalp6atWl//0008WlmxVUXV1BxRsaenKpqYmq4r98quvHhg7TpUs/99SWRW0/C2VVXKO2nhg7Lgvv/oq6MnsRAABBBBAINYECJG2hsigIaOjJBFeiDx16p8ZmaNVmXl5cxsaGmwec9euXduwYaN06q9vvGFzA0KpjhAZilLY57S1tX333XcHDvx58ZLiQ4f+EnY5vBEBBBBAIJYFCJFuC5FNTU3btu9QM5H19W9GZSby888/VzORK0pKf/zxxxj8BiBERvRDaWpqKi1dqX6RqKs7ENG6KBwBBBBAIFoChEi3hchojSRn1RuhEKkjSBUdXc6Wk2XK2TWXswmR8uGygQACCLhYgBBpa4g0jCS5Ky5ozpBs0aV7Ig1V8DKogCQ8a++J1OuSKoJ+uPqZ8kETInUWthFAAAEEYlyAEOmAEJmalv7xx//9j3/8o3jpsnvSB6Wmpc8rKDxx4qQ+toLebWkSX5qamt44fLhgfuHQYcOTklPuSR80r6Dw3Xff7c4qE8nEckOkSSryer2ff/756vI1Y8dNUOdPnZb9/PMvXLp0Se9XV7dDLFYS3uNlqxoaGmpr9zw4MSspOWXkqMw//vFPgQhtbW0nT36xbPkKxTVyVObyFSUnT35hcreAVGHyKajeWR4ir1y58vLL++bk5t2TPigpOWXosOHLlq84duxYa2urqlFunL1/xKgvvvjCgPzNN+eUxoMTs7755pzP55O+HDx46PLlyzt31qhPzcB17Ngx+eg72tCvbre1tZ07d65m1x+lqUnJKZOyJldVbf3222+lVVeuXFm8uFgV+HjZqsbGRjn0zTfnHpo8VfXx7x9+KPvZQAABBBCwQYAQ6YAQOXrM2GeeqVbxRX42Z2SOPnnyxo//LoXIixcvzSsolKL0Df1nfFfHX+ghsrW1tfrZ51LT0vWq1XZ3pgZDL1ZSUeljK1eUlBqasWHDRslbPp+vo2JT09Krn31OP1MXkypsDpFffvmlylWGTunz2c3NzavL16gT9ux5SW+2HhlXl6/5+Ux9z7qn1898+FFDycLV1RAZdNCqwkeOytRD4ZkzZ1SuTU1Lf/3gQdXg1tZWWcK1Y8czHX0Qht7xEgEEEEDAKgFCpANCpOFntrzctPnf5Qdn0J/HQeNLa2vrps3/LoUYNuwJke+//7egCTIpOaU7ITL0YiXhGbqvXmZkjj516p/qe6ytre3AgT931NrUtPQ333wr6HejVBH0U9DfYuFMZGNj45LipUE7pYdIn88nVvPmzb98+bK0R0pITUt///2/qf3Sl6AlC5eFITIpOWVJ8VKZdNQ/hYcmT1Xzo3/72/8dPGRoUnLK3N/9PjbXb4kqGwgggIArBQiRjgmRK0pKL1682NzcvG37DvWzfNbs3KBP8JEf+UHji0SWpOSU99476vV6fT5fS0vLN9+c2/XHP9XXv9n9gS5VdHQ5W+YsKyo2trS0+Hw+r9f7ww8/vPnWW9u27wi8mhxik0IvVojUldC33n67tbX11Kl/qumupOSUgwcPqUovXrw4Y+bDSckpqWnpL+3dq2LNxYsXZf6yo9QrVQT9FPQedcqln2y+Lb9LjB4z9vPPP1dX25uamk6d+ueWyqrjn3wib5d+DR4y9NNPP5P9X3zxxf0jRqlkJqNL+tIplyonxIU1X3319apVqz/44IOGhgbV1MbGxpf27lWRffyEiWfPnpWGNTU1rVq1Wo38DRs2XrhwYe7vfq/a88knn8ppbCCAAAII2CZAiHRGiMzLm3vx4vWbBT/99DM1AfPwI7P+J9ijvOVHftD4cvny5Xnz5qsfxgsWFp06dUrlSAvHXKepqKZml2rAA2PHvfX222GnRkObQy9WiH7OKwcO/FklmJaWlrVrn1ANkxnZ9947qvbItV1V6ZkzZ0aPGZuUnJKdnXPhwgVDS/RLwEE/Bf38Trn0k823z58/n/XQZNXgtWufOHfuXEd3bba1te3cWaPOrKnZJcWK4b59/yk7Q+dSbwkxREr5+saPP/6oUnvgbyByB+TgIUMfnTVbNf6lvXs76qNeLNsIIIAAApYLECKdESL1+8Nktim8ENnW1vbS3r3qB7D6/8hRmRs3bf7kk0/l4ng3x1mnqejkyS/kiehqWc+iRUveeefIlStXulN16MVKKlq+ouTq1atSqcxlSoiUUKWL6duBWUeVJlXYGSL12wRVIx+cmFVd/ezp06cDf1WQ5TVyRbuhoUFN78mSGkNfOuVS54ceIltbW3/+a0z6+iqxDQorl7DVaStKSuWSt3yIbCCAAAII2CNAiHRGiNT/7GE3Q6RaKfLnP78+clSm/MBWGzkzZv68Yrr7I6/TEOnz+U6cODknN8/QgKHDhr/yyqvdybIhFisJz3AxOjBEyh5DU+Vl1kOTz58/H4gmVdgZIn0+X1NTU03NLrUuWxqZlJxSML/Q0E5ZXjN4yNDjx4/7fL7jx4+rSW79dlt9VrVTLuUQYoj88ccfFy1aojdS3w4aIhsbG4uXLpPT3n333UB59iCAAAII2CNAiOyJIVKNrZaWluPHj2/ctFlPk7JqoTvjL5QQqe6DPH/+/O7dtTkzZkosMFmqEmKTvF5vp8VKwus0FUmI1K/5htISqcLmEKna1tjY+MEHH6xaXa4v6p9XUCi3OarT3jh8WMnv3Fnj9XqrqrYmJadIppRuSl865VJvCSVENjc3P/HkU6r2J59a9/3336ur0iaDR19eo96o3+YhrWUDAQQQQMAeAUJkzw2RMsJaW1vfevttSRvvvXdUDoW3YZIDghbY1tb29ddfz5qdq5LB+ooN3ZmMlCpMig09Fb366muqVYEJTCoKuiFVRCVESpOamppkqUrgUyFlec2MmQ9/9tln6mZEubothUhfQgyRHo/n8bJVyu3VV1+TcvSNCxcuZGfnJCWnGGYcT58+/cDYcYH7fT6fHJo3b/7GjZtU+VVVWy0ZLXrb2EYAAQQQCEWAENnjQmRDQ8O6dU+/886RS5cuqZ++KmxNmZqtfirbECJfeHH37t2133xzTpbUNDY2yrxU2CEy9GJDT0Vy42BScsrixcVfffW1QpMlz4cO/SXod5pUYWeIPHv27PqKDR988MH//PSTugnS6/V+/PF/qwXXgSFSX17zh6JFalm0vqRGdU36EmKI9Pl8MoOblzdXf3K4WJ09e3b8hIlq2furr77W2tra1NRUV3dA5sUN4fLixUt5eXPVROnfP/zw4sWL6reO7k9dS5PYQAABBBDokgAh0iUhUn5mqyAY+H+5q1KmCQPPSUpOMayoCH0wyZ2aQYs1PADSvLVvHD4cer36maEXG3oqClyqYuigLMHR7x00nCMvQ/wUDFx6H823zT+Fub/7veFyts/nk2f6qEYGHQChc0nz9u37T+m1viFc+lMC9BNkWw+Rra2tO3Y8ow7Js83ffPMtlXofnJh15swZqZoNBBBAAAF7BAiRhMgU+bE9dNjwNw4fDu+BKebxxZCKTNJeRcXGsNfbhl5sl1LRTz/9JBdnxUo2JBXFeIh8YOy4jz76OPCfFXm6uOqRYUmNOr9LXOotMnEoUGpD53r94EGVAvVz5hUUquel6yFS8qJ+z67+5EjDn0MM7CZ7EEAAAQQsFyBE9rgQ2dbW9t133+3eXSt/sDg1LT1nxszq6meDXnYMccx1KUReuXLlnXeOLCleKtcux46bsLp8zUcffRz4JJoQG+Dz+UIvtqupyOv1fvTRx8tXlKgGK7HKqq2G5yJJsXoq0rcjPRPp9XpPnz5dXf1szoyZKp/dkz5oTm7enpf2Bn2kqLKV5TVDhw0P+uBu6Vfol7N9Pt8PP/zw3HM7p067fptEYIhsa2v7+4cf5s/9fWpaempa+qOzZv/1jTeam5vVLwMSIuVvHiYlp7xWV6f/kqM/1IkHRob+ncKZCCCAgCUChMhohkhLPkIKQaA7Al6vV56F+cSTT6k/lt2dAnkvAggggEAPESBEEiJ7yFCnm0EErly58uxzO9Wc5QNjx50+fTrISexCAAEEEEAgmAAhkhAZbFywz9UCgYurfs6R8ucfXd11OocAAgggYJkAIZIQadlgoiCnCBhCZGpa+vMvvMjTFp3y8dFOBBBAIEYECJGEyBgZijTDPoGGhgb1kMWRozLXPvHk6dOn9dUq9rWDmhBAAAEEnCxAiCREOnn80nYEEEAAAQQQiJIAIZIQGaWhR7UIIIAAAggg4GQBQiQh0snjl7YjgAACCCCAQJQECJGEyCgNPapFAAEEEEAAAScLECIJkU4ev7QdAQQQQAABBKIkQIgkREZp6FEtAggggAACCDhZgBBJiHTy+KXtCCCAAAIIIBAlAUIkITJKQ49qEUAAAQQQQMDJAoRIQqSTxy9tRwABBBBAAIEoCRAiCZFRGnpUiwACCCCAAAJOFiBEEiKdPH5pOwIIIIAAAghESYAQSYiM0tCjWgQQQAABBBBwsgAhkhDp5PFL2xFAAAEEEEAgSgKESEJklIYe1SKAAAIIIICAkwUIkYRIJ49f2o4AAggggAACURIgRBIiozT0qBYBBBBAAAEEnCxAiCREOnn80nYEEEAAAQQQiJIAIZIQGaWhR7UIIIAAAggg4GQBQiQh0snjl7YjgAACCCCAQJQECJGEyCgNPapFAAEEEEAAAScLECIJkU4ev7QdAQQQQAABBKIkQIgkREZp6FEtAggggAACCDhZgBBJiHTy+KXtCCCAAAIIIBAlAUIkITJKQ49qEUAAAQQQQMDJAoRIQqSTxy9tRwABBBBAAIEoCRAiCZFRGnpUiwACCCCAAAJOFiBEEiKdPH5pOwIIIIAAAghESYAQSYiM0tCjWgQQQAABBBBwsgAhkhDp5PFL2xFAAAEEEEAgSgKESEJklIYe1SKAAAIIIICAkwUIkYRIJ49f2o4AAggggAACURIgRBIiozT0qBYBBBBAAAEEnCxAiCREOnn80nYEEEAAAQQQiJIAIZIQGaWhR7UIIIAAAggg4GQBQiQh0snjl7YjgAACCCCAQJQECJGEyCgNPapFAAEEEEAAAScLECIJkU4ev7QdAQQQQAABBKIkQIgkREZp6FEtAggggAACCDhZgBBpd4j0eDxPPr0x84FJCYmp/IcAAggggAACCFguMHps1rr1mz0eT0QzKiHS1hB5/JPPxoyfbPlYoUAEEEAAAQQQQMAgMHbClBMn/xG5HEmItDVEVm2rNnzAvEQAAQQQQAABpwvcPmblrfNP3FziuWmlz57/bi7x3Dr/xO2jHzOn27bjOUJktwTatC9v+9e19q/W1lZ/hGxpaW5u9ng8Te1fV69e7VZlpm9mGtJ8rHMUAQQQQAABxwncNn6dPcExaC23jV9nIjYtZ5ZpMOnWQWYi7QuRTU2efr9JM/mkOYQAAggggAACjhO4ZcGpoPHOnp23LDhlIpacdq/X6+1WVOz4zYRI+0Kkz+cz+Zg5hAACCCCAAAIOFLjn35b/rz15MWgt/2f55fjfpJu4dRwCu3uEEEmIZJE4AggggAACCIQvEDTb2bnTJEEmJKZ2Nyp2/H5CJCEy/G8b81HLUQQQQAABBHqCgJ15MWhd5sgdh8DuHiFEEiIJkQgggAACCCAQvkDQYGfnTkKkxOGbZMuqDW1xdlt0V2ebf8wcRQABBBBAAAHHCdiZF4PWZS5mVZoKLIeZSGYiw//dy3zUchQBBBBAAIGeIBA02Nm50xw5MPxZtYcQSYgkRCKAAAIIIIBA+AJ25sWgdREiJRZzOTv8cWw+jDiKAAIIIIAAApYLBA12du4075EELMs3mIlkJpLMigACCCCAAALhC5jnxUf2+y57/Pntssf3yH7/H0Vce8TXfO3GnhG7fCcu+D769saeR/b7LjX6T7tppf8t5/91/Y0dVUSIlHzMTGT449h8GHEUAQQQQAABBCwX6Cjb3bTSN2KXPwLWHLvxB7VH7PJ9+eP1gPj2GX98VOecuOA/R+1RG2+f8e+pOebfaVLFTSs7+VMmErAs32AmkplIMisCCCCAAAIIhC9gkvDWHvFHxhG7bqRAfc8j+/0hcslfb8RKObr2iH9u8qaV/v+rKUmTWsxjseXZUQokRDoiRKbEDwh/cJuPLY5aJdD+GaVYVRrlIIAAAgg4RcAk3kkolHP0PUFDpMqO6hr3miO+98/eCKBSiGHDHEoyn+UbhEhHhEgSpGME4hMd01Tzf3Q4igACCCAQooAh0ukvAy9n6/c7yuVsucB94sKNi9fqqH4pXC9Z3zZvp+XZUQokRMZ2iByQkjCAyS0nxbJ4Pi9iNAIIINDDBPQ8F7htWEajL6w5/y//lW4VNFUyU3dGqkLWHvEvr1FrcQKL1fcQIiXXsrDGSZnJfOByFAEEEEAAAdcL6HkujG19qY3+9lCW1KjzzYUlYFm+wUxkbM9E9rBf5sy/DTiKAAIIIIBADAroyS+M7cAQqSYv1TxlKAWam1ieHaVAQqTLQ+ToqZmb/7Jk+sIs8xFmfnTuqpxtR5ZPX5i1bFt+Zf3S0VMzzc8PPDp9Yda2I8urj5Ya3r5mT2H10dLqo6XLtuUHvsuePR21TWqfvjBr81+WqF53n0KKZQMBBBBAwB0CoeS8iJ5jziiZz/INQqTLQ2TmlIzNhxZnL5hoPsLMj+aVZW89sjx7wcTirblb6oszp2QMybhvw4FFkvwMLwNLu6tfcu9fx2fNHbPp0OLMKRlyQp++ib16x61+cV7x1lzZafNGR22TZmQvmLj5l2YHUshpbCCAAAII9EyBiAbEUAo3Z7c8O0qBhEhCZOe3YE4rnLjp0OKMyaNyH5+2vq5o8Mihg0cNq6grkuRneNnRaNbTmH5OeW2BFKXvt3O7o7YlJKbqhwIp7GwkdSGAAAIIxKBAKDkvoueYm0jms3yDEOnIEDl6amZl/dLAC8H6/g0HFg3JuE/NRBZtmqWuJqudCYmpgWeaDMG7+iXfcWe/+P4D+yYk3RHXP35AiiE16i/1kmWqUhWupzG9OkOI1EuQBuvny/aaPYV6FWpCdO6qnITEVLlQri7EJySmylF1SPZ31La5q3KUcPtVeP/8a0JiaiCFNIYNBBBAAIGeKRDRgBhK4ebslmdHKZAQ6bwQOSTjvooDi5ZUzu7VO27ouCGV9cUqNqnspfb36h2n0l7mlIzK+uLK+uL7JgxVJ+evytFLSBqUXFFXtGbPfPMhaDiqp8aExFR5qZest029PZQQqZfQaduKq+aU1xZI21Qz8sqyl23Lr6grShqU3Kt33JLK2epGTHW0+mhpcdUc/zX03fP0XhvaNn1hVmX90qy5Y3r1jgu8Ci81soEAAggggEAoOS+i55h/BJL5LN8gRDovRE5fOOmpfQvS7x+ckJga33/gksrZa2r9EXDZ1rz1dUVqv4ynzCkZmw4tnjxvbHz/gfH9B5bvnrd0a27+qpzK+uKRD43wlzAgZUrBuM2Hri8ckTeab0ggk7k6fzjbmttR21RphqAmVegzkV1qW+7j01SIVFOSmVMzNx9aPO+JGZX1xXNWTlWPbEy/f/D6uqL8VdNVm1e/OO/O+LsTElNzV06tqCsaknFf0Lat2TN/SeXsu/olGy5nS5vZQAABBBBAQAlENCCGUrj5B2F5dpQCCZHOC5H5ZdP16FZ9tFQFqfLagvLaAsPDrg0La1RcyyvLVrc2qmHXUbYzGZQqkC3eMqtX77heveOSBiWvf+0PxVtzO2qbeUV6iOxS26YVTnxq38JJuePLawtKqvMzp2RU1BXNXJK16dDiaYXX1xKppuaVZauN3JVTVWPk0nzQtulNCsPHhI5DCCCAAAIuEwgl50X0HHNPyXyWbxAinRci/THrtT+oa7Uqw/Xpm5iQmGq4tquGVEchsrK+OPOXJ/Xkl033v9QWTZsPR/36tTpT5bPirbkdtU2d1lEa0xNbXll26G3LmDyqoq6oaNOs4qo5JdX5+aumP7VvweTfjausL84vm35dwH//aLGEyLyy7KC9M7RNb5LhUNC3sxMBBBBAoMcK3LLgVEQzonnhtyw4ZS5veXaUAgmRzguRoyaPrKwvXrYtzzBophY+uO3IcnV/pBwKGiJHTR65pb542VZ/CXIPYnz/gfKuTjckNaoz5WVHbVOndZTG9MTWpbapqceSZ/OnFj5YXDVnTe388tqCu/oll++eV9G+rkiu8v92xBDVyBBDZHHVHHWxW91p2tWQ3SkgJyCAAAIIuEbgtvHrzHNeRI/eNn6duaRkPss3CJHOC5Hx/QcOf3BYZX2xXNRWwfGufskP/X6sWoVdfbRUX50tz4lUcc1QQnltgbpN0HwU6kclNaqd8tJQcvXRUtW2ZdvypbXyyHF9FbY6umxbvqEE87YNHjm0oq6ooq5o0Mh7VYYurpqTkJjap29ieW2BKrOyvvj+SffJivLAEBm0ben3D66oK6o+WrrtyPI5j01ZX1fUpZla3YptBBBAAAHXC9w++rFb55+4ucQT0byoF35ziefW+SduH7OyU1vLs6MUSIh0XohU62l+1SdBXcvu1Tuub0KSGkPqudlqv1qdHd9/4B139lMLRFS6Unkxvv9AKUFdDe90FOonxA9IuSOuv0RP/aVesrTtzvi7pbW9esf9qk+CWugjbVBHu9o2Va/qqeq7NEk9xlzqUkuI7ojrL1bSneBta+9gr95xvX8df/3uya7M1ErhbCCAAAIIIBBdAcl8lm8QIh0ZIqM7HKkdAQQQQAABBJwiYHl2lAIJkYTIzv9ijVO+T2gnAggggAACCBgEJPNZvkGIJEQSIhFAAAEEEEDAtQKWZ0cpkBBJiHTtt43hVzFeIoAAAggg0AMFJPNZvkGIjPUQGZ+YGp9IznOMAB9WD/wHmi4jgAACsSxgeXaUAgmRsR4iY3lc0jYEEEAAAQQQiHEByXyWbxAiCZGOmeSL8e9SmocAAggggEAMClieHaVAQiQhkhCJAAIIIIAAAq4VkMxn+QYhkhDp2m+bGPx1kCYhgAACCCBgs4Dl2VEKJEQSIgmRCCCAAAIIIOBaAcl8lm8QIgmRrv22sflXPapDAAEEEEAgBgUsz45SICGSEEmIRAABBBBAAAHXCkjms3yDEEmIdO23TQz+OkiTEEAAAQQQsFnA8uwoBRIiCZGESAQQQAABBBBwrYBkPss3CJGESNd+29j8qx7VIYAAAgggEIMClmdHKZAQSYgkRCKAAAIIIICAawUk81m+QYi0NUSOGT85Bn9HoUkIIIAAAggg4EqBaTmzLM+OUiAh0tYQWbWt2pVjlE4hgAACCCCAQAwKbH9mp2Q+yzcIkbaGyJaWlqwpM2NwkNEkBBBAAAEEEHCZwMSHclpaWizPjlIgIdLWEOnz+Twez7r1m0ePzXLZSKU7CCCAAAIIIBAjApkPTFq3frPH45HAF4kNQqTdITISnyJlIoAAAggggAACNgsQIgmRNg85qkMAAQQQQAABNwgQIgmRbhjH9AEBBBBAAAEEbBYgRBIibR5yVIcAAggggAACbhAgRBIi3TCO6QMCCCCAAAII2CxAiCRE2jzkqA4BBBBAAAEE3CBAiCREumEc0wcEEEAAAQQQsFmAEEmItHnIUR0CCCCAAAIIuEGAEEmIdMM4pg8IIIAAAgggYLMAIZIQafOQozoEEEAAAQQQcIMAIZIQ6YZxTB8QQAABBBBAwGYBQiQh0uYhR3UIIIAAAggg4AYBQiQh0g3jmD4ggAACCCCAgM0ChEhCpM1DjuoQQAABBBBAwA0ChEhCpBvGMX1AAAEEEEAAAZsFCJGESJuHHNUhgAACCCCAgBsECJGESDeMY/qAAAIIIIAAAjYLECIJkTYPOapDAAEEEEAAATcIECIJkW4Yx/QBAQQQQAABBGwWIEQSIm0eclSHAAIIIIAAAm4QIEQSIt0wjukDAggggAACCNgsQIgkRNo85KgOAQQQQAABBNwgQIgkRLphHNMHBBBAAAEEELBZgBB5I0R6PJ6mpqarV6/a/BlQHQIIIIAAAggg4DgBFSI97V/Nzc3+RNXS0traeq39y9v+1aZ92dDBmyyvQ2t/m+qS6l5r+1dLS0tzc7MiIERajk+BCCCAAAIIIOBKgcAQqZIVIdKVHzedQgABBBBAAAEErBEgRLYyE2nNUKIUBBBAAAEEEOhJAoRIQmRPGu/0FQEEEEAAAQQsEugRIdLn88ltkdwTadHIoRgEEEAAAQQQ6NECXQqR9khZv7AmlBCp1tawsMaez5haEEAAAQQQQMDpAhIim9u/1NLsjlZn29NZQqQ9ztSCAAIIIIAAAgiEL9BDQ6TX67127Zr+iB9mIsMfRLwTAQQQQAABBHqegEmIVHcPer1euZ/QHh47ZiJViFQ5Uj0bU0JkU1OTPf2kFgQQQAABBBBAwLkCTe1fHo+noyeNEyKd++HScgQQQAABBBBAIFICPS5EtrUZ/2iNPhOp/vJhpLApFwEEEEAAAQQQcItAU1NTTP3NQ5/PF9nL2YEhsrX1+qMi5Yp2W1ubWz5f+oEAAggggAACCFgv0NbWpkJkKEuzbUtW0Q+R165dsx6bEhFAAAEEEEAAAbcIXLt2raeEyMBHRXa0tsbj8bS0tLjlI6YfCCCAAAIIIICA9QItLS3m17LtX1UTqcvZIYZIrmhbP8ooEQEEEEAAAQTcJRB4LVs9afxa+1e0nu9jR4gM5bZIJiPdNdrpDQIIIIAAAghYJtDS0hKD17KjMJOtcgAAAmtJREFUGSJbWlrUTKRao82dkZaNNQpCAAEEEEAAAbcIeL3eoOuyO/qDh7atqrE1RAa9LVJypMfj8Xq9bvnE6QcCCCCAAAIIINBdAbmQrZ4xHspjxt0QIs1vi1QP+lGTkXJnJDmyu2ON9yOAAAIIIICAWwS8Xq+6WhuYIA3TkFFZVRPBmUg9RMptkfpkpOGBkYqpqamJ+yPdMvjpBwIIIIAAAgiEKaDug9QvZKtpyNb2r46W1Ng5DRn9EKlPRkqOVFGytbVVJesw+XkbAggggAACCCDgEAE146am2NRfOAxMkGpRtsk0pHtCZIiTkUFz5NX2r0bt63+1ryt8IYAAAggggAACjhXQQo1/U/KOyj/yZ7K7dCHb5gQZ2ZlI8xB57do1NSUrf01bFtlIAA+Mko2NjQZ3XiKAAAIIIIAAAo4TkOCoNvT42Okc5LVr1wIfD+m2EGmeI1WIDFxko57JboiSV69eNXAbXjpu9NBgBBBAAAEEEHC9gCGuGF6q7Hj16lWJPSoFBZ2DjJ0L2eoegYj87Wz99oM27UtSs7ohVCYjDTlSpiT1uySbmpoEWjYMnwQvEUAAAQQQQACBmBWQACMbkh1l9lHio/5AH309TYxMQ0b8crZKk1qMbAs9R3YUJYVbPgA2EEAAAQQQQAABRwhIjNE3DLOPze1f6n4/uWwrE3ASpfR8pc/f2bYd8ZlIwxXtwMf9BM5HylIbhSiyhsvcuj7bCCCAAAIIIICAgwQM8UZlHj0+ylpsuYrd0Ryk/XdDqpxqR4gMJUd2GiWDBkrDB8BLBBBAAAEEEEDAKQJ6cOw0PsZagvw5R/4/9gMG5pbCI24AAAAASUVORK5CYII=;imageBorder=default;" vertex="1" parent="1">
          <mxGeometry x="550" y="100" width="457.7" height="430" as="geometry" />
        </mxCell>
        <mxCell id="cnLCLMYv-gfv657BTeQf-3" value="" style="shape=flexArrow;endArrow=classic;html=1;rounded=0;" edge="1" parent="1">
          <mxGeometry width="50" height="50" relative="1" as="geometry">
            <mxPoint x="460" y="300" as="sourcePoint" />
            <mxPoint x="540" y="300" as="targetPoint" />
          </mxGeometry>
        </mxCell>
        <mxCell id="cnLCLMYv-gfv657BTeQf-4" value="&lt;font style=&quot;font-size: 15px;&quot;&gt;&lt;b style=&quot;&quot;&gt;After modification&lt;/b&gt;&lt;/font&gt;" style="text;html=1;align=center;verticalAlign=middle;resizable=0;points=[];autosize=1;strokeColor=none;fillColor=none;" vertex="1" parent="1">
          <mxGeometry x="430" y="238" width="150" height="30" as="geometry" />
        </mxCell>
      </root>
    </mxGraphModel>
  </diagram>
</mxfile>
